<svg width="20" height="20" viewBox="0 0 20 20" fill="none" xmlns="http://www.w3.org/2000/svg">
<path d="M17.5 16.6679C17.5 15.2166 16.1087 13.9818 14.1667 13.5243M12.5 16.668C12.5 14.827 10.2614 13.3346 7.5 13.3346C4.73858 13.3346 2.5 14.827 2.5 16.668M12.5 10.8346C14.3409 10.8346 15.8333 9.34225 15.8333 7.5013C15.8333 5.66035 14.3409 4.16797 12.5 4.16797M7.5 10.8346C5.65905 10.8346 4.16667 9.34225 4.16667 7.5013C4.16667 5.66035 5.65905 4.16797 7.5 4.16797C9.34095 4.16797 10.8333 5.66035 10.8333 7.5013C10.8333 9.34225 9.34095 10.8346 7.5 10.8346Z" stroke="black" stroke-linecap="round" stroke-linejoin="round"/>
</svg>
