<svg width="20" height="20" viewBox="0 0 20 20" fill="none" xmlns="http://www.w3.org/2000/svg">
<path d="M15.5023 10.6069L12.9702 7.57344C12.7135 7.24345 12.5852 7.07844 12.5179 6.89339C12.4584 6.72965 12.4338 6.55527 12.4456 6.38145C12.459 6.18501 12.5366 5.99093 12.6919 5.60278L13.2842 4.12216C13.5139 3.54773 13.6288 3.26052 13.827 3.07226C14.0016 2.90637 14.2205 2.79447 14.4572 2.75002C14.7259 2.69958 15.026 2.7746 15.6262 2.92466L17.2656 3.33457C17.2656 11.6679 11.4325 17.5012 3.09896 17.5012L2.68927 15.8616C2.53922 15.2614 2.46419 14.9613 2.51464 14.6926C2.55909 14.4559 2.67099 14.237 2.83687 14.0624C3.02513 13.8642 3.31235 13.7493 3.88677 13.5195L5.20806 12.991C5.65088 12.8139 5.8723 12.7253 6.09306 12.7185C6.28817 12.7125 6.48197 12.7523 6.65894 12.8347C6.85918 12.9279 7.0278 13.0965 7.36505 13.4338L9.93701 15.9653" stroke="black" stroke-linecap="round" stroke-linejoin="round"/>
</svg>
