<svg width="20" height="20" viewBox="0 0 20 20" fill="none" xmlns="http://www.w3.org/2000/svg">
<path d="M16.4005 3.62703C14.733 1.92432 12.4278 1 10.0736 1C5.07084 1 1.04905 5.03784 1.09809 9.95135C1.09809 11.5081 1.53951 13.0162 2.2752 14.3784L1 19L5.75749 17.7838C7.08174 18.5135 8.55313 18.8541 10.0245 18.8541C14.9782 18.8541 19 14.8162 19 9.9027C19 7.51892 18.0681 5.28108 16.4005 3.62703ZM10.0736 17.3459C8.74932 17.3459 7.42507 17.0054 6.297 16.3243L6.00272 16.1784L3.15804 16.9081L3.89373 14.1351L3.69755 13.8432C1.53951 10.3892 2.56948 5.81622 6.10082 3.67568C9.63215 1.53514 14.1935 2.55676 16.3515 6.05946C18.5095 9.56216 17.4796 14.0865 13.9482 16.227C12.8202 16.9568 11.4469 17.3459 10.0736 17.3459ZM14.3896 11.9459L13.8501 11.7027C13.8501 11.7027 13.0654 11.3622 12.5749 11.1189C12.5259 11.1189 12.4768 11.0703 12.4278 11.0703C12.2807 11.0703 12.1826 11.1189 12.0845 11.1676C12.0845 11.1676 12.0354 11.2162 11.3488 11.9946C11.2997 12.0919 11.2016 12.1405 11.1035 12.1405H11.0545C11.0054 12.1405 10.9074 12.0919 10.8583 12.0432L10.6131 11.9459C10.0736 11.7027 9.58311 11.4108 9.19074 11.0216C9.09264 10.9243 8.9455 10.827 8.84741 10.7297C8.50409 10.3892 8.16076 10 7.91553 9.56216L7.86648 9.46486C7.81744 9.41622 7.81744 9.36757 7.76839 9.27027C7.76839 9.17297 7.76839 9.07568 7.81744 9.02703C7.81744 9.02703 8.01362 8.78378 8.16076 8.63784C8.25886 8.54054 8.3079 8.39459 8.40599 8.2973C8.50409 8.15135 8.55313 7.95676 8.50409 7.81081C8.45504 7.56757 7.86648 6.25405 7.71935 5.96216C7.62125 5.81622 7.52316 5.76757 7.37602 5.71892H7.22888C7.13079 5.71892 6.98365 5.71892 6.83651 5.71892C6.73842 5.71892 6.64033 5.76757 6.54223 5.76757L6.49319 5.81622C6.39509 5.86486 6.297 5.96216 6.19891 6.01081C6.10082 6.10811 6.05177 6.20541 5.95368 6.3027C5.61035 6.74054 5.41417 7.27568 5.41417 7.81081C5.41417 8.2 5.51226 8.58919 5.6594 8.92973L5.70845 9.07568C6.14986 10 6.73842 10.827 7.52316 11.5568L7.71935 11.7514C7.86648 11.8973 8.01362 11.9946 8.11172 12.1405C9.14169 13.0162 10.3188 13.6486 11.6431 13.9892C11.7902 14.0378 11.9864 14.0378 12.1335 14.0865C12.2807 14.0865 12.4768 14.0865 12.624 14.0865C12.8692 14.0865 13.1635 13.9892 13.3597 13.8919C13.5068 13.7946 13.6049 13.7946 13.703 13.6973L13.8011 13.6C13.8992 13.5027 13.9973 13.4541 14.0954 13.3568C14.1935 13.2595 14.2916 13.1622 14.3406 13.0649C14.4387 12.8703 14.4877 12.627 14.5368 12.3838C14.5368 12.2865 14.5368 12.1405 14.5368 12.0432C14.5368 12.0432 14.4877 11.9946 14.3896 11.9459Z" fill="black"/>
</svg>
