<svg width="24" height="25" viewBox="0 0 24 25" fill="none" xmlns="http://www.w3.org/2000/svg">
<path d="M5 17.8315V7.1648C5 6.28523 5 5.84545 5.18509 5.58521C5.34664 5.35807 5.59564 5.2087 5.87207 5.17304C6.1885 5.13223 6.57572 5.33875 7.35036 5.75189L7.35254 5.75305L17.3525 11.0864C18.212 11.5448 18.6418 11.774 18.7826 12.0792C18.9053 12.3451 18.9053 12.6513 18.7826 12.9171C18.6418 13.2223 18.212 13.4515 17.3525 13.9099L7.35254 19.2432L7.34978 19.2447C6.57553 19.6576 6.18842 19.8641 5.87207 19.8233C5.59564 19.7877 5.34664 19.6383 5.18509 19.4111C5 19.1509 5 18.711 5 17.8315Z" stroke="#BEC9B7" stroke-width="2" stroke-linecap="round" stroke-linejoin="round"/>
</svg>
