<svg width="13" height="14" viewBox="0 0 13 14" fill="none" xmlns="http://www.w3.org/2000/svg">
<path fill-rule="evenodd" clip-rule="evenodd" d="M6.50001 1.50302C3.4641 1.50301 1.00301 3.96411 1.00302 7.00001C1.00301 10.0359 3.46409 12.497 6.49999 12.497C9.5359 12.497 11.997 10.0359 11.997 6.99999C11.997 3.96409 9.53591 1.50301 6.50001 1.50302ZM6.49999 13.5C2.91016 13.5 1.26047e-05 10.5898 0 7.00001C1.16709e-06 3.41015 2.91015 0.500001 6.50001 0.5C10.0899 0.499995 13 3.41014 13 6.99999C13 10.5899 10.0899 13.5 6.49999 13.5ZM8.47932 8.97992C8.28347 9.17577 7.96593 9.17576 7.77007 8.97991L6.4997 7.70953L5.22928 8.97995C5.03343 9.1758 4.7159 9.1758 4.52005 8.97995C4.3242 8.7841 4.3242 8.46657 4.52005 8.27072L5.79047 7.0003L4.52009 5.72992C4.32423 5.53407 4.32423 5.21653 4.52008 5.02068C4.71594 4.82482 5.03348 4.82483 5.22933 5.02068L6.49971 6.29106L7.77012 5.02065C7.96598 4.82479 8.28351 4.82479 8.47936 5.02064C8.67521 5.21649 8.67521 5.53402 8.47935 5.72988L7.20894 7.00029L8.47932 8.27067C8.67517 8.46652 8.67518 8.78406 8.47932 8.97992Z" fill="black"/>
</svg>
