<svg width="20" height="20" viewBox="0 0 20 20" fill="none" xmlns="http://www.w3.org/2000/svg">
<path fill-rule="evenodd" clip-rule="evenodd" d="M4.02008 4.02007C0.717446 7.3227 0.717446 12.6773 4.02008 15.98C7.3227 19.2826 12.6773 19.2826 15.9799 15.98C19.2826 12.6773 19.2826 7.3227 15.9799 4.02007C12.6773 0.717449 7.3227 0.717449 4.02008 4.02007ZM17.0711 17.0711C13.1658 20.9763 6.83418 20.9763 2.92894 17.0711C-0.976313 13.1658 -0.976313 6.83419 2.92894 2.92894C6.83418 -0.976313 13.1658 -0.976313 17.0711 2.92894C20.9764 6.83419 20.9764 13.1658 17.0711 17.0711ZM14.3071 10.0007C14.3071 10.4268 13.9616 10.7722 13.5355 10.7722H10.7715V13.5363C10.7715 13.9624 10.4261 14.3078 10 14.3078C9.57388 14.3078 9.22846 13.9624 9.22846 13.5363V10.7722H6.46448C6.03836 10.7722 5.69292 10.4268 5.69292 10.0007C5.69292 9.57453 6.03836 9.2291 6.46448 9.2291H9.22846V6.46506C9.22846 6.03893 9.57388 5.6935 10 5.6935C10.4261 5.6935 10.7715 6.03893 10.7715 6.46506V9.2291H13.5355C13.9616 9.2291 14.3071 9.57453 14.3071 10.0007Z" fill="black"/>
</svg>
