<svg width="13" height="14" viewBox="0 0 13 14" fill="none" xmlns="http://www.w3.org/2000/svg">
<g clip-path="url(#clip0_4701_586)">
<path fill-rule="evenodd" clip-rule="evenodd" d="M9.50001 7.00001C9.50001 7.27615 9.27615 7.50001 9 7.50001H4.00001C3.72386 7.50001 3.5 7.27615 3.5 7.00001C3.5 6.72386 3.72386 6.5 4.00001 6.5H9C9.27615 6.5 9.50001 6.72386 9.50001 7.00001Z" fill="black"/>
<path fill-rule="evenodd" clip-rule="evenodd" d="M6.14644 9.85355C5.95118 9.65829 5.95118 9.34171 6.14644 9.14645L8.29289 7L6.14644 4.85355C5.95118 4.65829 5.95118 4.3417 6.14644 4.14644C6.3417 3.95118 6.65829 3.95118 6.85355 4.14644L9.35356 6.64645C9.54882 6.84171 9.54882 7.1583 9.35356 7.35356L6.85355 9.85355C6.65829 10.0488 6.3417 10.0488 6.14644 9.85355Z" fill="black"/>
<path fill-rule="evenodd" clip-rule="evenodd" d="M6.5 12.5C9.53757 12.5 12 10.0376 12 7C12 3.96243 9.53757 1.5 6.5 1.5C3.46243 1.5 1 3.96243 1 7C1 10.0376 3.46243 12.5 6.5 12.5ZM6.5 13.5C10.0898 13.5 13 10.5898 13 7C13 3.41015 10.0898 0.5 6.5 0.5C2.91015 0.5 0 3.41015 0 7C0 10.5898 2.91015 13.5 6.5 13.5Z" fill="black"/>
</g>
<defs>
<clipPath id="clip0_4701_586">
<rect width="13" height="13" fill="white" transform="translate(0 0.5)"/>
</clipPath>
</defs>
</svg>
