<svg width="21" height="20" viewBox="0 0 21 20" fill="none" xmlns="http://www.w3.org/2000/svg">
<path d="M10.1 4.73989L10.5003 5.27502L10.9007 4.73989C11.6524 3.7351 12.8569 3.08203 14.2003 3.08203C16.4802 3.08203 18.3337 4.93917 18.3337 7.24036C18.3337 8.17765 18.1842 9.04245 17.9246 9.84478L17.9236 9.84804C17.301 11.8181 16.0243 13.4088 14.6421 14.5966C13.2578 15.7863 11.7966 16.547 10.8559 16.867L10.8559 16.867L10.8506 16.8689C10.7791 16.8941 10.6521 16.9154 10.5003 16.9154C10.3486 16.9154 10.2216 16.8941 10.1501 16.8689L10.1501 16.8688L10.1447 16.867C9.20409 16.547 7.74283 15.7863 6.35851 14.5966C4.9764 13.4088 3.69962 11.8181 3.07709 9.84804L3.0771 9.84804L3.07605 9.84479C2.81647 9.04245 2.66699 8.17765 2.66699 7.24036C2.66699 4.93917 4.52047 3.08203 6.80033 3.08203C8.14375 3.08203 9.34823 3.7351 10.1 4.73989Z" fill="#BEC9B7" stroke-width="1" stroke-linecap="round" stroke-linejoin="round"/>
</svg>
