<svg width="44" height="44" viewBox="0 0 44 44" fill="none" xmlns="http://www.w3.org/2000/svg">
<rect width="44" height="44" rx="22" fill="#BEC9B7"/>
<g clip-path="url(#clip0_1245_2601)">
<path d="M22 13C19.555 13 19.2498 13.0112 18.2898 13.054C17.3313 13.099 16.6787 13.2498 16.105 13.4725C15.5132 13.702 15.0108 14.0102 14.5105 14.5105C14.0102 15.0108 13.7013 15.5125 13.4725 16.105C13.2498 16.6787 13.0983 17.3313 13.054 18.2898C13.009 19.2498 13 19.555 13 22C13 24.445 13.0112 24.7503 13.054 25.7103C13.099 26.668 13.2498 27.3213 13.4725 27.895C13.702 28.486 14.0102 28.9893 14.5105 29.4895C15.0108 29.989 15.5125 30.2987 16.105 30.5275C16.6795 30.7495 17.332 30.9018 18.2898 30.946C19.2498 30.991 19.555 31 22 31C24.445 31 24.7503 30.9888 25.7103 30.946C26.668 30.901 27.3213 30.7495 27.895 30.5275C28.486 30.298 28.9893 29.989 29.4895 29.4895C29.989 28.9893 30.2987 28.4883 30.5275 27.895C30.7495 27.3213 30.9018 26.668 30.946 25.7103C30.991 24.7503 31 24.445 31 22C31 19.555 30.9888 19.2498 30.946 18.2898C30.901 17.332 30.7495 16.678 30.5275 16.105C30.298 15.5132 29.989 15.0108 29.4895 14.5105C28.9893 14.0102 28.4883 13.7013 27.895 13.4725C27.3213 13.2498 26.668 13.0983 25.7103 13.054C24.7503 13.009 24.445 13 22 13ZM22 14.62C24.4023 14.62 24.6888 14.632 25.6375 14.6732C26.515 14.7145 26.9913 14.86 27.3077 14.9845C27.7292 15.1472 28.0278 15.3423 28.3442 15.6565C28.6585 15.9715 28.8535 16.2707 29.0163 16.6922C29.1392 17.0087 29.2862 17.485 29.326 18.3625C29.3687 19.312 29.3785 19.597 29.3785 22C29.3785 24.403 29.3673 24.6888 29.323 25.6375C29.2773 26.515 29.131 26.9913 29.0072 27.3077C28.8393 27.7292 28.648 28.0278 28.333 28.3442C28.0188 28.6585 27.715 28.8535 27.298 29.0163C26.983 29.1392 26.4993 29.2862 25.6217 29.326C24.6663 29.3687 24.385 29.3785 21.9775 29.3785C19.5693 29.3785 19.288 29.3673 18.3333 29.323C17.455 29.2773 16.9713 29.131 16.6562 29.0072C16.2295 28.8393 15.9362 28.648 15.622 28.333C15.3063 28.0188 15.1045 27.715 14.947 27.298C14.8232 26.983 14.6778 26.4993 14.632 25.6217C14.5983 24.6768 14.5863 24.385 14.5863 21.9887C14.5863 19.5917 14.5983 19.2993 14.632 18.343C14.6778 17.4655 14.8232 16.9825 14.947 16.6675C15.1045 16.24 15.3063 15.9475 15.622 15.6318C15.9362 15.3175 16.2295 15.115 16.6562 14.9583C16.9713 14.8338 17.4445 14.6875 18.322 14.6425C19.2783 14.6087 19.5595 14.5975 21.9662 14.5975L22 14.62ZM22 17.3785C19.4462 17.3785 17.3785 19.4485 17.3785 22C17.3785 24.5538 19.4485 26.6215 22 26.6215C24.5538 26.6215 26.6215 24.5515 26.6215 22C26.6215 19.4462 24.5515 17.3785 22 17.3785ZM22 25C20.3425 25 19 23.6575 19 22C19 20.3425 20.3425 19 22 19C23.6575 19 25 20.3425 25 22C25 23.6575 23.6575 25 22 25ZM27.8845 17.1962C27.8845 17.7925 27.4 18.2762 26.8045 18.2762C26.2083 18.2762 25.7245 17.7917 25.7245 17.1962C25.7245 16.6007 26.209 16.117 26.8045 16.117C27.3993 16.1163 27.8845 16.6007 27.8845 17.1962Z" fill="black"/>
</g>
<defs>
<clipPath id="clip0_1245_2601">
<rect width="18" height="18" fill="white" transform="translate(13 13)"/>
</clipPath>
</defs>
</svg>
