<svg width="212" height="54" viewBox="0 0 212 54" fill="none" xmlns="http://www.w3.org/2000/svg">
<path d="M14.5483 27.3329V47.1836C14.5483 47.4147 14.3589 47.6051 14.1291 47.6051H2.54029C2.31041 47.6051 2.12109 47.4147 2.12109 47.1836V27.3329C2.12109 27.1425 2.25632 26.9658 2.44563 26.9114L5.15013 26.2452C5.33944 26.2044 5.47467 26.0277 5.47467 25.8237V6.81602C5.47467 6.58488 5.66399 6.39453 5.89387 6.39453H10.7619C10.9919 6.39453 11.1812 6.58488 11.1812 6.81602V25.8373C11.1812 26.0277 11.3164 26.2044 11.5057 26.2588L14.2102 26.925C14.4131 26.9658 14.5483 27.129 14.5483 27.3329Z" fill="black"/>
<path d="M28.2318 27.3329V47.1836C28.2318 47.4147 28.0425 47.6051 27.8127 47.6051H16.2239C15.994 47.6051 15.8047 47.4147 15.8047 47.1836V27.3329C15.8047 27.1425 15.9399 26.9658 16.1293 26.9114L18.8337 26.2452C19.0231 26.2044 19.1582 26.0277 19.1582 25.8237V6.81602C19.1582 6.58488 19.3476 6.39453 19.5774 6.39453H24.4726C24.7025 6.39453 24.8918 6.58488 24.8918 6.81602V25.8373C24.8918 26.0277 25.027 26.2044 25.2164 26.2588L27.9208 26.925C28.0967 26.9658 28.2318 27.129 28.2318 27.3329Z" fill="black"/>
<path d="M41.9154 27.3329V47.1836C41.9154 47.4147 41.7261 47.6051 41.4962 47.6051H29.9075C29.6776 47.6051 29.4883 47.4147 29.4883 47.1836V27.3329C29.4883 27.1425 29.6235 26.9658 29.8128 26.9114L32.5173 26.2452C32.7066 26.2044 32.8418 26.0277 32.8418 25.8237V6.81602C32.8418 6.58488 33.0312 6.39453 33.261 6.39453H38.1562C38.3861 6.39453 38.5754 6.58488 38.5754 6.81602V25.8373C38.5754 26.0277 38.7106 26.2044 38.8999 26.2588L41.6044 26.925C41.7802 26.9658 41.9154 27.129 41.9154 27.3329Z" fill="black"/>
<path d="M55.6029 27.3329V47.1836C55.6029 47.4147 55.4136 47.6051 55.1837 47.6051H43.595C43.3651 47.6051 43.1758 47.4147 43.1758 47.1836V27.3329C43.1758 27.1425 43.311 26.9658 43.5003 26.9114L46.2048 26.2452C46.3941 26.2044 46.5293 26.0277 46.5293 25.8237V6.81602C46.5293 6.58488 46.7187 6.39453 46.9485 6.39453H51.8437C52.0736 6.39453 52.2629 6.58488 52.2629 6.81602V25.8373C52.2629 26.0277 52.3981 26.2044 52.5874 26.2588L55.2919 26.925C55.4677 26.9658 55.6029 27.129 55.6029 27.3329Z" fill="black"/>
<path d="M93.0838 35.1319C93.0838 35.0369 93.0364 34.9656 92.9184 34.9181C92.8004 34.8706 92.6817 34.8468 92.5637 34.8231C92.5163 34.8231 92.493 34.7756 92.493 34.7281C92.493 34.7044 92.493 34.6806 92.493 34.6806C92.493 34.6568 92.493 34.6331 92.5163 34.6094C92.6584 34.6331 92.8471 34.6331 93.0364 34.6331C93.2251 34.6331 93.4145 34.6331 93.5799 34.6331C93.6979 34.6331 93.7926 34.6568 93.8159 34.6806C93.8632 34.7044 93.8866 34.7518 93.9106 34.8231L95.2335 37.7921L94.808 37.9584L96.273 34.8231C96.2963 34.7518 96.3436 34.7044 96.367 34.6806C96.4143 34.6568 96.485 34.6331 96.627 34.6331C96.7924 34.6331 96.9811 34.6331 97.1464 34.6331C97.3118 34.6331 97.4771 34.6331 97.6425 34.6094C97.6425 34.6331 97.6425 34.6568 97.6665 34.6806C97.6665 34.7044 97.6665 34.7281 97.6665 34.7281C97.6665 34.7756 97.6425 34.8231 97.5959 34.8231C97.4771 34.8468 97.3591 34.8706 97.2411 34.9181C97.1231 34.9656 97.0757 35.0369 97.0998 35.1082L97.2411 37.8159C97.2411 37.9109 97.2884 37.9822 97.4065 38.0296C97.5012 38.0772 97.6192 38.1009 97.7612 38.1246C97.8078 38.1246 97.8319 38.1722 97.8319 38.2197C97.8319 38.2434 97.8319 38.2672 97.8319 38.2909C97.8319 38.3147 97.8319 38.3384 97.8079 38.3622C97.6665 38.3622 97.5012 38.3384 97.3832 38.3384C97.2411 38.3384 97.0998 38.3147 96.9344 38.3147C96.7691 38.3147 96.627 38.3147 96.4617 38.3384C96.2963 38.3384 96.1542 38.3622 96.0129 38.3622C96.0129 38.3384 96.0129 38.3147 95.9889 38.2909C95.9889 38.2672 95.9889 38.2434 95.9889 38.2197C95.9889 38.1722 96.0129 38.1246 96.0603 38.1246C96.1783 38.1009 96.2963 38.0772 96.391 38.0296C96.485 37.9822 96.5323 37.9109 96.5323 37.8159L96.391 34.8944H96.6503L95.0914 38.2909C95.0681 38.3147 95.0441 38.3622 94.9967 38.3622C94.9501 38.386 94.9261 38.386 94.8787 38.386C94.8554 38.386 94.8314 38.386 94.8314 38.386L93.2251 34.7994L93.5085 34.7281L93.3672 37.7921C93.3672 37.8871 93.4145 37.9584 93.5085 38.0059C93.6032 38.0534 93.7212 38.0772 93.8392 38.1009C93.8866 38.1009 93.9106 38.1484 93.9106 38.1959C93.9106 38.2197 93.9106 38.2434 93.9106 38.2672C93.9106 38.2909 93.9106 38.3147 93.8866 38.3384C93.7685 38.3384 93.6505 38.3147 93.5085 38.3147C93.3672 38.3147 93.2491 38.2909 93.1545 38.2909C93.0364 38.2909 92.9184 38.2909 92.7764 38.3147C92.635 38.3384 92.5163 38.3384 92.3983 38.3384C92.3983 38.3147 92.3983 38.2909 92.375 38.2672C92.375 38.2434 92.375 38.2197 92.375 38.1959C92.375 38.1484 92.3983 38.1009 92.4457 38.1009C92.5637 38.0772 92.6817 38.0534 92.8004 38.0059C92.8944 37.9584 92.9658 37.8871 92.9658 37.7921L93.0838 35.1319Z" fill="black"/>
<path d="M102.935 38.125C102.982 38.125 103.029 38.1963 103.029 38.315C102.888 38.41 102.675 38.4813 102.463 38.4813C102.203 38.4813 102.014 38.41 101.896 38.2675C101.778 38.125 101.707 37.9587 101.683 37.7925C101.541 38.0537 101.353 38.2437 101.163 38.3387C100.974 38.4337 100.738 38.4813 100.455 38.4813C100.336 38.4813 100.218 38.4813 100.077 38.4575C99.935 38.4337 99.817 38.3863 99.699 38.3387C99.5809 38.2675 99.4863 38.1725 99.4156 38.0537C99.3442 37.9349 99.2969 37.7687 99.2969 37.5787C99.2969 37.3649 99.3442 37.1749 99.4622 37.0324C99.5569 36.8899 99.699 36.7474 99.8643 36.6524C100.03 36.5574 100.195 36.4861 100.384 36.4148C100.573 36.3436 100.762 36.2961 100.927 36.2723C101.022 36.2486 101.117 36.2248 101.211 36.2248C101.305 36.201 101.376 36.1773 101.447 36.1536C101.518 36.1298 101.589 36.106 101.589 36.0586C101.613 36.011 101.613 35.9398 101.613 35.821C101.613 35.536 101.565 35.2985 101.447 35.1322C101.353 34.9659 101.163 34.8709 100.88 34.8709C100.667 34.8709 100.526 34.9185 100.455 35.0135C100.384 35.1085 100.29 35.2747 100.218 35.5123C100.195 35.5835 100.171 35.631 100.1 35.6548C100.03 35.6785 99.935 35.726 99.7937 35.7498C99.7463 35.7735 99.7223 35.7735 99.6516 35.7972C99.6043 35.821 99.5569 35.821 99.5096 35.821C99.4622 35.821 99.4156 35.7498 99.4156 35.631C99.4156 35.5122 99.4622 35.3697 99.5569 35.251C99.6516 35.1322 99.7937 35.0135 99.935 34.9185C100.1 34.8235 100.266 34.7284 100.431 34.6809C100.62 34.6097 100.786 34.5859 100.951 34.5859C101.163 34.5859 101.329 34.6097 101.494 34.6334C101.659 34.6809 101.801 34.7284 101.919 34.8235C102.037 34.9185 102.132 35.0372 102.179 35.2035C102.25 35.3697 102.274 35.5598 102.274 35.821V37.3411C102.274 37.5549 102.274 37.6975 102.297 37.7925C102.321 37.8875 102.345 37.9587 102.368 38.0062C102.415 38.0775 102.463 38.1487 102.51 38.1725C102.557 38.1963 102.605 38.22 102.675 38.22C102.746 38.22 102.793 38.22 102.817 38.1963C102.888 38.125 102.911 38.125 102.935 38.125ZM101.613 36.3911L101.329 36.4386C101.187 36.4623 101.022 36.5098 100.88 36.5336C100.738 36.5811 100.62 36.6286 100.502 36.6998C100.384 36.7711 100.313 36.8661 100.242 36.9849C100.171 37.1036 100.148 37.2461 100.148 37.3887C100.148 37.6024 100.195 37.7925 100.313 37.9112C100.431 38.03 100.573 38.0775 100.738 38.0775C100.856 38.0775 100.951 38.0537 101.069 38.0062C101.187 37.9587 101.282 37.8875 101.353 37.7925C101.423 37.6975 101.494 37.6024 101.541 37.4599C101.589 37.3411 101.613 37.1986 101.613 37.0562V36.3911Z" fill="black"/>
<path d="M108.156 37.8634C108.156 37.9584 108.203 38.0296 108.321 38.0534C108.416 38.1009 108.534 38.1246 108.676 38.1484C108.723 38.1484 108.746 38.1959 108.746 38.2434C108.746 38.2672 108.746 38.2909 108.746 38.3147C108.746 38.3384 108.746 38.3622 108.723 38.386C108.581 38.386 108.416 38.3622 108.274 38.3622C108.132 38.3622 107.967 38.3384 107.802 38.3384C107.636 38.3384 107.494 38.3384 107.329 38.3622C107.164 38.3622 107.022 38.386 106.857 38.386C106.857 38.3622 106.857 38.3384 106.833 38.3147C106.833 38.2909 106.833 38.2672 106.833 38.2434C106.833 38.1959 106.857 38.1484 106.904 38.1484C107.022 38.1246 107.14 38.1009 107.235 38.0534C107.329 38.0059 107.376 37.9346 107.376 37.8634V36.6283H105.605V37.8634C105.605 37.9584 105.652 38.0296 105.747 38.0534C105.841 38.1009 105.959 38.1246 106.077 38.1484C106.124 38.1484 106.148 38.1959 106.148 38.2434C106.148 38.2672 106.148 38.2909 106.148 38.3147C106.148 38.3384 106.148 38.3622 106.124 38.386C105.983 38.386 105.817 38.3622 105.675 38.3622C105.534 38.3622 105.369 38.3384 105.203 38.3384C105.038 38.3384 104.872 38.3384 104.707 38.3622C104.565 38.3622 104.4 38.386 104.258 38.386C104.258 38.3622 104.258 38.3384 104.234 38.3147C104.234 38.2909 104.234 38.2672 104.234 38.2434C104.234 38.1959 104.258 38.1484 104.305 38.1484C104.424 38.1246 104.542 38.1009 104.66 38.0534C104.754 38.0059 104.825 37.9346 104.825 37.8396V35.1319C104.825 35.0369 104.778 34.9656 104.66 34.9181C104.565 34.8706 104.447 34.8468 104.305 34.8231C104.258 34.8231 104.234 34.7756 104.234 34.7281C104.234 34.7044 104.234 34.6806 104.234 34.6806C104.234 34.6568 104.234 34.6331 104.258 34.6094C104.4 34.6331 104.542 34.6331 104.707 34.6331C104.872 34.6331 105.014 34.6331 105.203 34.6331C105.369 34.6331 105.51 34.6331 105.675 34.6331C105.817 34.6331 105.983 34.6094 106.124 34.6094C106.124 34.6331 106.124 34.6568 106.148 34.6806C106.148 34.7044 106.148 34.7281 106.148 34.7281C106.148 34.7756 106.124 34.8231 106.077 34.8231C105.959 34.8468 105.841 34.8706 105.747 34.9181C105.652 34.9656 105.605 35.0369 105.605 35.1082V36.272H107.376V35.1082C107.376 35.0132 107.329 34.9419 107.235 34.9181C107.14 34.8706 107.022 34.8468 106.904 34.8231C106.857 34.8231 106.833 34.7756 106.833 34.7281C106.833 34.7044 106.833 34.6806 106.833 34.6806C106.833 34.6568 106.833 34.6331 106.857 34.6094C106.998 34.6331 107.164 34.6331 107.329 34.6331C107.494 34.6331 107.636 34.6331 107.802 34.6331C107.967 34.6331 108.132 34.6331 108.274 34.6331C108.416 34.6331 108.581 34.6094 108.723 34.6094C108.723 34.6331 108.723 34.6568 108.746 34.6806C108.746 34.7044 108.746 34.7281 108.746 34.7281C108.746 34.7756 108.723 34.8231 108.676 34.8231C108.558 34.8468 108.439 34.8706 108.321 34.9181C108.227 34.9656 108.156 35.0369 108.156 35.1082V37.8634Z" fill="black"/>
<path d="M113.188 35.7735L111.51 37.7449V37.8399C111.51 38.0062 111.628 38.1012 111.888 38.1487C111.936 38.1487 111.959 38.1963 111.959 38.2437C111.959 38.2675 111.959 38.2913 111.959 38.315C111.959 38.3387 111.959 38.3625 111.936 38.3863C111.77 38.3863 111.628 38.3625 111.51 38.3625C111.369 38.3625 111.251 38.3387 111.132 38.3387C110.967 38.3387 110.802 38.3387 110.66 38.3625C110.518 38.3625 110.353 38.3863 110.212 38.3863C110.212 38.3625 110.212 38.3387 110.188 38.315C110.188 38.2913 110.188 38.2675 110.188 38.2437C110.188 38.1963 110.212 38.1487 110.259 38.1487C110.377 38.125 110.495 38.1013 110.613 38.0537C110.708 38.0062 110.778 37.935 110.778 37.8399V35.1322C110.778 35.0372 110.731 34.9659 110.613 34.9185C110.518 34.8709 110.4 34.8472 110.259 34.8235C110.212 34.8235 110.188 34.7759 110.188 34.7284C110.188 34.7047 110.188 34.6809 110.188 34.6809C110.188 34.6572 110.187 34.6334 110.212 34.6097C110.353 34.6334 110.518 34.6334 110.66 34.6334C110.802 34.6334 110.967 34.6334 111.132 34.6334C111.298 34.6334 111.44 34.6334 111.605 34.6334C111.747 34.6334 111.888 34.6097 112.054 34.6097C112.054 34.6334 112.054 34.6572 112.078 34.6809C112.078 34.7047 112.078 34.7284 112.078 34.7284C112.078 34.7759 112.054 34.8235 112.006 34.8235C111.888 34.8472 111.77 34.8709 111.676 34.9185C111.582 34.9659 111.51 35.0372 111.51 35.1085V37.2224L113.188 35.251V35.1085C113.188 34.9422 113.07 34.8472 112.81 34.7997C112.763 34.7997 112.739 34.7522 112.739 34.7047C112.739 34.6809 112.739 34.6572 112.739 34.6572C112.739 34.6334 112.739 34.6097 112.763 34.5859C112.905 34.6097 113.07 34.6097 113.211 34.6097C113.353 34.6097 113.471 34.6097 113.589 34.6097C113.755 34.6097 113.92 34.6097 114.062 34.6097C114.203 34.6097 114.369 34.5859 114.511 34.5859C114.511 34.6097 114.511 34.6334 114.534 34.6572C114.534 34.6809 114.534 34.7047 114.534 34.7047C114.534 34.7522 114.511 34.7997 114.464 34.7997C114.346 34.8235 114.228 34.8472 114.109 34.8947C114.015 34.9422 113.943 35.0135 113.943 35.0847V37.7925C113.943 37.8875 113.991 37.9587 114.109 37.9825C114.203 38.03 114.321 38.0537 114.464 38.0775C114.511 38.0775 114.534 38.125 114.534 38.1725C114.534 38.1963 114.534 38.22 114.534 38.2437C114.534 38.2675 114.534 38.2913 114.511 38.315C114.369 38.315 114.203 38.2913 114.062 38.2913C113.92 38.2913 113.755 38.2675 113.589 38.2675C113.424 38.2675 113.282 38.2675 113.117 38.2913C112.951 38.2913 112.81 38.315 112.668 38.315C112.668 38.2913 112.668 38.2675 112.645 38.2437C112.645 38.22 112.645 38.1963 112.645 38.1725C112.645 38.125 112.668 38.0775 112.715 38.0775C112.833 38.0537 112.951 38.03 113.046 37.9825C113.141 37.9349 113.188 37.8637 113.188 37.7925V35.7735Z" fill="black"/>
<path d="M119.709 38.1494C119.756 38.1494 119.78 38.1969 119.78 38.2444C119.78 38.2681 119.78 38.2919 119.78 38.3157C119.78 38.3394 119.78 38.3631 119.756 38.3869C119.709 38.3869 119.662 38.3869 119.591 38.3631C119.52 38.3631 119.473 38.3631 119.402 38.3631C119.331 38.3631 119.26 38.3631 119.213 38.3631C119.142 38.3631 119.095 38.3631 119.048 38.3631C118.882 38.3631 118.764 38.3394 118.717 38.2919C118.646 38.2444 118.599 38.1494 118.575 38.0306C118.504 37.7456 118.434 37.5081 118.363 37.3418C118.291 37.1518 118.221 37.033 118.126 36.938C118.008 36.843 117.89 36.7718 117.772 36.748C117.654 36.7243 117.512 36.7005 117.347 36.7005H117.276V37.8643C117.276 37.9594 117.323 38.0306 117.441 38.0544C117.536 38.1019 117.654 38.1257 117.772 38.1494C117.819 38.1494 117.843 38.1969 117.843 38.2444C117.843 38.2681 117.843 38.2919 117.843 38.3157C117.843 38.3394 117.843 38.3631 117.819 38.3869C117.677 38.3869 117.512 38.3631 117.371 38.3631C117.229 38.3631 117.063 38.3394 116.898 38.3394C116.733 38.3394 116.567 38.3394 116.425 38.3631C116.284 38.3631 116.118 38.3869 115.976 38.3869C115.976 38.3631 115.976 38.3394 115.953 38.3157C115.953 38.2919 115.953 38.2681 115.953 38.2444C115.953 38.1969 115.976 38.1494 116.024 38.1494C116.142 38.1257 116.26 38.1019 116.379 38.0544C116.473 38.0069 116.544 37.9356 116.544 37.8406V35.1329C116.544 35.0379 116.497 34.9666 116.379 34.9191C116.284 34.8716 116.166 34.8479 116.024 34.8241C115.976 34.8241 115.953 34.7766 115.953 34.7291C115.953 34.7053 115.953 34.6816 115.953 34.6816C115.953 34.6578 115.953 34.6341 115.976 34.6103C116.118 34.6341 116.284 34.6341 116.425 34.6341C116.567 34.6341 116.733 34.6341 116.898 34.6341C117.063 34.6341 117.205 34.6341 117.371 34.6341C117.512 34.6341 117.654 34.6103 117.819 34.6103C117.819 34.6341 117.819 34.6578 117.843 34.6816C117.843 34.7053 117.843 34.7291 117.843 34.7291C117.843 34.7766 117.819 34.8241 117.772 34.8241C117.654 34.8479 117.536 34.8716 117.441 34.9191C117.347 34.9666 117.276 35.0379 117.276 35.1091V36.3442H117.394C117.63 36.3442 117.795 36.2967 117.937 36.2017C118.079 36.1067 118.173 36.0117 118.268 35.8692C118.363 35.7266 118.409 35.5842 118.481 35.4416C118.528 35.2754 118.599 35.1329 118.67 35.0141C118.74 34.8716 118.835 34.7766 118.93 34.6816C119.024 34.5865 119.19 34.5391 119.378 34.5391C119.426 34.5391 119.473 34.5391 119.544 34.5628C119.591 34.5628 119.638 34.5866 119.662 34.6103C119.709 34.6341 119.733 34.6816 119.733 34.7529C119.733 34.8241 119.733 34.8953 119.709 34.9666C119.686 35.0379 119.662 35.1091 119.638 35.1804C119.614 35.2517 119.591 35.2991 119.544 35.3466C119.496 35.3941 119.473 35.4179 119.426 35.4179C119.402 35.4179 119.355 35.4179 119.355 35.4179C119.331 35.4179 119.308 35.4179 119.26 35.4179C119.142 35.4179 119.048 35.4654 118.977 35.5366C118.906 35.6079 118.835 35.7029 118.788 35.8217C118.717 35.9404 118.646 36.0592 118.552 36.178C118.457 36.2967 118.339 36.4155 118.173 36.5105V36.5342C118.291 36.558 118.409 36.6055 118.528 36.653C118.646 36.7005 118.74 36.7718 118.788 36.8193C118.835 36.8667 118.906 36.938 118.953 36.9855C119 37.0568 119.048 37.128 119.095 37.1993C119.142 37.2943 119.19 37.3893 119.236 37.4843C119.284 37.6031 119.331 37.7219 119.378 37.8881C119.426 38.0069 119.473 38.0781 119.544 38.1019C119.568 38.1257 119.638 38.1494 119.709 38.1494Z" fill="black"/>
<path d="M122.495 36.297H123.298C123.322 36.0595 123.369 35.822 123.463 35.6082C123.558 35.3944 123.7 35.2044 123.865 35.0381C124.031 34.8719 124.219 34.7532 124.432 34.6581C124.645 34.5631 124.881 34.5156 125.141 34.5156C125.424 34.5156 125.684 34.5631 125.92 34.6581C126.156 34.7532 126.346 34.8956 126.511 35.0619C126.677 35.2281 126.795 35.4419 126.889 35.6795C126.983 35.917 127.007 36.202 127.007 36.4871C127.007 36.772 126.96 37.0096 126.865 37.2471C126.771 37.4846 126.653 37.6984 126.487 37.8646C126.322 38.0309 126.133 38.1734 125.896 38.2922C125.66 38.4109 125.424 38.4585 125.141 38.4585C124.858 38.4585 124.621 38.4109 124.385 38.3159C124.172 38.221 123.983 38.1021 123.818 37.9359C123.653 37.7696 123.535 37.5796 123.44 37.3658C123.345 37.1521 123.298 36.8908 123.298 36.6058H122.495V37.8409C122.495 37.9359 122.543 38.0072 122.637 38.0309C122.731 38.0784 122.849 38.1021 122.967 38.126C123.015 38.126 123.039 38.1734 123.039 38.2209C123.039 38.2447 123.039 38.2684 123.039 38.2922C123.039 38.3159 123.039 38.3397 123.015 38.3635C122.873 38.3635 122.708 38.3397 122.566 38.3397C122.424 38.3397 122.258 38.3159 122.093 38.3159C121.928 38.3159 121.762 38.3159 121.597 38.3397C121.456 38.3397 121.29 38.3635 121.148 38.3635C121.148 38.3397 121.148 38.3159 121.125 38.2922C121.125 38.2684 121.125 38.2447 121.125 38.2209C121.125 38.1734 121.148 38.126 121.196 38.126C121.314 38.1021 121.432 38.0784 121.55 38.0309C121.644 37.9834 121.716 37.9122 121.716 37.8172V35.1094C121.716 35.0144 121.668 34.9431 121.55 34.8956C121.456 34.8482 121.338 34.8243 121.196 34.8006C121.148 34.8006 121.125 34.7532 121.125 34.7056C121.125 34.6819 121.125 34.6581 121.125 34.6581C121.125 34.6344 121.125 34.6106 121.148 34.5869C121.29 34.6106 121.432 34.6106 121.597 34.6106C121.762 34.6106 121.904 34.6106 122.093 34.6106C122.258 34.6106 122.401 34.6106 122.566 34.6106C122.708 34.6106 122.873 34.5869 123.015 34.5869C123.015 34.6106 123.015 34.6344 123.039 34.6581C123.039 34.6819 123.039 34.7056 123.039 34.7056C123.039 34.7532 123.015 34.8006 122.967 34.8006C122.849 34.8243 122.731 34.8482 122.637 34.8956C122.543 34.9431 122.495 35.0144 122.495 35.0857V36.297ZM124.101 36.202C124.101 36.4158 124.125 36.6533 124.172 36.867C124.219 37.1046 124.29 37.2946 124.385 37.4846C124.48 37.6746 124.598 37.8172 124.739 37.9359C124.881 38.0547 125.046 38.126 125.259 38.126C125.566 38.126 125.778 38.0072 125.968 37.7696C126.133 37.5321 126.227 37.2234 126.227 36.867C126.227 36.6533 126.204 36.4158 126.156 36.1783C126.109 35.9407 126.038 35.7269 125.944 35.5132C125.85 35.3231 125.731 35.1569 125.59 35.0144C125.448 34.8956 125.259 34.8243 125.046 34.8243C124.763 34.8243 124.527 34.9194 124.385 35.1331C124.243 35.3469 124.101 35.7269 124.101 36.202Z" fill="black"/>
<path d="M129.11 35.4185C129.11 35.2522 129.086 35.1334 129.016 35.0622C128.968 34.991 128.827 34.9434 128.638 34.9197C128.567 34.9197 128.52 34.8722 128.52 34.8009C128.52 34.7772 128.52 34.7297 128.544 34.6822C128.614 34.6822 128.732 34.6822 128.85 34.6585C128.992 34.6585 129.086 34.6346 129.181 34.6109C129.299 34.5872 129.417 34.5634 129.536 34.5397C129.63 34.5159 129.701 34.4922 129.748 34.4922C129.819 34.4922 129.866 34.5397 129.866 34.6346C129.866 34.7059 129.866 34.8009 129.842 34.896C129.842 34.991 129.819 35.1334 129.819 35.3235C129.984 35.086 130.197 34.896 130.409 34.7534C130.622 34.5872 130.905 34.5159 131.213 34.5159C131.401 34.5159 131.614 34.5635 131.779 34.6346C131.969 34.7059 132.134 34.8484 132.275 34.991C132.418 35.1572 132.536 35.3472 132.606 35.5848C132.701 35.8223 132.724 36.0836 132.724 36.3923C132.724 36.7249 132.654 37.0099 132.536 37.2711C132.418 37.5325 132.252 37.7462 132.087 37.9124C131.897 38.0787 131.709 38.2212 131.496 38.3162C131.283 38.4112 131.095 38.4588 130.905 38.4588C130.717 38.4588 130.528 38.435 130.363 38.4112C130.173 38.3638 130.008 38.3162 129.795 38.2212V39.8126C129.795 39.9551 129.866 40.0739 129.984 40.1214C130.102 40.1689 130.338 40.2164 130.646 40.2402C130.717 40.2402 130.74 40.2877 130.74 40.3589C130.74 40.3827 130.74 40.4065 130.74 40.4302C130.74 40.4539 130.74 40.4777 130.717 40.5015C130.646 40.5015 130.575 40.4777 130.481 40.4777C130.386 40.4777 130.291 40.4777 130.173 40.4539C130.055 40.4539 129.96 40.4539 129.842 40.4539C129.724 40.4539 129.63 40.4539 129.512 40.4539C129.37 40.4539 129.205 40.4539 129.04 40.4777C128.874 40.4777 128.709 40.5015 128.567 40.5015C128.567 40.4777 128.567 40.4539 128.544 40.4302C128.544 40.4065 128.544 40.3827 128.544 40.3589C128.544 40.3114 128.567 40.2639 128.614 40.2639C128.732 40.2402 128.85 40.1927 128.921 40.1689C129.016 40.1214 129.04 40.0501 129.04 39.9551V35.4185H129.11ZM129.842 37.6512C129.984 37.7937 130.15 37.9362 130.315 38.0074C130.481 38.1025 130.693 38.15 130.905 38.15C131.071 38.15 131.213 38.1025 131.355 38.0312C131.473 37.96 131.591 37.8412 131.685 37.7225C131.779 37.5799 131.827 37.4375 131.874 37.2474C131.921 37.0574 131.945 36.8674 131.945 36.6536C131.945 36.4398 131.921 36.2261 131.874 36.0123C131.827 35.7986 131.756 35.6323 131.661 35.4898C131.567 35.3472 131.449 35.2047 131.307 35.1334C131.165 35.0384 131.024 34.991 130.859 34.991C130.74 34.991 130.622 35.0147 130.504 35.086C130.386 35.1572 130.291 35.2522 130.173 35.3472C130.078 35.4422 130.008 35.5848 129.937 35.7035C129.866 35.8223 129.842 35.9648 129.842 36.1073V37.6512Z" fill="black"/>
<path d="M143.093 38.2918C143.093 38.2918 143.093 38.3155 143.093 38.363C143.093 38.3868 143.093 38.4343 143.069 38.4581C142.903 38.4343 142.667 38.4343 142.384 38.4343C142.289 38.4343 142.219 38.4343 142.124 38.4105C142.029 38.3868 141.911 38.363 141.793 38.3155C141.675 38.268 141.51 38.173 141.345 38.0543C141.156 37.9355 140.943 37.7692 140.706 37.5555C140.447 37.8405 140.187 38.0543 139.88 38.2443C139.573 38.4105 139.242 38.5055 138.864 38.5055C138.628 38.5055 138.415 38.4818 138.226 38.4105C138.037 38.363 137.872 38.268 137.73 38.1493C137.589 38.0305 137.471 37.888 137.399 37.6979C137.329 37.508 137.281 37.2942 137.281 37.0566C137.281 36.7241 137.376 36.4154 137.589 36.1303C137.801 35.8453 138.085 35.6078 138.463 35.3703C138.321 35.2277 138.179 35.0852 138.085 34.9427C137.99 34.8239 137.919 34.6815 137.848 34.5627C137.801 34.444 137.754 34.3252 137.73 34.2064C137.707 34.0876 137.707 33.9689 137.707 33.8501C137.707 33.5176 137.825 33.2563 138.061 33.0663C138.297 32.8763 138.604 32.7812 138.982 32.7812C139.171 32.7812 139.337 32.8051 139.478 32.8763C139.62 32.9475 139.762 33.0188 139.88 33.1138C139.998 33.2088 140.069 33.3513 140.14 33.4938C140.21 33.6364 140.234 33.8026 140.234 33.9689C140.234 34.1826 140.164 34.3727 140.045 34.5864C139.927 34.8002 139.691 34.9902 139.384 35.204C139.691 35.5365 139.974 35.8215 140.234 36.0829C140.494 36.3441 140.73 36.5578 140.919 36.7479C141.037 36.6054 141.132 36.4391 141.227 36.2728C141.321 36.1066 141.392 35.9641 141.463 35.8215C141.533 35.6791 141.581 35.5365 141.628 35.4178C141.675 35.299 141.675 35.204 141.675 35.1327C141.675 35.0615 141.652 35.014 141.605 34.9902C141.557 34.9665 141.463 34.9189 141.297 34.8952C141.227 34.8952 141.179 34.8477 141.179 34.7765C141.179 34.7527 141.179 34.7289 141.179 34.7052C141.179 34.6815 141.179 34.6339 141.203 34.6339C141.321 34.6577 141.439 34.6577 141.581 34.6577C141.723 34.6577 141.864 34.6577 142.006 34.6577C142.266 34.6577 142.502 34.6577 142.691 34.6339C142.691 34.6577 142.691 34.6815 142.715 34.7289C142.715 34.7527 142.715 34.7765 142.715 34.8002C142.715 34.8715 142.667 34.8952 142.597 34.9189C142.525 34.9427 142.455 34.9427 142.407 34.9665C142.36 34.9902 142.313 34.9902 142.266 35.0377C142.219 35.0615 142.195 35.109 142.148 35.1565C142.101 35.204 142.077 35.2753 142.029 35.3703C141.911 35.6553 141.77 35.9166 141.605 36.2016C141.463 36.4866 141.297 36.7479 141.132 37.0092C141.345 37.223 141.533 37.3892 141.699 37.5317C141.864 37.6742 142.006 37.7929 142.124 37.8642C142.242 37.9592 142.337 38.0305 142.431 38.078C142.502 38.1255 142.597 38.1493 142.644 38.173C142.667 38.173 142.691 38.173 142.738 38.1967C142.785 38.1967 142.833 38.1967 142.88 38.2205C142.928 38.2443 142.975 38.2443 143.022 38.268C143.069 38.2205 143.093 38.2443 143.093 38.2918ZM138.651 35.5603C138.439 35.7265 138.297 35.9403 138.179 36.1778C138.061 36.4154 138.013 36.6529 138.013 36.8904C138.013 37.1042 138.061 37.2704 138.132 37.413C138.203 37.5555 138.297 37.6505 138.415 37.7455C138.533 37.8167 138.651 37.888 138.769 37.9117C138.887 37.9355 139.006 37.9593 139.1 37.9593C139.336 37.9593 139.573 37.9117 139.786 37.8167C139.998 37.7218 140.234 37.5555 140.47 37.318C140.234 37.1042 139.974 36.8666 139.691 36.5816C139.336 36.2966 139.006 35.9641 138.651 35.5603ZM139.148 34.9902C139.313 34.8477 139.431 34.6815 139.502 34.4914C139.573 34.3252 139.596 34.1589 139.596 33.9926C139.596 33.7076 139.549 33.4938 139.431 33.3276C139.313 33.185 139.124 33.09 138.887 33.09C138.746 33.09 138.604 33.1376 138.509 33.2326C138.415 33.3276 138.368 33.4701 138.368 33.6364C138.368 33.8026 138.415 33.9926 138.533 34.2064C138.651 34.444 138.84 34.6815 139.148 34.9902Z" fill="black"/>
<path d="M148.362 34.9656V37.8634C148.362 37.9584 148.41 38.0296 148.504 38.0534C148.599 38.1009 148.717 38.1246 148.835 38.1484C148.883 38.1484 148.906 38.1959 148.906 38.2434C148.906 38.2672 148.906 38.2909 148.906 38.3147C148.906 38.3384 148.906 38.3622 148.883 38.386C148.74 38.386 148.575 38.3622 148.434 38.3622C148.292 38.3622 148.126 38.3384 147.961 38.3384C147.796 38.3384 147.63 38.3384 147.465 38.3622C147.323 38.3622 147.158 38.386 147.016 38.386C147.016 38.3622 147.016 38.3384 146.992 38.3147C146.992 38.2909 146.992 38.2672 146.992 38.2434C146.992 38.1959 147.016 38.1484 147.064 38.1484C147.182 38.1246 147.3 38.1009 147.418 38.0534C147.512 38.0059 147.583 37.9346 147.583 37.8396V35.1319C147.583 35.0369 147.536 34.9656 147.418 34.9181C147.323 34.8706 147.205 34.8468 147.064 34.8231C147.016 34.8231 146.992 34.7756 146.992 34.7281C146.992 34.7044 146.992 34.6806 146.992 34.6806C146.992 34.6568 146.992 34.6331 147.016 34.6094C147.158 34.6331 147.3 34.6331 147.465 34.6331C147.63 34.6331 147.772 34.6331 147.961 34.6331H150.418C150.583 34.6331 150.749 34.6331 150.89 34.6331C151.032 34.6331 151.198 34.6331 151.339 34.6094C151.339 34.6331 151.339 34.6568 151.363 34.6806C151.363 34.7044 151.363 34.7281 151.363 34.7281C151.363 34.7756 151.339 34.8231 151.292 34.8231C151.174 34.8468 151.056 34.8706 150.938 34.9181C150.843 34.9656 150.772 35.0369 150.772 35.1082V37.8159C150.772 37.9109 150.819 37.9822 150.938 38.0059C151.032 38.0534 151.15 38.0772 151.292 38.1009C151.339 38.1009 151.363 38.1484 151.363 38.1959C151.363 38.2197 151.363 38.2434 151.363 38.2672C151.363 38.2909 151.363 38.3147 151.339 38.3384C151.198 38.3384 151.032 38.3147 150.89 38.3147C150.749 38.3147 150.583 38.2909 150.418 38.2909C150.253 38.2909 150.111 38.2909 149.945 38.3147C149.78 38.3147 149.639 38.3384 149.497 38.3384C149.497 38.3147 149.497 38.2909 149.473 38.2672C149.473 38.2434 149.473 38.2197 149.473 38.1959C149.473 38.1484 149.497 38.1009 149.544 38.1009C149.662 38.0772 149.78 38.0534 149.875 38.0059C149.969 37.9584 150.016 37.8872 150.016 37.8159V34.9181H148.362V34.9656Z" fill="black"/>
<path d="M156.087 37.5325C156.134 37.4849 156.181 37.4612 156.228 37.4612C156.276 37.4612 156.346 37.5087 156.394 37.6037C156.323 37.6987 156.228 37.8175 156.134 37.9124C156.04 38.0074 155.922 38.1025 155.78 38.1738C155.638 38.245 155.496 38.3162 155.307 38.3638C155.142 38.4112 154.93 38.435 154.693 38.435C154.457 38.435 154.244 38.3875 154.031 38.3162C153.819 38.245 153.63 38.1262 153.465 37.96C153.299 37.7937 153.181 37.6037 153.087 37.3662C152.992 37.1287 152.945 36.8436 152.945 36.5349C152.945 36.2261 152.992 35.9648 153.111 35.7035C153.229 35.4422 153.37 35.2285 153.559 35.0622C153.748 34.8722 153.937 34.7534 154.149 34.6346C154.362 34.5159 154.575 34.4922 154.788 34.4922C155.331 34.4922 155.732 34.6584 155.968 34.9672C156.205 35.276 156.346 35.7035 156.346 36.2023C156.346 36.2498 156.323 36.2498 156.299 36.2498L153.748 36.3686C153.748 36.6061 153.772 36.8199 153.843 37.0099C153.913 37.1999 154.008 37.3662 154.126 37.5087C154.244 37.6512 154.386 37.77 154.552 37.8412C154.717 37.9124 154.906 37.96 155.118 37.96C155.307 37.96 155.496 37.9124 155.662 37.8175C155.827 37.7937 155.968 37.6749 156.087 37.5325ZM154.646 34.8484C154.339 34.8484 154.126 34.9672 153.961 35.2047C153.795 35.4422 153.725 35.7273 153.725 36.1073L155.378 36.036C155.472 36.036 155.52 35.9886 155.52 35.9173C155.52 35.7986 155.496 35.6798 155.472 35.561C155.426 35.4422 155.378 35.3235 155.307 35.2285C155.236 35.1335 155.142 35.0384 155.048 34.9672C154.93 34.8722 154.811 34.8484 154.646 34.8484Z" fill="black"/>
<path d="M157.859 38.1009C158.26 38.0059 158.543 37.6971 158.685 37.1983C158.851 36.6995 158.921 36.0107 158.921 35.1319C158.921 35.0369 158.874 34.9656 158.803 34.9181C158.733 34.8706 158.615 34.8468 158.496 34.8231C158.449 34.8231 158.425 34.7756 158.425 34.7281C158.425 34.7044 158.425 34.6806 158.425 34.6806C158.425 34.6568 158.425 34.6331 158.449 34.6094C158.591 34.6331 158.733 34.6331 158.851 34.6331C158.969 34.6331 159.111 34.6331 159.276 34.6331H160.835C161 34.6331 161.166 34.6331 161.307 34.6331C161.449 34.6331 161.614 34.6331 161.757 34.6094C161.757 34.6331 161.757 34.6568 161.78 34.6806C161.78 34.7044 161.78 34.7281 161.78 34.7281C161.78 34.7756 161.757 34.8231 161.709 34.8231C161.591 34.8468 161.472 34.8706 161.354 34.9181C161.26 34.9656 161.189 35.0369 161.189 35.1082V37.6971C161.189 37.8159 161.213 37.9109 161.284 37.9584C161.354 38.0059 161.496 38.0534 161.709 38.1009C161.757 38.1009 161.803 38.1484 161.803 38.2434C161.803 38.2672 161.803 38.2909 161.803 38.3147C161.803 38.3384 161.803 38.3622 161.78 38.386C161.757 38.576 161.733 38.8135 161.733 39.0985C161.733 39.3835 161.733 39.6448 161.733 39.9061C161.733 39.9536 161.709 40.0011 161.638 40.0248C161.614 40.0248 161.567 40.0486 161.52 40.0486C161.472 40.0486 161.426 40.0486 161.402 40.0486C161.378 39.8111 161.331 39.5973 161.284 39.3835C161.236 39.1697 161.166 39.0035 161.095 38.8372C161.024 38.671 160.93 38.5522 160.811 38.4572C160.693 38.3622 160.552 38.3147 160.386 38.3147H159.205C159.016 38.3147 158.851 38.3622 158.733 38.4572C158.615 38.5522 158.52 38.671 158.425 38.8372C158.331 39.0035 158.283 39.1697 158.237 39.3835C158.189 39.5973 158.142 39.8111 158.095 40.0486C158.071 40.0486 158.024 40.0486 157.977 40.0486C157.929 40.0486 157.882 40.0248 157.859 40.0248C157.787 39.9773 157.741 39.9536 157.764 39.8823C157.787 39.6211 157.811 39.3597 157.811 39.0747C157.811 38.7897 157.811 38.5522 157.787 38.3622C157.787 38.3384 157.787 38.3147 157.787 38.2909C157.787 38.2672 157.787 38.2434 157.787 38.2197C157.764 38.1722 157.787 38.1246 157.859 38.1009ZM158.449 38.0296H160.434V34.9656H159.276C159.276 35.4882 159.252 35.9395 159.205 36.2957C159.157 36.652 159.111 36.9608 159.039 37.1983C158.969 37.4358 158.874 37.6496 158.78 37.8159C158.685 37.9822 158.567 38.1246 158.425 38.2434L158.449 38.0296Z" fill="black"/>
<path d="M166.223 35.7735L164.546 37.7449V37.8399C164.546 38.0062 164.664 38.1012 164.924 38.1487C164.971 38.1487 164.994 38.1963 164.994 38.2437C164.994 38.2675 164.994 38.2913 164.994 38.315C164.994 38.3387 164.994 38.3625 164.971 38.3863C164.806 38.3863 164.664 38.3625 164.546 38.3625C164.428 38.3625 164.285 38.3387 164.167 38.3387C164.002 38.3387 163.837 38.3387 163.695 38.3625C163.553 38.3863 163.388 38.3863 163.247 38.3863C163.247 38.3625 163.247 38.3387 163.223 38.315C163.223 38.2913 163.223 38.2675 163.223 38.2437C163.223 38.1963 163.247 38.1487 163.293 38.1487C163.412 38.125 163.53 38.1013 163.648 38.0537C163.743 38.0062 163.813 37.935 163.813 37.8399V35.1322C163.813 35.0372 163.766 34.9659 163.648 34.9185C163.553 34.8709 163.435 34.8472 163.293 34.8235C163.247 34.8235 163.223 34.7759 163.223 34.7284C163.223 34.7047 163.223 34.6809 163.223 34.6809C163.223 34.6572 163.223 34.6334 163.247 34.6097C163.388 34.6334 163.553 34.6334 163.695 34.6334C163.837 34.6334 164.002 34.6334 164.167 34.6334C164.333 34.6334 164.475 34.6334 164.64 34.6334C164.782 34.6334 164.924 34.6097 165.089 34.6097C165.089 34.6334 165.089 34.6572 165.112 34.6809C165.112 34.7047 165.112 34.7284 165.112 34.7284C165.112 34.7759 165.089 34.8235 165.042 34.8235C164.924 34.8472 164.806 34.8709 164.711 34.9185C164.616 34.9659 164.546 35.0372 164.546 35.1085V37.2224L166.223 35.251V35.1085C166.223 34.9422 166.104 34.8472 165.845 34.7997C165.798 34.7997 165.774 34.7522 165.774 34.7047C165.774 34.6809 165.774 34.6572 165.774 34.6572C165.774 34.6334 165.774 34.6097 165.798 34.5859C165.939 34.6097 166.104 34.6097 166.246 34.6097C166.389 34.6097 166.507 34.6097 166.625 34.6097C166.79 34.6097 166.955 34.6097 167.097 34.6097C167.239 34.6097 167.404 34.5859 167.546 34.5859C167.546 34.6097 167.546 34.6334 167.569 34.6572C167.569 34.6809 167.569 34.7047 167.569 34.7047C167.569 34.7522 167.546 34.7997 167.499 34.7997C167.381 34.8235 167.262 34.8472 167.144 34.8947C167.05 34.9422 166.979 35.0135 166.979 35.0847V37.7925C166.979 37.8875 167.026 37.9587 167.144 37.9825C167.239 38.03 167.357 38.0537 167.499 38.0775C167.546 38.0775 167.569 38.125 167.569 38.1725C167.569 38.1963 167.569 38.22 167.569 38.2437C167.569 38.2675 167.569 38.2913 167.546 38.315C167.404 38.315 167.239 38.2913 167.097 38.2913C166.955 38.2913 166.79 38.2675 166.625 38.2675C166.459 38.2675 166.317 38.2675 166.152 38.2913C165.986 38.2913 165.845 38.315 165.703 38.315C165.703 38.2913 165.703 38.2675 165.68 38.2437C165.68 38.22 165.68 38.1963 165.68 38.1725C165.68 38.125 165.703 38.0775 165.75 38.0775C165.868 38.0537 165.986 38.03 166.081 37.9825C166.176 37.9349 166.223 37.8637 166.223 37.7925V35.7735Z" fill="black"/>
<path d="M172.741 38.1494C172.788 38.1494 172.812 38.1969 172.812 38.2444C172.812 38.2681 172.812 38.2919 172.812 38.3157C172.812 38.3394 172.812 38.3631 172.788 38.3869C172.741 38.3869 172.694 38.3869 172.623 38.3631C172.552 38.3631 172.505 38.3631 172.433 38.3631C172.363 38.3631 172.292 38.3631 172.245 38.3631C172.174 38.3631 172.127 38.3631 172.079 38.3631C171.914 38.3631 171.796 38.3394 171.749 38.2919C171.678 38.2444 171.631 38.1494 171.607 38.0306C171.536 37.7456 171.465 37.5081 171.395 37.3418C171.323 37.1518 171.253 37.033 171.158 36.938C171.04 36.843 170.922 36.7718 170.804 36.748C170.686 36.7243 170.544 36.7005 170.379 36.7005H170.331V37.8643C170.331 37.9594 170.379 38.0306 170.473 38.0544C170.568 38.1019 170.686 38.1257 170.804 38.1494C170.851 38.1494 170.875 38.1969 170.875 38.2444C170.875 38.2681 170.875 38.2919 170.875 38.3157C170.875 38.3394 170.875 38.3631 170.851 38.3869C170.709 38.3869 170.544 38.3631 170.403 38.3631C170.261 38.3631 170.095 38.3394 169.93 38.3394C169.764 38.3394 169.599 38.3394 169.434 38.3631C169.292 38.3631 169.126 38.3869 168.985 38.3869C168.985 38.3631 168.985 38.3394 168.961 38.3157C168.961 38.2919 168.961 38.2681 168.961 38.2444C168.961 38.1969 168.985 38.1494 169.032 38.1494C169.15 38.1257 169.268 38.1019 169.386 38.0544C169.481 38.0069 169.552 37.9356 169.552 37.8406V35.1329C169.552 35.0379 169.504 34.9666 169.386 34.9191C169.292 34.8716 169.174 34.8479 169.032 34.8241C168.985 34.8241 168.961 34.7766 168.961 34.7291C168.961 34.7053 168.961 34.6816 168.961 34.6816C168.961 34.6578 168.961 34.6341 168.985 34.6103C169.126 34.6341 169.268 34.6341 169.434 34.6341C169.599 34.6341 169.741 34.6341 169.93 34.6341C170.095 34.6341 170.237 34.6341 170.403 34.6341C170.544 34.6341 170.709 34.6103 170.851 34.6103C170.851 34.6341 170.851 34.6578 170.875 34.6816C170.875 34.7053 170.875 34.7291 170.875 34.7291C170.875 34.7766 170.851 34.8241 170.804 34.8241C170.686 34.8479 170.568 34.8716 170.473 34.9191C170.379 34.9666 170.331 35.0379 170.331 35.1091V36.3442H170.449C170.686 36.3442 170.851 36.2967 170.993 36.2017C171.135 36.1067 171.229 36.0117 171.323 35.8692C171.418 35.7266 171.465 35.5842 171.536 35.4416C171.583 35.2754 171.654 35.1329 171.725 35.0141C171.796 34.8716 171.891 34.7766 171.985 34.6816C172.079 34.5865 172.245 34.5391 172.433 34.5391C172.481 34.5391 172.528 34.5391 172.599 34.5628C172.646 34.5628 172.694 34.5866 172.718 34.6103C172.764 34.6341 172.788 34.6816 172.788 34.7529C172.788 34.8241 172.788 34.8953 172.764 34.9666C172.741 35.0379 172.718 35.1091 172.694 35.1804C172.67 35.2517 172.646 35.2991 172.599 35.3466C172.552 35.3941 172.528 35.4179 172.481 35.4179C172.433 35.4179 172.41 35.4179 172.41 35.4179C172.387 35.4179 172.363 35.4179 172.315 35.4179C172.197 35.4179 172.103 35.4654 172.032 35.5366C171.961 35.6079 171.891 35.7029 171.843 35.8217C171.772 35.9404 171.701 36.0592 171.631 36.178C171.536 36.2967 171.418 36.4155 171.253 36.5105V36.5342C171.371 36.558 171.489 36.6055 171.607 36.653C171.725 36.7005 171.819 36.7718 171.867 36.8193C171.914 36.8667 171.985 36.938 172.032 36.9855C172.079 37.0568 172.127 37.128 172.174 37.1993C172.222 37.2943 172.268 37.3893 172.315 37.4843C172.363 37.6031 172.41 37.7219 172.458 37.8881C172.505 38.0069 172.552 38.0781 172.623 38.1019C172.599 38.1257 172.67 38.1494 172.741 38.1494Z" fill="black"/>
<path d="M175.53 36.297H176.333C176.357 36.0595 176.403 35.822 176.498 35.6082C176.593 35.3944 176.734 35.2044 176.899 35.0381C177.065 34.8719 177.254 34.7532 177.467 34.6581C177.68 34.5631 177.916 34.5156 178.176 34.5156C178.459 34.5156 178.719 34.5631 178.955 34.6581C179.191 34.7532 179.381 34.8956 179.546 35.0619C179.711 35.2281 179.829 35.4419 179.923 35.6795C180.018 35.917 180.042 36.202 180.042 36.4871C180.042 36.772 179.995 37.0096 179.9 37.2471C179.805 37.4846 179.687 37.6984 179.522 37.8646C179.357 38.0309 179.168 38.1734 178.931 38.2922C178.695 38.3872 178.459 38.4585 178.176 38.4585C177.892 38.4585 177.656 38.4109 177.42 38.3159C177.207 38.221 177.018 38.1021 176.853 37.9359C176.687 37.7696 176.569 37.5796 176.475 37.3658C176.38 37.1521 176.333 36.8908 176.309 36.6058H175.53V37.8409C175.53 37.9359 175.577 38.0072 175.695 38.0309C175.789 38.0784 175.907 38.1021 176.026 38.126C176.073 38.126 176.097 38.1734 176.097 38.2209C176.097 38.2447 176.097 38.2684 176.097 38.2922C176.097 38.3159 176.097 38.3397 176.073 38.3635C175.931 38.3635 175.766 38.3397 175.624 38.3397C175.483 38.3397 175.317 38.3159 175.152 38.3159C174.986 38.3159 174.821 38.3159 174.679 38.3397C174.538 38.3397 174.372 38.3635 174.23 38.3635C174.23 38.3397 174.23 38.3159 174.207 38.2922C174.207 38.2684 174.207 38.2447 174.207 38.2209C174.207 38.1734 174.23 38.126 174.278 38.126C174.396 38.1021 174.514 38.0784 174.632 38.0309C174.726 37.9834 174.797 37.9122 174.797 37.8172V35.1094C174.797 35.0144 174.75 34.9431 174.632 34.8956C174.538 34.8482 174.419 34.8243 174.278 34.8006C174.23 34.8006 174.207 34.7532 174.207 34.7056C174.207 34.6819 174.207 34.6581 174.207 34.6581C174.207 34.6344 174.207 34.6106 174.23 34.5869C174.372 34.6106 174.538 34.6106 174.679 34.6106C174.821 34.6106 174.986 34.6106 175.152 34.6106C175.317 34.6106 175.459 34.6106 175.624 34.6106C175.766 34.6106 175.907 34.5869 176.073 34.5869C176.073 34.6106 176.073 34.6344 176.097 34.6581C176.097 34.6819 176.097 34.7056 176.097 34.7056C176.097 34.7532 176.073 34.8006 176.026 34.8006C175.907 34.8243 175.789 34.8482 175.695 34.8956C175.601 34.9431 175.53 35.0144 175.53 35.0857V36.297ZM177.136 36.202C177.136 36.4158 177.159 36.6533 177.207 36.867C177.254 37.0808 177.325 37.2946 177.396 37.4846C177.49 37.6746 177.608 37.8172 177.75 37.9359C177.892 38.0547 178.058 38.126 178.27 38.126C178.577 38.126 178.79 38.0072 178.978 37.7696C179.144 37.5321 179.238 37.2234 179.238 36.867C179.238 36.6533 179.215 36.4158 179.168 36.1783C179.12 35.9407 179.05 35.7269 178.955 35.5132C178.86 35.3231 178.742 35.1569 178.6 35.0144C178.459 34.8956 178.27 34.8243 178.058 34.8243C177.774 34.8243 177.538 34.9194 177.396 35.1331C177.207 35.3944 177.136 35.7269 177.136 36.202Z" fill="black"/>
<path d="M182.142 35.4185C182.142 35.2522 182.118 35.1334 182.047 35.0622C182 34.991 181.858 34.9434 181.669 34.9197C181.598 34.9197 181.551 34.8722 181.551 34.8009C181.551 34.7772 181.551 34.7297 181.574 34.6822C181.645 34.6822 181.763 34.6822 181.881 34.6585C182.024 34.6585 182.118 34.6346 182.212 34.6109C182.33 34.5872 182.448 34.5634 182.566 34.5397C182.661 34.5159 182.732 34.4922 182.779 34.4922C182.85 34.4922 182.897 34.5397 182.897 34.6346C182.897 34.7059 182.897 34.8009 182.874 34.896C182.874 34.991 182.85 35.1334 182.85 35.3235C183.016 35.086 183.228 34.896 183.44 34.7534C183.653 34.5872 183.936 34.5159 184.244 34.5159C184.433 34.5159 184.645 34.5635 184.811 34.6346C185 34.7059 185.165 34.8484 185.307 34.991C185.449 35.1572 185.567 35.3472 185.637 35.5848C185.732 35.8223 185.755 36.0836 185.755 36.3923C185.755 36.7249 185.685 37.0099 185.567 37.2711C185.449 37.5325 185.283 37.7462 185.118 37.9124C184.929 38.0787 184.74 38.2212 184.527 38.3162C184.315 38.4112 184.126 38.4588 183.936 38.4588C183.748 38.4588 183.558 38.435 183.393 38.4112C183.204 38.3638 183.039 38.3162 182.826 38.2212V39.8126C182.826 39.9551 182.897 40.0739 183.016 40.1214C183.157 40.1689 183.37 40.2164 183.677 40.2402C183.748 40.2402 183.771 40.2877 183.771 40.3589C183.771 40.3827 183.771 40.4065 183.771 40.4302C183.771 40.4539 183.771 40.4777 183.748 40.5015C183.677 40.5015 183.606 40.4777 183.512 40.4777C183.417 40.4777 183.322 40.4777 183.204 40.4539C183.086 40.4302 182.992 40.4539 182.874 40.4539C182.756 40.4539 182.661 40.4539 182.543 40.4539C182.401 40.4539 182.236 40.4539 182.07 40.4777C181.905 40.4777 181.739 40.5015 181.598 40.5015C181.598 40.4777 181.598 40.4539 181.574 40.4302C181.574 40.4065 181.574 40.3827 181.574 40.3589C181.574 40.3114 181.598 40.2639 181.645 40.2639C181.763 40.2402 181.881 40.1927 181.952 40.1689C182.047 40.1214 182.07 40.0501 182.07 39.9551V35.4185H182.142ZM182.874 37.6512C183.016 37.7937 183.181 37.9362 183.346 38.0074C183.512 38.1025 183.724 38.15 183.936 38.15C184.102 38.15 184.244 38.1025 184.385 38.0312C184.504 37.96 184.622 37.8412 184.716 37.7225C184.811 37.5799 184.858 37.4375 184.905 37.2474C184.953 37.0574 184.976 36.8674 184.976 36.6536C184.976 36.4398 184.953 36.2261 184.905 36.0123C184.858 35.7986 184.787 35.6323 184.693 35.4898C184.598 35.3472 184.48 35.2047 184.339 35.1334C184.197 35.0384 184.054 34.991 183.889 34.991C183.771 34.991 183.653 35.0147 183.535 35.086C183.417 35.1572 183.322 35.2522 183.204 35.3472C183.11 35.4422 183.039 35.5848 182.968 35.7035C182.897 35.846 182.874 35.9648 182.874 36.1073V37.6512Z" fill="black"/>
<path d="M81.3672 26.96C81.3672 27.2213 81.4379 27.3876 81.6032 27.4826C81.7686 27.5776 82.0993 27.6726 82.5954 27.7676C82.7134 27.7914 82.7848 27.8626 82.7848 28.0289C82.7848 28.0764 82.7848 28.1239 82.7848 28.1952C82.7848 28.2427 82.7607 28.3139 82.7607 28.3852C82.454 28.3615 82.076 28.3377 81.6506 28.3139C81.2252 28.2902 80.8238 28.2902 80.493 28.2902C80.139 28.2902 79.7609 28.2902 79.3588 28.3139C78.9575 28.3377 78.5794 28.3615 78.2013 28.3852C78.178 28.3139 78.178 28.2664 78.178 28.1952C78.178 28.1477 78.178 28.0764 78.178 28.0289C78.178 27.8626 78.2487 27.7676 78.3667 27.7676C78.8394 27.6726 79.1468 27.5776 79.3355 27.4826C79.5242 27.3876 79.5956 27.1975 79.5956 26.96V22.3521H73.6186V26.96C73.6186 27.2213 73.69 27.3876 73.8553 27.4826C74.0207 27.5776 74.3514 27.6726 74.8475 27.7676C74.9888 27.7914 75.0595 27.8864 75.0595 28.0289C75.0595 28.0764 75.0595 28.1239 75.0595 28.1952C75.0595 28.2427 75.0362 28.3139 75.0362 28.3852C74.7054 28.3615 74.3274 28.3377 73.902 28.3139C73.4773 28.2902 73.0752 28.2902 72.7444 28.2902C72.3904 28.2902 72.0123 28.2902 71.6343 28.3139C71.2562 28.3377 70.8548 28.3615 70.4533 28.3852C70.4297 28.3139 70.4297 28.2664 70.4297 28.1952C70.4297 28.1477 70.4297 28.0764 70.4297 28.0289C70.4297 27.8626 70.5006 27.7676 70.6187 27.7676C71.0908 27.6726 71.4216 27.5776 71.611 27.4826C71.7763 27.3876 71.871 27.1975 71.871 26.96V17.2692C71.871 17.0079 71.7996 16.8416 71.6343 16.7466C71.4929 16.6516 71.1622 16.5329 70.6423 16.4378C70.5242 16.4141 70.4533 16.3191 70.4533 16.1291C70.4533 16.0816 70.4533 16.0341 70.4533 15.9866C70.4533 15.939 70.4769 15.8678 70.4769 15.8203C70.7842 15.844 71.1622 15.8678 71.5869 15.8916C72.0123 15.9153 72.3904 15.9153 72.7211 15.9153C73.0752 15.9153 73.4532 15.9153 73.8313 15.8916C74.2327 15.8678 74.6108 15.844 74.9888 15.8203C75.0128 15.8916 75.0128 15.939 75.0128 15.9866C75.0128 16.0341 75.0128 16.0816 75.0128 16.1291C75.0128 16.3191 74.9415 16.4141 74.8235 16.4378C74.3274 16.5091 73.9967 16.6041 73.8553 16.7229C73.69 16.8416 73.6186 17.0317 73.6186 17.2692V21.5446H79.5716V17.2692C79.5716 17.0554 79.5009 16.8892 79.3355 16.7466C79.1935 16.6041 78.8628 16.5091 78.3667 16.4378C78.2254 16.4141 78.1547 16.3191 78.1547 16.1291C78.1547 16.0816 78.1547 16.0341 78.1547 15.9866C78.1547 15.939 78.178 15.8678 78.178 15.8203C78.4854 15.844 78.8628 15.8678 79.2882 15.8916C79.7136 15.9153 80.0917 15.9153 80.4457 15.9153C80.8004 15.9153 81.1785 15.9153 81.5559 15.8916C81.9339 15.8678 82.336 15.844 82.7134 15.8203C82.7374 15.8916 82.7374 15.939 82.7374 15.9866C82.7374 16.0341 82.7374 16.0816 82.7374 16.1291C82.7374 16.3191 82.6668 16.4141 82.548 16.4378C82.052 16.5091 81.7212 16.6041 81.5799 16.7229C81.4145 16.8416 81.3439 17.0317 81.3439 17.2692V26.96H81.3672Z" fill="black"/>
<path d="M91.8094 23.756H87.5807L86.3759 26.82C86.3052 26.9863 86.2812 27.1051 86.2812 27.2001C86.2812 27.4614 86.6592 27.6514 87.4387 27.7702C87.5334 27.7939 87.5807 27.8176 87.6281 27.8652C87.6514 27.9127 87.6747 27.9839 87.6747 28.0552C87.6747 28.1027 87.6747 28.1502 87.6747 28.1977C87.6747 28.2452 87.6514 28.3164 87.6514 28.364C87.3207 28.3402 86.9426 28.3164 86.5646 28.2927C86.1865 28.269 85.8091 28.269 85.4544 28.269C85.1943 28.269 84.935 28.269 84.6749 28.2927C84.4149 28.3164 84.1315 28.3402 83.8481 28.364C83.8248 28.2452 83.8008 28.1264 83.8008 28.0552C83.8008 27.9602 83.8248 27.8889 83.8481 27.8176C83.8714 27.7464 83.9428 27.7226 84.0368 27.6989C84.4389 27.6276 84.7223 27.5564 84.911 27.4614C85.1003 27.3664 85.2417 27.2238 85.3364 27.0101L89.8958 15.9653C89.9905 15.7515 90.1085 15.6328 90.2498 15.6328C90.2738 15.6328 90.3445 15.6565 90.4866 15.6803L95.0693 27.0813C95.14 27.2714 95.3053 27.3901 95.5887 27.5089C95.8487 27.6039 96.1088 27.6752 96.3681 27.7226C96.4395 27.7464 96.5102 27.7939 96.5575 27.8176C96.6049 27.8652 96.6282 27.9364 96.6282 28.0552C96.6282 28.1027 96.6282 28.1502 96.6282 28.1977C96.6282 28.2452 96.6049 28.3164 96.6049 28.364C96.2028 28.3402 95.8014 28.3164 95.4 28.2927C94.9979 28.269 94.6439 28.269 94.2898 28.269C93.9351 28.269 93.5337 28.269 93.085 28.2927C92.6362 28.3164 92.2108 28.3402 91.8561 28.364C91.8328 28.2927 91.8328 28.2452 91.8328 28.1977C91.8328 28.1502 91.8328 28.1027 91.8328 28.0552C91.8328 27.9364 91.8561 27.8652 91.9034 27.8176C91.9508 27.7702 91.9981 27.7464 92.0214 27.7464C92.3522 27.6752 92.6122 27.6039 92.8249 27.5326C93.0376 27.4614 93.1323 27.3188 93.1323 27.1526C93.1323 27.0576 93.1083 26.9626 93.0609 26.8676L91.8094 23.756ZM91.502 22.9722L89.7304 18.3168L87.8874 22.9722H91.502Z" fill="black"/>
<path d="M110.78 18.0546C110.496 18.0546 110.26 18.1258 110.071 18.2683C109.882 18.4109 109.74 18.6009 109.599 18.8384C109.457 19.0759 109.339 19.3372 109.221 19.6222C109.103 19.9072 108.961 20.216 108.819 20.501C108.653 20.8098 108.465 21.0711 108.252 21.3561C108.016 21.6174 107.733 21.8549 107.354 22.0449V22.0925C107.779 22.1637 108.134 22.2825 108.441 22.425C108.748 22.5674 109.008 22.7338 109.221 22.9C109.433 23.0663 109.622 23.28 109.788 23.4938C109.953 23.7076 110.095 23.9689 110.236 24.2539C110.378 24.5389 110.52 24.8715 110.662 25.2752C110.803 25.6553 110.968 26.1066 111.134 26.6054C111.205 26.8429 111.299 27.0329 111.37 27.1754C111.464 27.3179 111.559 27.4367 111.654 27.5317C111.772 27.6267 111.867 27.6742 111.985 27.7217C112.103 27.7692 112.221 27.7929 112.339 27.8405C112.457 27.8642 112.504 27.9592 112.504 28.1017C112.504 28.1493 112.504 28.1967 112.504 28.268C112.504 28.3155 112.481 28.3867 112.481 28.458C112.197 28.4343 111.89 28.4105 111.606 28.3867C111.323 28.363 111.04 28.363 110.78 28.363C110.52 28.363 110.284 28.3393 110.118 28.2917C109.93 28.2443 109.788 28.173 109.67 28.0542C109.552 27.9355 109.457 27.8167 109.386 27.6742C109.315 27.5317 109.268 27.3417 109.197 27.1516C108.961 26.2253 108.725 25.489 108.535 24.9189C108.323 24.3489 108.063 23.8976 107.779 23.5413C107.614 23.3513 107.448 23.185 107.26 23.0663C107.071 22.9475 106.882 22.8525 106.669 22.7812C106.456 22.71 106.197 22.6625 105.914 22.6387C105.63 22.615 105.323 22.5913 104.968 22.5913H104.732V26.9854C104.732 27.2466 104.803 27.413 104.968 27.508C105.133 27.6029 105.418 27.6979 105.842 27.7929C105.914 27.8167 105.96 27.8405 105.984 27.8642C106.032 27.9117 106.032 27.9829 106.032 28.078C106.032 28.1255 106.032 28.173 106.032 28.2205C106.032 28.268 106.008 28.3393 106.008 28.3867C105.606 28.363 105.228 28.3393 104.85 28.3155C104.472 28.2917 104.141 28.2917 103.835 28.2917C103.504 28.2917 103.126 28.2917 102.724 28.3155C102.322 28.3393 101.921 28.363 101.543 28.3867C101.52 28.3155 101.52 28.268 101.52 28.2205C101.52 28.173 101.52 28.1255 101.52 28.078C101.52 27.8879 101.59 27.7929 101.708 27.7692C102.181 27.6742 102.512 27.5792 102.7 27.4842C102.866 27.3892 102.96 27.2229 102.96 26.9616V17.2708C102.96 17.0095 102.866 16.8432 102.7 16.7244C102.512 16.6057 102.204 16.5344 101.708 16.4394C101.59 16.4157 101.52 16.3207 101.52 16.1069C101.52 16.0594 101.52 16.0357 101.52 15.9644C101.52 15.9169 101.543 15.8457 101.543 15.7981C101.898 15.8219 102.299 15.8457 102.724 15.8694C103.149 15.8931 103.504 15.8931 103.835 15.8931C104.165 15.8931 104.519 15.8931 104.945 15.8694C105.346 15.8457 105.748 15.8219 106.15 15.7981C106.173 15.8694 106.173 15.9169 106.173 15.9644C106.173 16.0119 106.173 16.0594 106.173 16.1069C106.173 16.3207 106.102 16.4157 105.984 16.4394C105.511 16.5107 105.181 16.6057 104.992 16.7244C104.803 16.8432 104.732 17.0095 104.732 17.2708V21.8312H105.11C105.89 21.8312 106.48 21.6887 106.929 21.3799C107.378 21.0711 107.733 20.6911 107.992 20.2398C108.252 19.7885 108.465 19.2897 108.63 18.7671C108.795 18.2446 108.961 17.7458 109.173 17.2945C109.386 16.8432 109.645 16.4632 109.953 16.1544C110.284 15.8457 110.732 15.7031 111.323 15.7031C111.464 15.7031 111.606 15.7269 111.725 15.7507C111.867 15.7744 111.961 15.8219 112.008 15.8457C112.103 15.9169 112.15 16.0594 112.15 16.2732C112.15 16.4394 112.126 16.6532 112.079 16.867C112.032 17.0808 111.961 17.2945 111.89 17.4846C111.819 17.6746 111.725 17.8408 111.606 17.9595C111.512 18.1021 111.394 18.1496 111.276 18.1496C111.181 18.1496 111.087 18.1258 111.04 18.1021C111.04 18.0783 110.922 18.0546 110.78 18.0546Z" fill="black"/>
<path d="M121.123 16.6751H117.816C117.816 17.5539 117.816 18.4565 117.792 19.3828C117.768 20.2854 117.721 21.188 117.626 22.0668C117.532 22.9456 117.414 23.7769 117.248 24.5608C117.083 25.3446 116.847 26.0571 116.54 26.6985C116.256 27.2922 115.95 27.7436 115.619 28.0523C115.288 28.3611 114.957 28.5036 114.627 28.5036C114.509 28.5036 114.414 28.4561 114.319 28.3611C114.225 28.2661 114.154 28.1236 114.083 27.9811C114.013 27.8386 113.965 27.6486 113.941 27.4823C113.918 27.2922 113.895 27.126 113.895 26.9597C113.895 26.7459 113.918 26.5797 113.965 26.4847C114.013 26.3897 114.131 26.2947 114.343 26.2471C114.815 26.1047 115.217 25.8909 115.548 25.6059C115.879 25.3446 116.138 24.8696 116.351 24.252C116.564 23.6107 116.706 22.7556 116.8 21.6392C116.894 20.5229 116.942 19.0977 116.942 17.2926C116.942 17.0313 116.871 16.8651 116.752 16.7463C116.634 16.6275 116.351 16.5325 115.95 16.4613C115.832 16.4375 115.76 16.3425 115.76 16.1525C115.76 16.105 115.76 16.0575 115.76 16.01C115.76 15.9625 115.784 15.8912 115.784 15.8438C116.091 15.8675 116.422 15.8912 116.776 15.915C117.107 15.9387 117.461 15.9387 117.792 15.9387H122.02C122.375 15.9387 122.753 15.9387 123.131 15.915C123.509 15.8912 123.91 15.8675 124.288 15.8438C124.312 15.915 124.312 15.9625 124.312 16.01C124.312 16.0575 124.312 16.105 124.312 16.1525C124.312 16.3425 124.241 16.4375 124.123 16.4613C123.627 16.5325 123.296 16.6275 123.155 16.7463C122.989 16.8651 122.918 17.0551 122.918 17.2926V26.9835C122.918 27.2448 123.013 27.411 123.202 27.5298C123.391 27.6485 123.745 27.7198 124.218 27.8148C124.36 27.8386 124.43 27.9336 124.43 28.1236C124.43 28.1711 124.43 28.2186 124.43 28.2661C124.43 28.3136 124.406 28.3848 124.406 28.4324C124.029 28.4086 123.627 28.3848 123.202 28.3611C122.777 28.3374 122.399 28.3374 122.068 28.3374C121.595 28.3374 121.123 28.3374 120.627 28.3611C120.131 28.3848 119.729 28.4086 119.375 28.4324C119.351 28.3611 119.351 28.3136 119.351 28.2661C119.351 28.2186 119.351 28.1711 119.351 28.1236C119.351 27.9336 119.422 27.8148 119.587 27.791C120.107 27.7198 120.509 27.6485 120.768 27.5535C121.028 27.4585 121.146 27.2685 121.146 26.9835L121.123 16.6751Z" fill="black"/>
<path d="M133.383 23.756H129.155L127.95 26.82C127.879 26.9863 127.855 27.1051 127.855 27.2001C127.855 27.4614 128.233 27.6514 129.013 27.7702C129.108 27.7939 129.155 27.8176 129.202 27.8652C129.226 27.9127 129.249 27.9839 129.249 28.0552C129.249 28.1027 129.249 28.1502 129.249 28.1977C129.249 28.2452 129.226 28.3164 129.226 28.364C128.895 28.3402 128.517 28.3164 128.139 28.2927C127.761 28.269 127.383 28.269 127.029 28.269C126.769 28.269 126.509 28.269 126.249 28.2927C125.989 28.3164 125.706 28.3402 125.422 28.364C125.398 28.2452 125.375 28.1264 125.375 28.0552C125.375 27.9602 125.398 27.8889 125.422 27.8176C125.446 27.7464 125.517 27.7226 125.611 27.6989C126.013 27.6276 126.296 27.5564 126.485 27.4614C126.675 27.3664 126.816 27.2238 126.911 27.0101L131.47 15.9653C131.564 15.7515 131.683 15.6328 131.824 15.6328C131.848 15.6328 131.919 15.6565 132.06 15.6803L136.644 27.0813C136.714 27.2714 136.88 27.3901 137.163 27.5089C137.423 27.6039 137.682 27.6752 137.942 27.7226C138.013 27.7464 138.084 27.7939 138.132 27.8176C138.178 27.8652 138.202 27.9364 138.202 28.0552C138.202 28.1027 138.202 28.1502 138.202 28.1977C138.202 28.2452 138.178 28.3164 138.178 28.364C137.777 28.3402 137.376 28.3164 136.974 28.2927C136.572 28.269 136.218 28.269 135.863 28.269C135.509 28.269 135.108 28.269 134.659 28.2927C134.21 28.3164 133.785 28.3402 133.43 28.364C133.407 28.2927 133.407 28.2452 133.407 28.1977C133.407 28.1502 133.407 28.1027 133.407 28.0552C133.407 27.9364 133.43 27.8652 133.478 27.8176C133.525 27.7702 133.572 27.7464 133.596 27.7464C133.926 27.6752 134.186 27.6039 134.399 27.5326C134.612 27.4614 134.706 27.3188 134.706 27.1526C134.706 27.0576 134.683 26.9626 134.635 26.8676L133.383 23.756ZM133.076 22.9722L131.305 18.293L129.462 22.9722H133.076Z" fill="black"/>
<path d="M145.503 21.6865C145.905 21.7339 146.306 21.8289 146.708 21.9715C147.11 22.114 147.487 22.2803 147.819 22.5415C148.149 22.779 148.409 23.0878 148.621 23.4441C148.834 23.8004 148.929 24.228 148.929 24.7267C148.929 25.2968 148.834 25.7956 148.621 26.2231C148.409 26.6744 148.125 27.0307 147.724 27.3394C147.346 27.6482 146.873 27.8857 146.33 28.052C145.787 28.2183 145.196 28.2895 144.535 28.2895H141.534C141.322 28.2895 141.085 28.2895 140.802 28.3133C140.519 28.3371 140.283 28.3371 140.046 28.3608L139.196 28.4083C139.172 28.3845 139.172 28.3608 139.172 28.2895C139.148 28.242 139.148 28.1945 139.148 28.0995C139.148 27.9333 139.219 27.8145 139.361 27.7907C139.857 27.6957 140.188 27.6007 140.377 27.5058C140.566 27.4107 140.661 27.2444 140.661 26.9832V17.2923C140.661 17.031 140.566 16.8648 140.377 16.7698C140.188 16.6748 139.857 16.5797 139.361 16.4847C139.219 16.461 139.148 16.3422 139.148 16.1284C139.148 16.0572 139.148 16.0097 139.172 15.9859C139.172 15.9385 139.172 15.8909 139.196 15.8672C139.574 15.8909 139.975 15.9147 140.424 15.9385C140.849 15.9622 141.227 15.9622 141.534 15.9622H143.873C144.582 15.9622 145.172 16.0335 145.692 16.1997C146.188 16.366 146.59 16.5797 146.92 16.8648C147.228 17.1498 147.464 17.4586 147.606 17.8386C147.747 18.1949 147.819 18.5749 147.819 18.9787C147.819 19.2637 147.771 19.5488 147.652 19.8338C147.534 20.1188 147.393 20.3801 147.18 20.6176C146.991 20.8552 146.755 21.0689 146.472 21.2589C146.188 21.4489 145.881 21.5915 145.55 21.6865H145.503ZM142.716 21.4251C143.826 21.4251 144.629 21.2351 145.125 20.8314C145.622 20.4276 145.858 19.81 145.858 18.9549C145.858 18.1711 145.622 17.6011 145.125 17.221C144.629 16.841 143.849 16.651 142.716 16.651H142.432V21.4014H142.716V21.4251ZM142.432 26.8169C142.432 26.9594 142.48 27.0782 142.574 27.1494C142.668 27.2444 142.763 27.3157 142.904 27.3632C143.046 27.4107 143.188 27.4582 143.33 27.4582C143.472 27.4819 143.637 27.4819 143.755 27.4819C144.227 27.4819 144.676 27.4345 145.054 27.3632C145.456 27.292 145.787 27.1494 146.046 26.9594C146.33 26.7694 146.542 26.5081 146.684 26.1994C146.826 25.8669 146.92 25.4631 146.92 24.9643C146.92 24.0379 146.614 23.3491 145.999 22.8978C145.385 22.4228 144.511 22.1853 143.424 22.1853H142.432V26.8169Z" fill="black"/>
<path d="M159.417 18.908L153.7 26.39V26.9363C153.7 27.0788 153.724 27.2213 153.748 27.2926C153.772 27.3876 153.842 27.4589 153.913 27.5063C153.984 27.5539 154.078 27.6013 154.22 27.6489C154.338 27.6963 154.504 27.7201 154.716 27.7676C154.858 27.8151 154.929 27.8864 154.929 28.0289C154.929 28.0764 154.929 28.1239 154.929 28.1952C154.929 28.2427 154.905 28.3139 154.905 28.3852C154.574 28.3615 154.244 28.3377 153.89 28.3139C153.535 28.2902 153.181 28.2902 152.85 28.2902C152.495 28.2902 152.118 28.2902 151.74 28.3139C151.338 28.3377 150.961 28.3615 150.558 28.3852C150.535 28.3139 150.535 28.2664 150.535 28.1952C150.535 28.1477 150.535 28.0764 150.535 28.0289C150.535 27.8626 150.606 27.7676 150.724 27.7676C151.197 27.6726 151.527 27.5776 151.716 27.4826C151.881 27.3876 151.976 27.1975 151.976 26.96V17.2692C151.976 17.0079 151.905 16.8416 151.74 16.7466C151.598 16.6516 151.267 16.5329 150.748 16.4378C150.63 16.4141 150.558 16.3191 150.558 16.1291C150.558 16.0816 150.558 16.0341 150.558 15.9866C150.558 15.939 150.583 15.8678 150.583 15.8203C150.889 15.844 151.267 15.8678 151.693 15.8916C152.118 15.9153 152.495 15.9153 152.826 15.9153C153.181 15.9153 153.559 15.9153 153.937 15.8916C154.338 15.8678 154.716 15.844 155.095 15.8203C155.118 15.8916 155.118 15.939 155.118 15.9866C155.118 16.0341 155.118 16.0816 155.118 16.1291C155.118 16.3191 155.047 16.4141 154.929 16.4378C154.433 16.5091 154.102 16.6041 153.96 16.7229C153.795 16.8416 153.724 17.0317 153.724 17.2692V24.9649L159.441 17.4829V17.2692C159.441 16.9842 159.37 16.7942 159.252 16.6992C159.134 16.5804 158.874 16.5091 158.472 16.4378C158.33 16.4141 158.26 16.3191 158.26 16.1291C158.26 16.0816 158.26 16.0341 158.26 15.9866C158.26 15.939 158.284 15.8678 158.284 15.8203C158.59 15.844 158.921 15.8678 159.276 15.8916C159.63 15.9153 159.961 15.9153 160.315 15.9153C160.669 15.9153 161.048 15.9153 161.426 15.8916C161.803 15.8678 162.205 15.844 162.583 15.8203C162.606 15.8916 162.606 15.939 162.606 15.9866C162.606 16.0341 162.606 16.0816 162.606 16.1291C162.606 16.3191 162.536 16.4141 162.418 16.4378C161.922 16.5091 161.591 16.6041 161.449 16.7229C161.284 16.8416 161.213 17.0317 161.213 17.2692V26.96C161.213 27.2213 161.284 27.3876 161.449 27.4826C161.614 27.5776 161.945 27.6726 162.441 27.7676C162.559 27.7914 162.63 27.8626 162.63 28.0289C162.63 28.0764 162.63 28.1239 162.63 28.1952C162.63 28.2427 162.606 28.3139 162.606 28.3852C162.299 28.3615 161.922 28.3377 161.496 28.3139C161.071 28.2902 160.669 28.2902 160.339 28.2902C159.984 28.2902 159.607 28.2902 159.205 28.3139C158.803 28.3377 158.425 28.3615 158.047 28.3852C158.024 28.3139 158.024 28.2664 158.024 28.1952C158.024 28.1477 158.024 28.0764 158.024 28.0289C158.024 27.8626 158.094 27.7676 158.212 27.7676C158.685 27.6726 158.992 27.5776 159.181 27.4826C159.347 27.3876 159.441 27.1975 159.441 26.96V18.908H159.417Z" fill="black"/>
<path d="M173.049 15.9153C173.38 15.9153 173.781 15.9153 174.207 15.8916C174.631 15.8678 175.009 15.844 175.317 15.8203C175.34 15.8916 175.34 15.939 175.34 16.0103C175.34 16.0578 175.34 16.1291 175.34 16.1766C175.34 16.3428 175.269 16.4378 175.151 16.4378C174.655 16.5329 174.325 16.6279 174.159 16.7229C173.994 16.8179 173.922 16.9842 173.922 17.2454V27.5063H178.459V17.2454C178.459 16.9842 178.364 16.8179 178.198 16.7229C178.01 16.6279 177.702 16.5329 177.23 16.4378C177.112 16.4141 177.041 16.3428 177.041 16.1766C177.041 16.1291 177.041 16.0816 177.041 16.0103C177.041 15.9628 177.064 15.8916 177.064 15.8203C177.442 15.844 177.82 15.8678 178.223 15.8916C178.624 15.9153 179.002 15.9153 179.356 15.9153C179.687 15.9153 180.088 15.9153 180.514 15.8916C180.939 15.8678 181.317 15.844 181.624 15.8203C181.648 15.8916 181.648 15.939 181.648 16.0103C181.648 16.0578 181.648 16.1291 181.648 16.1766C181.648 16.3428 181.576 16.4378 181.458 16.4378C180.962 16.5329 180.632 16.6279 180.466 16.7229C180.301 16.8179 180.23 16.9842 180.23 17.2454V26.9126C180.23 27.1738 180.301 27.3401 180.466 27.4589C180.632 27.5776 180.939 27.6726 181.435 27.7439C181.553 27.7676 181.624 27.8627 181.624 28.0527C181.624 28.1001 181.624 28.1477 181.624 28.1952C181.624 28.2427 181.6 28.3139 181.6 28.3615C181.199 28.3377 180.821 28.3139 180.443 28.2902C180.065 28.2664 179.687 28.2664 179.333 28.2664H166.671C166.34 28.2664 165.962 28.2664 165.536 28.2902C165.111 28.3139 164.757 28.3377 164.426 28.3615C164.403 28.2902 164.403 28.2427 164.403 28.1952C164.403 28.1477 164.403 28.1001 164.403 28.0527C164.403 27.8627 164.474 27.7676 164.592 27.7439C165.088 27.6489 165.418 27.5301 165.584 27.4351C165.726 27.3401 165.82 27.1501 165.82 26.9126V17.2454C165.82 16.9842 165.726 16.8179 165.56 16.7229C165.371 16.6279 165.064 16.5329 164.568 16.4378C164.45 16.4141 164.379 16.3428 164.379 16.1766C164.379 16.1291 164.379 16.0816 164.379 16.0103C164.379 15.9628 164.403 15.8916 164.403 15.8203C164.804 15.844 165.182 15.8678 165.584 15.8916C165.985 15.9153 166.34 15.9153 166.694 15.9153C167.025 15.9153 167.426 15.9153 167.851 15.8916C168.277 15.8678 168.655 15.844 168.986 15.8203C169.009 15.8916 169.009 15.939 169.009 16.0103C169.009 16.0578 169.009 16.1291 169.009 16.1766C169.009 16.3191 168.938 16.4141 168.796 16.4378C168.3 16.5329 167.969 16.6279 167.804 16.7229C167.639 16.8179 167.568 16.9842 167.568 17.2454V27.5063H172.103V17.2454C172.103 16.9842 172.033 16.8179 171.867 16.7229C171.702 16.6279 171.371 16.5329 170.875 16.4378C170.757 16.4141 170.687 16.3428 170.687 16.1766C170.687 16.1291 170.687 16.0816 170.687 16.0103C170.687 15.9628 170.71 15.8916 170.71 15.8203C171.017 15.844 171.395 15.8678 171.844 15.8916C172.34 15.8916 172.718 15.9153 173.049 15.9153Z" fill="black"/>
<path d="M190.719 23.756H186.491L185.286 26.82C185.215 26.9863 185.191 27.1051 185.191 27.2001C185.191 27.4614 185.569 27.6514 186.349 27.7702C186.444 27.7939 186.491 27.8176 186.538 27.8652C186.562 27.9127 186.585 27.9839 186.585 28.0552C186.585 28.1027 186.585 28.1502 186.585 28.1977C186.585 28.2452 186.562 28.3164 186.562 28.364C186.231 28.3402 185.853 28.3164 185.475 28.2927C185.097 28.269 184.719 28.269 184.365 28.269C184.104 28.269 183.845 28.269 183.585 28.2927C183.325 28.3164 183.042 28.3402 182.758 28.364C182.734 28.2452 182.711 28.1264 182.711 28.0552C182.711 27.9602 182.734 27.8889 182.758 27.8176C182.782 27.7464 182.853 27.7226 182.947 27.6989C183.349 27.6276 183.632 27.5564 183.821 27.4614C184.01 27.3664 184.152 27.2238 184.247 27.0101L188.806 15.9653C188.9 15.7515 189.019 15.6328 189.16 15.6328C189.184 15.6328 189.255 15.6565 189.396 15.6803L193.979 27.0813C194.05 27.2714 194.215 27.3901 194.499 27.5089C194.759 27.6039 195.018 27.6752 195.278 27.7226C195.349 27.7464 195.42 27.7939 195.468 27.8176C195.514 27.8652 195.538 27.9364 195.538 28.0552C195.538 28.1027 195.538 28.1502 195.538 28.1977C195.538 28.2452 195.514 28.3164 195.514 28.364C195.113 28.3402 194.712 28.3164 194.31 28.2927C193.908 28.269 193.554 28.269 193.199 28.269C192.845 28.269 192.444 28.269 191.995 28.2927C191.546 28.3164 191.121 28.3402 190.766 28.364C190.743 28.2927 190.743 28.2452 190.743 28.1977C190.743 28.1502 190.743 28.1027 190.743 28.0552C190.743 27.9364 190.766 27.8652 190.814 27.8176C190.861 27.7702 190.908 27.7464 190.932 27.7464C191.262 27.6752 191.522 27.6039 191.735 27.5326C191.948 27.4614 192.042 27.3188 192.042 27.1526C192.042 27.0576 192.018 26.9626 191.971 26.8676L190.719 23.756ZM190.412 22.9722L188.641 18.293L186.798 22.9722H190.412Z" fill="black"/>
<path d="M206.097 27.1029C206.215 27.2929 206.356 27.4116 206.569 27.5066C206.758 27.6017 207.089 27.673 207.538 27.7442C207.608 27.768 207.656 27.7917 207.726 27.8392C207.774 27.8867 207.821 27.958 207.821 28.053C207.821 28.1005 207.821 28.148 207.821 28.1955C207.821 28.243 207.797 28.3142 207.797 28.3618C207.608 28.338 207.395 28.338 207.183 28.3142C206.97 28.2905 206.734 28.2905 206.521 28.2905C206.309 28.2905 206.097 28.2668 205.884 28.2668C205.671 28.2668 205.506 28.2668 205.364 28.2668C205.033 28.2668 204.608 28.2668 204.159 28.2905C203.687 28.3142 203.238 28.338 202.789 28.3618C202.765 28.2905 202.765 28.243 202.765 28.1955C202.765 28.148 202.765 28.1005 202.765 28.053C202.765 27.8867 202.836 27.768 202.978 27.7442C203.286 27.673 203.522 27.6017 203.71 27.5304C203.9 27.4592 203.994 27.3166 203.994 27.1504C203.994 27.0078 203.947 26.8891 203.852 26.8178L201.254 22.78L198.821 26.4853C198.655 26.7229 198.584 26.9128 198.584 27.0791C198.584 27.4116 198.915 27.6254 199.576 27.7442C199.718 27.768 199.789 27.863 199.789 28.053C199.789 28.1005 199.789 28.148 199.789 28.1955C199.789 28.243 199.766 28.3142 199.766 28.3618C199.435 28.338 199.057 28.3142 198.655 28.2905C198.253 28.2668 197.899 28.2668 197.592 28.2668C197.309 28.2668 197.025 28.2668 196.765 28.2905C196.505 28.3142 196.198 28.338 195.844 28.3618C195.82 28.2905 195.82 28.243 195.82 28.1955C195.82 28.148 195.82 28.1005 195.82 28.053C195.82 27.863 195.891 27.768 196.033 27.7442C196.316 27.673 196.6 27.5779 196.883 27.4592C197.167 27.3404 197.356 27.1979 197.474 27.0078L200.805 21.9724L197.616 17.0557C197.521 16.8895 197.356 16.7469 197.143 16.6519C196.93 16.5332 196.6 16.4619 196.174 16.4382C196.033 16.4144 195.938 16.3194 195.938 16.1057C195.938 16.0581 195.938 16.0344 195.938 15.9631C195.938 15.9156 195.962 15.8443 195.962 15.7969C196.364 15.8206 196.765 15.8444 197.214 15.8681C197.663 15.8919 198.041 15.8919 198.325 15.8919C198.655 15.8919 199.057 15.8919 199.506 15.8681C199.978 15.8444 200.427 15.8206 200.852 15.7969C200.876 15.8681 200.876 15.9156 200.876 15.9631C200.876 16.0107 200.876 16.0581 200.876 16.1057C200.876 16.2957 200.805 16.4144 200.663 16.4382C200.356 16.4857 200.096 16.5332 199.931 16.5807C199.766 16.6519 199.671 16.7469 199.671 16.9132C199.671 16.9607 199.671 17.0083 199.694 17.0794C199.718 17.127 199.742 17.1982 199.813 17.2695L202.151 20.8323L204.419 17.4832C204.537 17.317 204.608 17.1507 204.608 17.0083C204.608 16.7232 204.278 16.5332 203.64 16.4382C203.498 16.4144 203.427 16.2957 203.427 16.1057C203.427 16.0581 203.427 16.0344 203.427 15.9631C203.427 15.9156 203.451 15.8443 203.451 15.7969C203.828 15.8206 204.183 15.8444 204.514 15.8681C204.844 15.8919 205.128 15.8919 205.341 15.8919C205.671 15.8919 206.002 15.8919 206.356 15.8681C206.711 15.8444 207.017 15.8206 207.302 15.7969C207.325 15.8681 207.325 15.9156 207.325 15.9631C207.325 16.0107 207.325 16.0581 207.325 16.1057C207.325 16.2957 207.254 16.4144 207.089 16.4382C206.734 16.4857 206.451 16.5569 206.215 16.6519C205.978 16.7707 205.813 16.9132 205.671 17.127L202.624 21.6162L206.097 27.1029Z" fill="black"/>
</svg>
