<svg width="161" height="80" viewBox="0 0 161 80" fill="none" xmlns="http://www.w3.org/2000/svg">
<rect width="160" height="80" transform="translate(0.5)" fill="#E2E1DB"/>
<path fill-rule="evenodd" clip-rule="evenodd" d="M74.8965 15.9718H78.6034V9.6338V6H74.8965H70.3276C66.2759 6 63 9.21127 63 13.1831C63 17.1549 66.2759 20.3662 70.3276 20.3662H73.7759H74.8965H78.6034H82.3104H86.0172H86.9655H90.6724C94.7241 20.3662 98 17.1549 98 13.1831C98 9.21127 94.7241 6 90.6724 6H86.1035H82.3966V9.6338V15.9718H86.1035V9.6338H90.6724C92.7414 9.6338 94.3793 11.2394 94.3793 13.2676C94.3793 15.2958 92.7414 16.9014 90.6724 16.9014H86.9655H86.0172H82.3104H78.6034H74.8965H73.7759H70.3276C68.2586 16.9014 66.6207 15.2958 66.6207 13.2676C66.6207 11.2394 68.2586 9.6338 70.3276 9.6338H74.8965V15.9718ZM78.5173 21.3803V26.4507H82.2241V21.3803H85.931V28.2253V30H84.1207H76.7931H74.9828V28.2253V21.3803H78.5173Z" fill="#0E0F0F"/>
<path d="M23.5674 66.7344H21.9555V72.8205H22.851V71.3885H23.5674C25.1793 71.3885 26.2539 70.4935 26.2539 68.8824C26.0748 67.8084 25.1793 66.7344 23.5674 66.7344ZM23.5674 70.6725H22.851V67.6294H23.3883C24.8211 67.6294 25.0002 68.5244 25.0002 69.0614C25.1793 69.7774 25.0002 70.6725 23.5674 70.6725Z" fill="#0E0F0F"/>
<path d="M33.2383 72.8205L32.1637 71.0305C32.8801 70.6725 33.2383 69.9564 33.2383 69.0614C33.2383 67.8084 32.3428 66.7344 30.5518 66.7344H28.9399V72.8205H30.0145V71.3885H30.7309C30.91 71.3885 31.0891 71.3885 31.4473 71.3885L32.3428 72.8205H33.2383ZM29.8354 70.6725V67.6294H30.3727C31.8055 67.6294 32.1637 68.5244 32.1637 69.0614C32.1637 69.5984 31.9846 70.6725 30.5518 70.6725H29.8354Z" fill="#0E0F0F"/>
<path d="M36.1051 72.8205H37.1797V66.7344H36.1051V72.8205Z" fill="#0E0F0F"/>
<path d="M44.1631 66.7344L42.5512 71.5675L40.9393 66.7344H39.8647L42.0139 72.8205H42.9094L45.0586 66.7344H44.1631Z" fill="#0E0F0F"/>
<path d="M50.7906 72.8205H51.8652L49.716 66.7344H48.6414L46.4922 72.8205H47.5668L47.925 71.9255H50.6115L50.7906 72.8205ZM48.1041 71.2095L49.1787 68.1664L50.2533 71.2095H48.1041Z" fill="#0E0F0F"/>
<path d="M57.7754 66.7344H53.1188V67.6294H54.9098V72.8205H55.9844V67.6294H57.7754V66.7344Z" fill="#0E0F0F"/>
<path d="M64.4043 67.6294V66.7344H60.4641V72.8205H64.4043V71.9255H61.5387V70.1355H64.2252V69.2404H61.5387V67.6294H64.4043Z" fill="#0E0F0F"/>
<path d="M74.432 72.9989C75.8648 72.9989 76.5813 72.2829 76.9395 71.3878L76.044 71.0298C75.8649 71.3878 75.3276 72.1039 74.253 72.1039C73.3575 72.1039 72.2828 71.2088 72.2828 69.7768C72.2828 68.5238 73.1784 67.4497 74.253 67.4497C75.1485 67.4497 75.6857 67.9867 75.8648 68.5238L76.7603 67.9867C76.4021 67.2707 75.5067 66.5547 74.253 66.5547C72.462 66.5547 71.2082 67.9867 71.2082 69.7768C71.2082 71.5668 72.641 72.9989 74.432 72.9989Z" fill="#0E0F0F"/>
<path d="M82.3128 72.9989C84.1038 72.9989 85.3574 71.7458 85.3574 69.7768C85.3574 67.9867 84.1038 66.5547 82.3128 66.5547C80.5218 66.5547 79.268 67.9867 79.268 69.7768C79.268 71.7458 80.5218 72.9989 82.3128 72.9989ZM82.3128 72.1039C81.2382 72.1039 80.3426 71.2088 80.3426 69.7768C80.3426 68.3447 81.4173 67.4497 82.3128 67.4497C83.3874 67.4497 84.2828 68.3447 84.2828 69.7768C84.1037 71.3878 83.3874 72.1039 82.3128 72.1039Z" fill="#0E0F0F"/>
<path d="M88.9385 72.1052V66.9141H87.8639V73.0003H91.625V72.1052H88.9385Z" fill="#0E0F0F"/>
<path d="M95.3877 72.1052V66.9141H94.3131V73.0003H98.0742V72.1052H95.3877Z" fill="#0E0F0F"/>
<path d="M104.699 67.6294V66.7344H100.759V72.8205H104.699V71.9255H101.834V70.1355H104.52V69.2404H101.834V67.6294H104.699Z" fill="#0E0F0F"/>
<path d="M110.254 72.9989C111.687 72.9989 112.404 72.2829 112.762 71.3878L111.866 71.0298C111.687 71.3878 111.15 72.1039 110.075 72.1039C109.18 72.1039 108.105 71.2088 108.105 69.7768C108.105 68.5238 109.001 67.4497 110.075 67.4497C110.971 67.4497 111.508 67.9867 111.687 68.5238L112.583 67.9867C112.224 67.2707 111.329 66.5547 110.075 66.5547C108.284 66.5547 107.03 67.9867 107.03 69.7768C107.03 71.5668 108.463 72.9989 110.254 72.9989Z" fill="#0E0F0F"/>
<path d="M119.744 66.7344H115.088V67.6294H116.879V72.8205H117.953V67.6294H119.744V66.7344Z" fill="#0E0F0F"/>
<path d="M122.431 72.8205H123.506V66.7344H122.431V72.8205Z" fill="#0E0F0F"/>
<path d="M129.237 72.9989C131.028 72.9989 132.281 71.7458 132.281 69.7768C132.281 67.9867 131.028 66.5547 129.237 66.5547C127.446 66.5547 126.192 67.9867 126.192 69.7768C126.192 71.7458 127.446 72.9989 129.237 72.9989ZM129.237 72.1039C128.162 72.1039 127.266 71.2088 127.266 69.7768C127.266 68.3447 128.341 67.4497 129.237 67.4497C130.311 67.4497 131.207 68.3447 131.207 69.7768C131.207 71.3878 130.311 72.1039 129.237 72.1039Z" fill="#0E0F0F"/>
<path d="M138.729 66.7344V71.2095L136.043 66.7344H134.789V72.8205H135.864V68.3454L138.371 72.8205H139.625V66.7344H138.729Z" fill="#0E0F0F"/>
<path d="M21.7773 44.0045C21.7773 46.5106 19.6282 47.9427 15.688 47.9427H15.1507V52.9548H13.0015V40.0664H15.688C19.6282 40.0664 21.7773 41.4984 21.7773 44.0045ZM15.1507 47.0476H15.688C18.3745 47.0476 19.6282 45.9736 19.6282 44.0045C19.6282 42.0355 18.3745 40.9614 15.688 40.9614H15.1507V47.0476Z" fill="#0E0F0F"/>
<path d="M44.8828 46.3302C44.8828 49.9103 41.659 52.9534 38.077 52.9534C34.3159 52.9534 31.2713 49.9103 31.2713 46.3302C31.2713 42.7501 34.495 39.707 38.077 39.707C41.8381 39.707 44.8828 42.7501 44.8828 46.3302ZM33.4204 46.3302C33.4204 49.0153 35.0323 52.0584 38.077 52.0584C40.9426 52.0584 42.7336 49.1943 42.7336 46.3302C42.7336 43.1081 40.7635 40.6021 38.077 40.6021C35.0323 40.6021 33.4204 43.4661 33.4204 46.3302Z" fill="#0E0F0F"/>
<path d="M56.5217 39.8867H54.3725V52.7751H61.3574V50.985L56.5217 51.8801V39.8867Z" fill="#0E0F0F"/>
<path d="M76.0458 39.8867L81.0605 52.7751H78.9113L77.1203 48.1209H73.3593L71.7473 52.7751H70.8518L74.792 41.6768L74.0757 39.8867H76.0458ZM76.7622 47.2259L75.1503 42.9298L73.5383 47.2259H76.7622Z" fill="#0E0F0F"/>
<path d="M102.372 48.8363C101.477 50.4474 100.402 51.3424 98.7901 51.7004C95.9245 52.0584 93.5962 50.6264 92.7007 47.7623C92.1634 45.9722 92.3425 44.1822 93.0589 42.7501C93.5962 41.8551 94.4917 41.1391 95.5663 40.9601C97.7155 40.423 100.044 41.6761 101.297 43.8242L102.014 44.8982V41.3181L101.835 41.1391C101.297 40.6021 99.1483 39.707 97.1782 39.707C93.4171 39.707 90.1933 42.7501 90.1933 46.3302C90.1933 49.9103 93.238 52.9534 96.9991 52.9534C99.8647 52.9534 101.835 51.7004 103.088 49.1943L103.268 48.8363L102.551 48.4783L102.372 48.8363Z" fill="#0E0F0F"/>
<path d="M124.581 49.016C123.686 50.627 122.611 51.5221 120.999 51.8801C118.133 52.2381 115.805 50.806 114.91 47.942C114.372 46.1519 114.551 44.3618 115.268 42.9298C115.805 42.0348 116.701 41.3188 117.775 41.1398C119.924 40.6027 122.253 41.8558 123.507 44.0038L124.223 45.0779V41.4978L124.044 41.3187C123.506 40.7817 121.357 39.8867 119.387 39.8867C115.626 39.8867 112.402 42.9298 112.402 46.5099C112.402 50.09 115.447 53.1331 119.208 53.1331C122.074 53.1331 124.044 51.8801 125.298 49.374L125.477 49.016L124.76 48.658L124.581 49.016Z" fill="#0E0F0F"/>
<path d="M148.58 46.5099C148.58 50.09 145.356 53.1331 141.774 53.1331C138.013 53.1331 134.968 50.09 134.968 46.5099C134.968 42.9298 138.192 39.8867 141.774 39.8867C145.356 39.8867 148.58 42.9298 148.58 46.5099ZM136.939 46.5099C136.939 49.195 138.55 52.2381 141.595 52.2381C144.461 52.2381 146.252 49.374 146.252 46.5099C146.252 43.2878 144.282 40.7817 141.595 40.7817C138.55 40.7817 136.939 43.8248 136.939 46.5099Z" fill="#0E0F0F"/>
<path d="M141.594 61.3631H20.1645C19.9854 61.3631 19.9854 61.3631 19.9854 61.1841V60.4681C19.9854 60.2891 19.9854 60.2891 20.1645 60.2891H141.594C141.773 60.2891 141.773 60.2891 141.773 60.4681L141.594 61.3631Z" fill="#0E0F0F"/>
</svg>
