<svg width="66" height="66" viewBox="0 0 66 66" fill="none" xmlns="http://www.w3.org/2000/svg">
<path d="M13.75 27.2885C13.75 40.631 25.4223 51.6647 30.5888 55.895L30.5908 55.8967C31.3316 56.5033 31.7022 56.8067 32.2543 56.9621C32.6839 57.083 33.3157 57.083 33.7452 56.9621C34.2979 56.8065 34.6694 56.5027 35.4116 55.895C40.5781 51.6647 52.2499 40.6309 52.2499 27.2884C52.2499 22.2391 50.2219 17.3966 46.6118 13.8262C43.0017 10.2558 38.1055 8.25 33.0001 8.25C27.8947 8.25 22.9983 10.2558 19.3882 13.8262C15.7781 17.3966 13.75 22.2392 13.75 27.2885Z" fill="#70835B"/>
<path d="M26.3759 27.9938V36.9352C26.3759 37.0393 26.2883 37.125 26.1819 37.125H20.819C20.7126 37.125 20.625 37.0393 20.625 36.9352V27.9938C20.625 27.908 20.6876 27.8285 20.7752 27.8039L22.0267 27.5039C22.1144 27.4855 22.1769 27.4059 22.1769 27.314V18.7523C22.1769 18.6482 22.2645 18.5625 22.3709 18.5625H24.6237C24.7301 18.5625 24.8177 18.6482 24.8177 18.7523V27.3201C24.8177 27.4059 24.8803 27.4855 24.9679 27.51L26.2194 27.8101C26.3133 27.8285 26.3759 27.9019 26.3759 27.9938Z" fill="white"/>
<path d="M32.7082 27.9938V36.9352C32.7082 37.0393 32.6206 37.125 32.5142 37.125H27.1513C27.0449 37.125 26.9573 37.0393 26.9573 36.9352V27.9938C26.9573 27.908 27.0199 27.8285 27.1075 27.8039L28.359 27.5039C28.4466 27.4855 28.5092 27.4059 28.5092 27.314V18.7523C28.5092 18.6482 28.5968 18.5625 28.7032 18.5625H30.9685C31.0749 18.5625 31.1625 18.6482 31.1625 18.7523V27.3201C31.1625 27.4059 31.2251 27.4855 31.3127 27.51L32.5643 27.8101C32.6456 27.8285 32.7082 27.9019 32.7082 27.9938Z" fill="white"/>
<path d="M39.0407 27.9938V36.9352C39.0407 37.0393 38.9531 37.125 38.8467 37.125H33.4838C33.3774 37.125 33.2898 37.0393 33.2898 36.9352V27.9938C33.2898 27.908 33.3524 27.8285 33.44 27.8039L34.6915 27.5039C34.7791 27.4855 34.8417 27.4059 34.8417 27.314V18.7523C34.8417 18.6482 34.9293 18.5625 35.0357 18.5625H37.301C37.4074 18.5625 37.495 18.6482 37.495 18.7523V27.3201C37.495 27.4059 37.5576 27.4855 37.6452 27.51L38.8968 27.8101C38.9781 27.8285 39.0407 27.9019 39.0407 27.9938Z" fill="white"/>
<path d="M45.3764 27.9938V36.9352C45.3764 37.0393 45.2888 37.125 45.1824 37.125H39.8195C39.7131 37.125 39.6255 37.0393 39.6255 36.9352V27.9938C39.6255 27.908 39.688 27.8285 39.7757 27.8039L41.0272 27.5039C41.1148 27.4855 41.1774 27.4059 41.1774 27.314V18.7523C41.1774 18.6482 41.265 18.5625 41.3714 18.5625H43.6367C43.7431 18.5625 43.8307 18.6482 43.8307 18.7523V27.3201C43.8307 27.4059 43.8933 27.4855 43.9809 27.51L45.2325 27.8101C45.3138 27.8285 45.3764 27.9019 45.3764 27.9938Z" fill="white"/>
</svg>
