<svg width="44" height="44" viewBox="0 0 44 44" fill="none" xmlns="http://www.w3.org/2000/svg">
<rect width="44" height="44" rx="22" fill="#BEC9B7"/>
<path d="M28.4005 15.627C26.733 13.9243 24.4278 13 22.0736 13C17.0708 13 13.049 17.0378 13.0981 21.9514C13.0981 23.5081 13.5395 25.0162 14.2752 26.3784L13 31L17.7575 29.7838C19.0817 30.5135 20.5531 30.8541 22.0245 30.8541C26.9782 30.8541 31 26.8162 31 21.9027C31 19.5189 30.0681 17.2811 28.4005 15.627ZM22.0736 29.3459C20.7493 29.3459 19.4251 29.0054 18.297 28.3243L18.0027 28.1784L15.158 28.9081L15.8937 26.1351L15.6975 25.8432C13.5395 22.3892 14.5695 17.8162 18.1008 15.6757C21.6322 13.5351 26.1935 14.5568 28.3515 18.0595C30.5095 21.5622 29.4796 26.0865 25.9482 28.227C24.8202 28.9568 23.4469 29.3459 22.0736 29.3459ZM26.3896 23.9459L25.8501 23.7027C25.8501 23.7027 25.0654 23.3622 24.5749 23.1189C24.5259 23.1189 24.4768 23.0703 24.4278 23.0703C24.2807 23.0703 24.1826 23.1189 24.0845 23.1676C24.0845 23.1676 24.0354 23.2162 23.3488 23.9946C23.2997 24.0919 23.2016 24.1405 23.1035 24.1405H23.0545C23.0054 24.1405 22.9074 24.0919 22.8583 24.0432L22.6131 23.9459C22.0736 23.7027 21.5831 23.4108 21.1907 23.0216C21.0926 22.9243 20.9455 22.827 20.8474 22.7297C20.5041 22.3892 20.1608 22 19.9155 21.5622L19.8665 21.4649C19.8174 21.4162 19.8174 21.3676 19.7684 21.2703C19.7684 21.173 19.7684 21.0757 19.8174 21.027C19.8174 21.027 20.0136 20.7838 20.1608 20.6378C20.2589 20.5405 20.3079 20.3946 20.406 20.2973C20.5041 20.1514 20.5531 19.9568 20.5041 19.8108C20.455 19.5676 19.8665 18.2541 19.7193 17.9622C19.6213 17.8162 19.5232 17.7676 19.376 17.7189H19.2289C19.1308 17.7189 18.9837 17.7189 18.8365 17.7189C18.7384 17.7189 18.6403 17.7676 18.5422 17.7676L18.4932 17.8162C18.3951 17.8649 18.297 17.9622 18.1989 18.0108C18.1008 18.1081 18.0518 18.2054 17.9537 18.3027C17.6104 18.7405 17.4142 19.2757 17.4142 19.8108C17.4142 20.2 17.5123 20.5892 17.6594 20.9297L17.7084 21.0757C18.1499 22 18.7384 22.827 19.5232 23.5568L19.7193 23.7514C19.8665 23.8973 20.0136 23.9946 20.1117 24.1405C21.1417 25.0162 22.3188 25.6486 23.6431 25.9892C23.7902 26.0378 23.9864 26.0378 24.1335 26.0865C24.2807 26.0865 24.4768 26.0865 24.624 26.0865C24.8692 26.0865 25.1635 25.9892 25.3597 25.8919C25.5068 25.7946 25.6049 25.7946 25.703 25.6973L25.8011 25.6C25.8992 25.5027 25.9973 25.4541 26.0954 25.3568C26.1935 25.2595 26.2916 25.1622 26.3406 25.0649C26.4387 24.8703 26.4877 24.627 26.5368 24.3838C26.5368 24.2865 26.5368 24.1405 26.5368 24.0432C26.5368 24.0432 26.4877 23.9946 26.3896 23.9459Z" fill="black"/>
</svg>
