<svg aria-hidden="true" xmlns="http://www.w3.org/2000/svg" xmlns:xlink="http://www.w3.org/1999/xlink"><symbol viewBox="0 0 13 14" fill="none" id="icon-arrow" xmlns="http://www.w3.org/2000/svg">
<g clip-path="url(#aclip0_4701_586)">
<path fill-rule="evenodd" clip-rule="evenodd" d="M9.50001 7.00001C9.50001 7.27615 9.27615 7.50001 9 7.50001H4.00001C3.72386 7.50001 3.5 7.27615 3.5 7.00001C3.5 6.72386 3.72386 6.5 4.00001 6.5H9C9.27615 6.5 9.50001 6.72386 9.50001 7.00001Z" fill="currentColor"/>
<path fill-rule="evenodd" clip-rule="evenodd" d="M6.14644 9.85355C5.95118 9.65829 5.95118 9.34171 6.14644 9.14645L8.29289 7L6.14644 4.85355C5.95118 4.65829 5.95118 4.3417 6.14644 4.14644C6.3417 3.95118 6.65829 3.95118 6.85355 4.14644L9.35356 6.64645C9.54882 6.84171 9.54882 7.1583 9.35356 7.35356L6.85355 9.85355C6.65829 10.0488 6.3417 10.0488 6.14644 9.85355Z" fill="currentColor"/>
<path fill-rule="evenodd" clip-rule="evenodd" d="M6.5 12.5C9.53757 12.5 12 10.0376 12 7C12 3.96243 9.53757 1.5 6.5 1.5C3.46243 1.5 1 3.96243 1 7C1 10.0376 3.46243 12.5 6.5 12.5ZM6.5 13.5C10.0898 13.5 13 10.5898 13 7C13 3.41015 10.0898 0.5 6.5 0.5C2.91015 0.5 0 3.41015 0 7C0 10.5898 2.91015 13.5 6.5 13.5Z" fill="currentColor"/>
</g>
<defs>
<clipPath id="aclip0_4701_586">
<rect width="13" height="13" fill="currentColor" transform="translate(0 0.5)"/>
</clipPath>
</defs>
</symbol><symbol viewBox="0 0 24 24" fill="none" id="icon-burger" xmlns="http://www.w3.org/2000/svg">
<path d="M3 4.5H21" stroke="currentColor" stroke-width="1.5" stroke-linecap="round" stroke-linejoin="round"/>
<path d="M3 9.5H12.47" stroke="currentColor" stroke-width="1.5" stroke-linecap="round" stroke-linejoin="round"/>
<path d="M3 14.5H21" stroke="currentColor" stroke-width="1.5" stroke-linecap="round" stroke-linejoin="round"/>
<path d="M3 19.5H12.47" stroke="currentColor" stroke-width="1.5" stroke-linecap="round" stroke-linejoin="round"/>
</symbol><symbol viewBox="0 0 20 20" fill="none" id="icon-clock" xmlns="http://www.w3.org/2000/svg">
<path d="M9.9987 6.66536V9.9987L7.91536 11.2487M16.6654 9.9987C16.6654 13.6806 13.6806 16.6654 9.9987 16.6654C6.3168 16.6654 3.33203 13.6806 3.33203 9.9987C3.33203 6.3168 6.3168 3.33203 9.9987 3.33203C13.6806 3.33203 16.6654 6.3168 16.6654 9.9987Z" stroke="currentColor" stroke-linecap="round" stroke-linejoin="round"/>
</symbol><symbol viewBox="0 0 24 24" fill="none" id="icon-close" xmlns="http://www.w3.org/2000/svg">
<path d="M21 21L3 3M21.0001 3L3 21.0001" stroke="currentColor" stroke-width="2" stroke-linecap="round" stroke-linejoin="round"/>
</symbol><symbol viewBox="0 0 13 14" fill="none" id="icon-close-circle" xmlns="http://www.w3.org/2000/svg">
<path fill-rule="evenodd" clip-rule="evenodd" d="M6.50001 1.50302C3.4641 1.50301 1.00301 3.96411 1.00302 7.00001C1.00301 10.0359 3.46409 12.497 6.49999 12.497C9.5359 12.497 11.997 10.0359 11.997 6.99999C11.997 3.96409 9.53591 1.50301 6.50001 1.50302ZM6.49999 13.5C2.91016 13.5 1.26047e-05 10.5898 0 7.00001C1.16709e-06 3.41015 2.91015 0.500001 6.50001 0.5C10.0899 0.499995 13 3.41014 13 6.99999C13 10.5899 10.0899 13.5 6.49999 13.5ZM8.47932 8.97992C8.28347 9.17577 7.96593 9.17576 7.77007 8.97991L6.4997 7.70953L5.22928 8.97995C5.03343 9.1758 4.7159 9.1758 4.52005 8.97995C4.3242 8.7841 4.3242 8.46657 4.52005 8.27072L5.79047 7.0003L4.52009 5.72992C4.32423 5.53407 4.32423 5.21653 4.52008 5.02068C4.71594 4.82482 5.03348 4.82483 5.22933 5.02068L6.49971 6.29106L7.77012 5.02065C7.96598 4.82479 8.28351 4.82479 8.47936 5.02064C8.67521 5.21649 8.67521 5.53402 8.47935 5.72988L7.20894 7.00029L8.47932 8.27067C8.67517 8.46652 8.67518 8.78406 8.47932 8.97992Z" fill="currentColor"/>
</symbol><symbol viewBox="0 0 24 24" fill="none" id="icon-inst" xmlns="http://www.w3.org/2000/svg">
<path d="M12 2.16094C15.2063 2.16094 15.5859 2.175 16.8469 2.23125C18.0188 2.28281 18.6516 2.47969 19.0734 2.64375C19.6313 2.85938 20.0344 3.12188 20.4516 3.53906C20.8734 3.96094 21.1313 4.35938 21.3469 4.91719C21.5109 5.33906 21.7078 5.97656 21.7594 7.14375C21.8156 8.40937 21.8297 8.78906 21.8297 11.9906C21.8297 15.1969 21.8156 15.5766 21.7594 16.8375C21.7078 18.0094 21.5109 18.6422 21.3469 19.0641C21.1313 19.6219 20.8687 20.025 20.4516 20.4422C20.0297 20.8641 19.6313 21.1219 19.0734 21.3375C18.6516 21.5016 18.0141 21.6984 16.8469 21.75C15.5813 21.8062 15.2016 21.8203 12 21.8203C8.79375 21.8203 8.41406 21.8062 7.15313 21.75C5.98125 21.6984 5.34844 21.5016 4.92656 21.3375C4.36875 21.1219 3.96563 20.8594 3.54844 20.4422C3.12656 20.0203 2.86875 19.6219 2.65313 19.0641C2.48906 18.6422 2.29219 18.0047 2.24063 16.8375C2.18438 15.5719 2.17031 15.1922 2.17031 11.9906C2.17031 8.78438 2.18438 8.40469 2.24063 7.14375C2.29219 5.97187 2.48906 5.33906 2.65313 4.91719C2.86875 4.35938 3.13125 3.95625 3.54844 3.53906C3.97031 3.11719 4.36875 2.85938 4.92656 2.64375C5.34844 2.47969 5.98594 2.28281 7.15313 2.23125C8.41406 2.175 8.79375 2.16094 12 2.16094ZM12 0C8.74219 0 8.33438 0.0140625 7.05469 0.0703125C5.77969 0.126563 4.90313 0.332812 4.14375 0.628125C3.35156 0.9375 2.68125 1.34531 2.01563 2.01562C1.34531 2.68125 0.9375 3.35156 0.628125 4.13906C0.332812 4.90313 0.126563 5.775 0.0703125 7.05C0.0140625 8.33437 0 8.74219 0 12C0 15.2578 0.0140625 15.6656 0.0703125 16.9453C0.126563 18.2203 0.332812 19.0969 0.628125 19.8563C0.9375 20.6484 1.34531 21.3188 2.01563 21.9844C2.68125 22.65 3.35156 23.0625 4.13906 23.3672C4.90313 23.6625 5.775 23.8687 7.05 23.925C8.32969 23.9812 8.7375 23.9953 11.9953 23.9953C15.2531 23.9953 15.6609 23.9812 16.9406 23.925C18.2156 23.8687 19.0922 23.6625 19.8516 23.3672C20.6391 23.0625 21.3094 22.65 21.975 21.9844C22.6406 21.3188 23.0531 20.6484 23.3578 19.8609C23.6531 19.0969 23.8594 18.225 23.9156 16.95C23.9719 15.6703 23.9859 15.2625 23.9859 12.0047C23.9859 8.74688 23.9719 8.33906 23.9156 7.05938C23.8594 5.78438 23.6531 4.90781 23.3578 4.14844C23.0625 3.35156 22.6547 2.68125 21.9844 2.01562C21.3188 1.35 20.6484 0.9375 19.8609 0.632812C19.0969 0.3375 18.225 0.13125 16.95 0.075C15.6656 0.0140625 15.2578 0 12 0Z" fill="currentColor"/>
<path d="M12 5.83594C8.59688 5.83594 5.83594 8.59688 5.83594 12C5.83594 15.4031 8.59688 18.1641 12 18.1641C15.4031 18.1641 18.1641 15.4031 18.1641 12C18.1641 8.59688 15.4031 5.83594 12 5.83594ZM12 15.9984C9.79219 15.9984 8.00156 14.2078 8.00156 12C8.00156 9.79219 9.79219 8.00156 12 8.00156C14.2078 8.00156 15.9984 9.79219 15.9984 12C15.9984 14.2078 14.2078 15.9984 12 15.9984Z" fill="currentColor"/>
<path d="M19.8469 5.59141C19.8469 6.38828 19.2 7.03047 18.4078 7.03047C17.6109 7.03047 16.9688 6.3836 16.9688 5.59141C16.9688 4.79453 17.6156 4.15234 18.4078 4.15234C19.2 4.15234 19.8469 4.79922 19.8469 5.59141Z" fill="currentColor"/>
</symbol><symbol viewBox="0 0 20 20" fill="none" id="icon-location" xmlns="http://www.w3.org/2000/svg">
<path d="M10.0013 17.5C12.918 14.5 15.8346 11.8137 15.8346 8.5C15.8346 5.18629 13.223 2.5 10.0013 2.5C6.77964 2.5 4.16797 5.18629 4.16797 8.5C4.16797 11.8137 7.08464 14.5 10.0013 17.5Z" stroke="currentColor" stroke-linecap="round" stroke-linejoin="round"/>
<path d="M10.0013 10.8333C11.382 10.8333 12.5013 9.71404 12.5013 8.33333C12.5013 6.95262 11.382 5.83333 10.0013 5.83333C8.62059 5.83333 7.5013 6.95262 7.5013 8.33333C7.5013 9.71404 8.62059 10.8333 10.0013 10.8333Z" stroke="currentColor" stroke-linecap="round" stroke-linejoin="round"/>
</symbol><symbol viewBox="0 0 20 20" fill="none" id="icon-message" xmlns="http://www.w3.org/2000/svg">
<path d="M13.334 7.5V12.5M10.0007 9.16667C10.0007 9.16667 10.0007 11.1983 10.0007 12.5M6.66732 10.8333V12.5M17.5039 10C17.5039 14.1421 14.146 17.5 10.0039 17.5C8.3069 17.5 2.50451 17.5 2.50451 17.5C2.50451 17.5 3.80384 14.3801 3.28383 13.334C2.78462 12.3297 2.50391 11.1976 2.50391 10C2.50391 5.85786 5.86177 2.5 10.0039 2.5C14.146 2.5 17.5039 5.85786 17.5039 10Z" stroke="currentColor" stroke-linecap="round" stroke-linejoin="round"/>
</symbol><symbol viewBox="0 0 24 24" fill="none" id="icon-tel" xmlns="http://www.w3.org/2000/svg">
<path d="M17.45 22.75C16.32 22.75 15.13 22.48 13.9 21.96C12.7 21.45 11.49 20.75 10.31 19.9C9.14 19.04 8.01 18.08 6.94 17.03C5.88 15.96 4.92 14.83 4.07 13.67C3.21 12.47 2.52 11.27 2.03 10.11C1.51 8.87 1.25 7.67 1.25 6.54C1.25 5.76 1.39 5.02 1.66 4.33C1.94 3.62 2.39 2.96 3 2.39C3.77 1.63 4.65 1.25 5.59 1.25C5.98 1.25 6.38 1.34 6.72 1.5C7.11 1.68 7.44 1.95 7.68 2.31L10 5.58C10.21 5.87 10.37 6.15 10.48 6.43C10.61 6.73 10.68 7.03 10.68 7.32C10.68 7.7 10.57 8.07 10.36 8.42C10.21 8.69 9.98 8.98 9.69 9.27L9.01 9.98C9.02 10.01 9.03 10.03 9.04 10.05C9.16 10.26 9.4 10.62 9.86 11.16C10.35 11.72 10.81 12.23 11.27 12.7C11.86 13.28 12.35 13.74 12.81 14.12C13.38 14.6 13.75 14.84 13.97 14.95L13.95 15L14.68 14.28C14.99 13.97 15.29 13.74 15.58 13.59C16.13 13.25 16.83 13.19 17.53 13.48C17.79 13.59 18.07 13.74 18.37 13.95L21.69 16.31C22.06 16.56 22.33 16.88 22.49 17.26C22.64 17.64 22.71 17.99 22.71 18.34C22.71 18.82 22.6 19.3 22.39 19.75C22.18 20.2 21.92 20.59 21.59 20.95C21.02 21.58 20.4 22.03 19.68 22.32C18.99 22.6 18.24 22.75 17.45 22.75ZM5.59 2.75C5.04 2.75 4.53 2.99 4.04 3.47C3.58 3.9 3.26 4.37 3.06 4.88C2.85 5.4 2.75 5.95 2.75 6.54C2.75 7.47 2.97 8.48 3.41 9.52C3.86 10.58 4.49 11.68 5.29 12.78C6.09 13.88 7 14.95 8 15.96C9 16.95 10.08 17.87 11.19 18.68C12.27 19.47 13.38 20.11 14.48 20.57C16.19 21.3 17.79 21.47 19.11 20.92C19.62 20.71 20.07 20.39 20.48 19.93C20.71 19.68 20.89 19.41 21.04 19.09C21.16 18.84 21.22 18.58 21.22 18.32C21.22 18.16 21.19 18 21.11 17.82C21.08 17.76 21.02 17.65 20.83 17.52L17.51 15.16C17.31 15.02 17.13 14.92 16.96 14.85C16.74 14.76 16.65 14.67 16.31 14.88C16.11 14.98 15.93 15.13 15.73 15.33L14.97 16.08C14.58 16.46 13.98 16.55 13.52 16.38L13.25 16.26C12.84 16.04 12.36 15.7 11.83 15.25C11.35 14.84 10.83 14.36 10.2 13.74C9.71 13.24 9.22 12.71 8.71 12.12C8.24 11.57 7.9 11.1 7.69 10.71L7.57 10.41C7.51 10.18 7.49 10.05 7.49 9.91C7.49 9.55 7.62 9.23 7.87 8.98L8.62 8.2C8.82 8 8.97 7.81 9.07 7.64C9.15 7.51 9.18 7.4 9.18 7.3C9.18 7.22 9.15 7.1 9.1 6.98C9.03 6.82 8.92 6.64 8.78 6.45L6.46 3.17C6.36 3.03 6.24 2.93 6.09 2.86C5.93 2.79 5.76 2.75 5.59 2.75ZM13.95 15.01L13.79 15.69L14.06 14.99C14.01 14.98 13.97 14.99 13.95 15.01Z" fill="currentColor"/>
</symbol><symbol viewBox="0 0 20 20" fill="none" id="icon-tel-flip" xmlns="http://www.w3.org/2000/svg">
<path d="M15.5023 10.6069L12.9702 7.57344C12.7135 7.24345 12.5852 7.07844 12.5179 6.89339C12.4584 6.72965 12.4338 6.55527 12.4456 6.38145C12.459 6.18501 12.5366 5.99093 12.6919 5.60278L13.2842 4.12216C13.5139 3.54773 13.6288 3.26052 13.827 3.07226C14.0016 2.90637 14.2205 2.79447 14.4572 2.75002C14.7259 2.69958 15.026 2.7746 15.6262 2.92466L17.2656 3.33457C17.2656 11.6679 11.4325 17.5012 3.09896 17.5012L2.68927 15.8616C2.53922 15.2614 2.46419 14.9613 2.51464 14.6926C2.55909 14.4559 2.67099 14.237 2.83687 14.0624C3.02513 13.8642 3.31235 13.7493 3.88677 13.5195L5.20806 12.991C5.65088 12.8139 5.8723 12.7253 6.09306 12.7185C6.28817 12.7125 6.48197 12.7523 6.65894 12.8347C6.85918 12.9279 7.0278 13.0965 7.36505 13.4338L9.93701 15.9653" stroke="currentColor" stroke-linecap="round" stroke-linejoin="round"/>
</symbol><symbol viewBox="0 0 20 20" fill="none" id="icon-users" xmlns="http://www.w3.org/2000/svg">
<path d="M17.5 16.6679C17.5 15.2166 16.1087 13.9818 14.1667 13.5243M12.5 16.668C12.5 14.827 10.2614 13.3346 7.5 13.3346C4.73858 13.3346 2.5 14.827 2.5 16.668M12.5 10.8346C14.3409 10.8346 15.8333 9.34225 15.8333 7.5013C15.8333 5.66035 14.3409 4.16797 12.5 4.16797M7.5 10.8346C5.65905 10.8346 4.16667 9.34225 4.16667 7.5013C4.16667 5.66035 5.65905 4.16797 7.5 4.16797C9.34095 4.16797 10.8333 5.66035 10.8333 7.5013C10.8333 9.34225 9.34095 10.8346 7.5 10.8346Z" stroke="currentColor" stroke-linecap="round" stroke-linejoin="round"/>
</symbol></svg>