<svg width="20" height="20" viewBox="0 0 20 20" fill="none" xmlns="http://www.w3.org/2000/svg">
<g clip-path="url(#clip0_4708_10258)">
<path fill-rule="evenodd" clip-rule="evenodd" d="M14.3457 10C14.3457 9.7239 14.1219 9.5 13.8457 9.5L6.15339 9.5C5.87729 9.5 5.65339 9.7239 5.65339 10C5.65339 10.2761 5.87729 10.5 6.15339 10.5L13.8457 10.5C14.1219 10.5 14.3457 10.2761 14.3457 10Z" fill="black"/>
<path fill-rule="evenodd" clip-rule="evenodd" d="M9.64596 5.80184C9.45076 5.99704 9.45076 6.31364 9.64596 6.50894L13.1386 10.0015L9.64596 13.4941C9.45076 13.6894 9.45076 14.006 9.64596 14.2012C9.84126 14.3965 10.1578 14.3965 10.3531 14.2012L14.1993 10.3551C14.3945 10.1598 14.3945 9.84324 14.1993 9.64794L10.3531 5.80184C10.1578 5.60654 9.84126 5.60654 9.64596 5.80184Z" fill="black"/>
<path fill-rule="evenodd" clip-rule="evenodd" d="M10 0.999997C14.9706 0.999997 19 5.0294 19 10C19 14.9706 14.9706 19 10 19C5.0294 19 1 14.9706 0.999999 10C0.999999 5.0294 5.0294 0.999997 10 0.999997ZM10 -2.94047e-06C15.5228 -3.42329e-06 20 4.4772 20 10C20 15.5228 15.5229 20 10 20C4.4772 20 -3.91405e-07 15.5229 -8.74228e-07 10C-1.35705e-06 4.4772 4.4772 -2.45765e-06 10 -2.94047e-06Z" fill="black"/>
</g>
<defs>
<clipPath id="clip0_4708_10258">
<rect width="20" height="20" fill="white" transform="translate(20 20) rotate(180)"/>
</clipPath>
</defs>
</svg>
