<svg width="393" height="62" viewBox="0 0 393 62" fill="none" xmlns="http://www.w3.org/2000/svg">
<g clip-path="url(#clip0_1245_2571)">
<path d="M31.5623 45.6224C31.5623 46.3906 31.763 46.8794 32.2326 47.1586C32.7022 47.4379 33.6414 47.7172 35.0503 47.9964C35.3854 48.0664 35.5881 48.2757 35.5881 48.7647C35.5881 48.9042 35.5881 49.0439 35.5881 49.2534C35.5881 49.393 35.5199 49.6025 35.5199 49.812C34.6489 49.7422 33.5752 49.6722 32.367 49.6025C31.1589 49.5327 30.0189 49.5327 29.0797 49.5327C28.0742 49.5327 27.0005 49.5327 25.8586 49.6025C24.7187 49.6722 23.645 49.7422 22.5713 49.812C22.5051 49.6025 22.505 49.4627 22.505 49.2534C22.505 49.1137 22.505 48.9042 22.505 48.7647C22.505 48.2757 22.7057 47.9964 23.0409 47.9964C24.3835 47.7172 25.2565 47.4379 25.7924 47.1586C26.3282 46.8794 26.5309 46.3206 26.5309 45.6224V32.0765H9.55642V45.6224C9.55642 46.3906 9.75912 46.8794 10.2287 47.1586C10.6984 47.4379 11.6376 47.7172 13.0464 47.9964C13.4478 48.0664 13.6485 48.3457 13.6485 48.7647C13.6485 48.9042 13.6485 49.0439 13.6485 49.2534C13.6485 49.393 13.5823 49.6025 13.5823 49.812C12.6431 49.7422 11.5694 49.6722 10.3612 49.6025C9.15504 49.5327 8.0131 49.5327 7.07387 49.5327C6.0684 49.5327 4.9947 49.5327 3.921 49.6025C2.8473 49.6722 1.70736 49.7422 0.567034 49.812C0.500003 49.6025 0.5 49.4627 0.5 49.2534C0.5 49.1137 0.5 48.9042 0.5 48.7647C0.5 48.2757 0.701299 47.9964 1.03666 47.9964C2.37768 47.7172 3.31691 47.4379 3.85476 47.1586C4.32438 46.8794 4.59332 46.3206 4.59332 45.6224V17.1343C4.59332 16.3661 4.39062 15.8773 3.921 15.5981C3.51962 15.3188 2.58038 14.9698 1.10369 14.6903C0.768333 14.6206 0.567034 14.3413 0.567034 13.7828C0.567034 13.643 0.567034 13.5035 0.567034 13.3638C0.567034 13.224 0.634068 13.0145 0.634068 12.875C1.50668 12.9448 2.58038 13.0145 3.78654 13.0845C4.9947 13.1543 6.06839 13.1543 7.00763 13.1543C8.01309 13.1543 9.08679 13.1543 10.1605 13.0845C11.3004 13.0145 12.3741 12.9448 13.4478 12.875C13.5161 13.0845 13.5161 13.224 13.5161 13.3638C13.5161 13.5035 13.5161 13.643 13.5161 13.7828C13.5161 14.3413 13.3134 14.6206 12.9782 14.6903C11.5694 14.8998 10.6301 15.1791 10.2287 15.5283C9.75912 15.8773 9.55642 16.4361 9.55642 17.1343V29.7027H26.4627V17.1343C26.4627 16.5058 26.262 16.0171 25.7924 15.5981C25.389 15.1791 24.4498 14.8998 23.0409 14.6903C22.6395 14.6206 22.4388 14.3413 22.4388 13.7828C22.4388 13.643 22.4388 13.5035 22.4388 13.3638C22.4388 13.224 22.505 13.0145 22.505 12.875C23.3781 12.9448 24.4497 13.0145 25.6579 13.0845C26.8661 13.1543 27.9398 13.1543 28.9452 13.1543C29.9527 13.1543 31.0264 13.1543 32.0981 13.0845C33.1718 13.0145 34.3137 12.9448 35.3854 12.875C35.4537 13.0845 35.4537 13.224 35.4537 13.3638C35.4537 13.5035 35.4537 13.643 35.4537 13.7828C35.4537 14.3413 35.253 14.6206 34.9158 14.6903C33.507 14.8998 32.5677 15.1791 32.1663 15.5283C31.6967 15.8773 31.496 16.4361 31.496 17.1343V45.6224H31.5623Z" fill="black"/>
<path d="M61.221 36.1924H49.2116L45.7898 45.1996C45.5891 45.6884 45.5208 46.0376 45.5208 46.3169C45.5208 47.0849 46.5945 47.6434 48.8082 47.9927C49.0771 48.0624 49.2116 48.1322 49.346 48.2719C49.4123 48.4117 49.4785 48.621 49.4785 48.8305C49.4785 48.9702 49.4785 49.1097 49.4785 49.2495C49.4785 49.3892 49.4122 49.5985 49.4122 49.7382C48.473 49.6685 47.3993 49.5985 46.3256 49.5287C45.2519 49.459 44.1802 49.459 43.1728 49.459C42.4342 49.459 41.6977 49.459 40.9591 49.5287C40.2206 49.5985 39.4158 49.6685 38.611 49.7382C38.5448 49.389 38.4766 49.04 38.4766 48.8305C38.4766 48.5512 38.5448 48.3417 38.611 48.1322C38.6773 47.9227 38.88 47.8529 39.1469 47.7832C40.2888 47.5737 41.0936 47.3642 41.6294 47.0849C42.1673 46.8056 42.5687 46.3867 42.8376 45.7584L55.7862 13.29C56.0551 12.6615 56.3903 12.3125 56.7917 12.3125C56.8599 12.3125 57.0606 12.3823 57.464 12.4522L70.4789 45.9677C70.6796 46.5264 71.1492 46.8754 71.954 47.2246C72.6925 47.5039 73.431 47.7134 74.1676 47.8529C74.3703 47.9227 74.571 48.0624 74.7054 48.1322C74.8399 48.2719 74.9061 48.4814 74.9061 48.8305C74.9061 48.9702 74.9061 49.1097 74.9061 49.2495C74.9061 49.3892 74.8399 49.5985 74.8399 49.7382C73.6979 49.6685 72.558 49.5985 71.4181 49.5287C70.2761 49.459 69.2707 49.459 68.2652 49.459C67.2577 49.459 66.1178 49.459 64.8435 49.5287C63.5691 49.5985 62.3609 49.6685 61.3534 49.7382C61.2872 49.5287 61.2872 49.3892 61.2872 49.2495C61.2872 49.1097 61.2872 48.9702 61.2872 48.8305C61.2872 48.4814 61.3534 48.2719 61.4879 48.1322C61.6223 47.9927 61.7568 47.9227 61.823 47.9227C62.7623 47.7134 63.5008 47.5039 64.1049 47.2944C64.709 47.0849 64.9779 46.6659 64.9779 46.1772C64.9779 45.8979 64.9097 45.6186 64.7752 45.3394L61.221 36.1924ZM60.3479 33.8881L55.3166 20.2027L50.0826 33.8881H60.3479Z" fill="black"/>
<path d="M115.092 19.4361C114.287 19.4361 113.617 19.6454 113.079 20.0644C112.543 20.4834 112.139 21.0419 111.738 21.7402C111.335 22.4384 110.999 23.2065 110.664 24.0445C110.329 24.8823 109.926 25.79 109.522 26.6278C109.053 27.5356 108.517 28.3036 107.913 29.1416C107.243 29.9096 106.438 30.6079 105.364 31.1664V31.3062C106.57 31.5157 107.578 31.8647 108.451 32.2837C109.322 32.7025 110.06 33.1915 110.664 33.6802C111.268 34.169 111.804 34.7973 112.274 35.4258C112.744 36.0541 113.147 36.8223 113.548 37.6601C113.952 38.4981 114.353 39.4756 114.756 40.6624C115.158 41.7797 115.627 43.1065 116.097 44.5728C116.3 45.271 116.567 45.8296 116.769 46.2486C117.036 46.6673 117.305 47.0166 117.574 47.2958C117.909 47.5751 118.178 47.7148 118.513 47.8544C118.849 47.9941 119.184 48.0639 119.519 48.2036C119.854 48.2734 119.988 48.5526 119.988 48.9716C119.988 49.1114 119.988 49.2509 119.988 49.4604C119.988 49.5999 119.922 49.8094 119.922 50.0189C119.117 49.9492 118.244 49.8794 117.44 49.8094C116.635 49.7397 115.83 49.7397 115.092 49.7397C114.353 49.7397 113.683 49.6699 113.213 49.5302C112.677 49.3906 112.274 49.1811 111.939 48.8319C111.604 48.4829 111.335 48.1336 111.134 47.7148C110.931 47.2958 110.799 46.7373 110.596 46.1786C109.926 43.4555 109.256 41.2909 108.718 39.6152C108.114 37.9394 107.377 36.6128 106.57 35.5653C106.101 35.0068 105.631 34.518 105.095 34.169C104.559 33.8198 104.021 33.5405 103.417 33.331C102.813 33.1215 102.077 32.982 101.272 32.912C100.465 32.8422 99.5942 32.7725 98.5867 32.7725H97.9164V45.6898C97.9164 46.4578 98.1171 46.9468 98.5867 47.2261C99.0564 47.5053 99.8631 47.7846 101.069 48.0639C101.272 48.1336 101.404 48.2036 101.473 48.2734C101.607 48.4131 101.607 48.6224 101.607 48.9019C101.607 49.0414 101.607 49.1811 101.607 49.3207C101.607 49.4604 101.539 49.6699 101.539 49.8094C100.399 49.7397 99.3253 49.6699 98.2516 49.6001C97.1779 49.5302 96.2386 49.5302 95.3676 49.5302C94.4284 49.5302 93.3547 49.5302 92.2148 49.6001C91.0728 49.6699 89.9329 49.7397 88.8592 49.8094C88.793 49.5999 88.793 49.4604 88.793 49.3207C88.793 49.1811 88.793 49.0414 88.793 48.9019C88.793 48.3431 88.9937 48.0639 89.3288 47.9941C90.6714 47.7148 91.6107 47.4356 92.1465 47.1561C92.6162 46.8768 92.8851 46.3881 92.8851 45.6201V17.1318C92.8851 16.3638 92.6162 15.875 92.1465 15.5258C91.6107 15.1768 90.7377 14.9673 89.3288 14.688C88.9937 14.6182 88.793 14.339 88.793 13.7105C88.793 13.5707 88.793 13.501 88.793 13.2915C88.793 13.1519 88.8592 12.9424 88.8592 12.8027C89.8667 12.8725 91.0066 12.9424 92.2148 13.0122C93.4209 13.082 94.4284 13.082 95.3676 13.082C96.3069 13.082 97.3123 13.082 98.5205 13.0122C99.6604 12.9424 100.802 12.8725 101.942 12.8027C102.009 13.0122 102.009 13.1519 102.009 13.2915C102.009 13.4312 102.009 13.5707 102.009 13.7105C102.009 14.339 101.808 14.6182 101.473 14.688C100.13 14.8975 99.1908 15.1768 98.655 15.5258C98.1171 15.875 97.9164 16.3638 97.9164 17.1318V30.5381H98.9901C101.204 30.5381 102.882 30.1191 104.156 29.2114C105.43 28.3036 106.438 27.1866 107.174 25.8598C107.913 24.5332 108.517 23.0669 108.987 21.5307C109.456 19.9946 109.926 18.5283 110.53 17.2016C111.134 15.875 111.871 14.7578 112.744 13.85C113.683 12.9424 114.957 12.5234 116.635 12.5234C117.036 12.5234 117.44 12.5932 117.775 12.6632C118.178 12.7329 118.445 12.8725 118.58 12.9424C118.849 13.1519 118.983 13.5707 118.983 14.1992C118.983 14.688 118.915 15.3165 118.782 15.9448C118.648 16.5733 118.445 17.2016 118.244 17.7603C118.044 18.3188 117.775 18.8076 117.44 19.1566C117.171 19.5756 116.836 19.7154 116.5 19.7154C116.232 19.7154 115.965 19.6454 115.83 19.5756C115.83 19.5059 115.495 19.4361 115.092 19.4361Z" fill="black"/>
<path d="M144.474 15.3735H135.082C135.082 17.9571 135.082 20.6104 135.013 23.3335C134.947 25.9868 134.813 28.6401 134.544 31.2237C134.277 33.807 133.94 36.2508 133.47 38.5551C133.001 40.8592 132.33 42.954 131.459 44.8393C130.652 46.5848 129.781 47.9116 128.842 48.8191C127.903 49.7269 126.964 50.1459 126.025 50.1459C125.689 50.1459 125.42 50.0062 125.151 49.7269C124.885 49.4477 124.682 49.0286 124.481 48.6099C124.28 48.1909 124.146 47.6323 124.078 47.1436C124.012 46.5848 123.945 46.0961 123.945 45.6073C123.945 44.9788 124.012 44.49 124.146 44.2108C124.28 43.9315 124.616 43.6522 125.22 43.5125C126.56 43.0937 127.702 42.4652 128.642 41.6274C129.581 40.8592 130.317 39.4629 130.921 37.6474C131.525 35.7621 131.929 33.2485 132.196 29.9667C132.465 26.685 132.599 22.4955 132.599 17.1888C132.599 16.4208 132.398 15.932 132.061 15.583C131.726 15.2338 130.921 14.9545 129.781 14.745C129.446 14.6752 129.244 14.396 129.244 13.8374C129.244 13.6977 129.244 13.558 129.244 13.4184C129.244 13.2787 129.312 13.0692 129.312 12.9297C130.183 12.9995 131.122 13.0692 132.13 13.1392C133.069 13.209 134.074 13.209 135.013 13.209H147.023C148.03 13.209 149.102 13.209 150.176 13.1392C151.249 13.0692 152.389 12.9995 153.463 12.9297C153.531 13.1392 153.531 13.2787 153.531 13.4184C153.531 13.558 153.531 13.6977 153.531 13.8374C153.531 14.396 153.329 14.6752 152.993 14.745C151.585 14.9545 150.645 15.2338 150.244 15.583C149.774 15.932 149.572 16.4908 149.572 17.1888V45.6771C149.572 46.4453 149.841 46.9341 150.378 47.2831C150.914 47.6321 151.92 47.8416 153.262 48.1211C153.666 48.1909 153.866 48.4701 153.866 49.0286C153.866 49.1684 153.866 49.3079 153.866 49.4476C153.866 49.5874 153.798 49.7967 153.798 49.9364C152.727 49.8666 151.585 49.7967 150.378 49.7269C149.17 49.6572 148.097 49.6571 147.157 49.6571C145.815 49.6571 144.474 49.6572 143.065 49.7269C141.656 49.7967 140.514 49.8666 139.509 49.9364C139.443 49.7269 139.443 49.5874 139.443 49.4476C139.443 49.3079 139.443 49.1684 139.443 49.0286C139.443 48.4701 139.643 48.1211 140.113 48.0511C141.588 47.8416 142.73 47.6321 143.467 47.3529C144.205 47.0736 144.54 46.5151 144.54 45.6771L144.474 15.3735Z" fill="black"/>
<path d="M179.289 36.1924H167.282L163.86 45.1996C163.657 45.6884 163.591 46.0376 163.591 46.3169C163.591 47.0849 164.665 47.6434 166.878 47.9927C167.147 48.0624 167.282 48.1322 167.414 48.2719C167.483 48.4117 167.549 48.621 167.549 48.8305C167.549 48.9702 167.549 49.1097 167.549 49.2495C167.549 49.3892 167.483 49.5985 167.483 49.7382C166.543 49.6685 165.47 49.5985 164.396 49.5287C163.322 49.459 162.249 49.459 161.243 49.459C160.505 49.459 159.768 49.459 159.029 49.5287C158.291 49.5985 157.486 49.6685 156.681 49.7382C156.613 49.389 156.547 49.04 156.547 48.8305C156.547 48.5512 156.613 48.3417 156.681 48.1322C156.748 47.9227 156.95 47.8529 157.217 47.7832C158.359 47.5737 159.164 47.3642 159.7 47.0849C160.238 46.8056 160.639 46.3867 160.908 45.7584L173.857 13.29C174.123 12.6615 174.461 12.3125 174.862 12.3125C174.93 12.3125 175.131 12.3823 175.532 12.4522L188.549 45.9677C188.75 46.5264 189.219 46.8754 190.024 47.2246C190.763 47.5039 191.499 47.7134 192.238 47.8529C192.439 47.9227 192.641 48.0624 192.776 48.1322C192.908 48.2719 192.976 48.4814 192.976 48.8305C192.976 48.9702 192.976 49.1097 192.976 49.2495C192.976 49.3892 192.908 49.5985 192.908 49.7382C191.768 49.6685 190.628 49.5985 189.488 49.5287C188.346 49.459 187.341 49.459 186.334 49.459C185.328 49.459 184.188 49.459 182.914 49.5287C181.637 49.5985 180.431 49.6685 179.424 49.7382C179.358 49.5287 179.357 49.3892 179.357 49.2495C179.357 49.1097 179.357 48.9702 179.357 48.8305C179.357 48.4814 179.424 48.2719 179.558 48.1322C179.693 47.9927 179.827 47.9227 179.893 47.9227C180.833 47.7134 181.571 47.5039 182.175 47.2944C182.779 47.0849 183.046 46.6659 183.046 46.1772C183.046 45.8979 182.98 45.6186 182.846 45.3394L179.289 36.1924ZM178.418 33.8881L173.387 20.1327L168.153 33.8881H178.418Z" fill="black"/>
<path d="M213.71 30.1187C214.852 30.2582 215.992 30.5374 217.132 30.9564C218.274 31.3754 219.346 31.8642 220.287 32.6322C221.226 33.3305 221.963 34.2383 222.567 35.2856C223.171 36.3328 223.44 37.5899 223.44 39.0561C223.44 40.7319 223.171 42.1982 222.567 43.455C221.963 44.7816 221.158 45.8291 220.018 46.7366C218.944 47.6444 217.602 48.3427 216.058 48.8314C214.517 49.3202 212.839 49.5297 210.961 49.5297H202.439C201.837 49.5297 201.165 49.5297 200.36 49.5994C199.555 49.6694 198.885 49.6694 198.213 49.7392L195.799 49.8787C195.732 49.8089 195.732 49.7392 195.732 49.5297C195.664 49.3899 195.664 49.2504 195.664 48.9711C195.664 48.4824 195.865 48.1331 196.268 48.0634C197.677 47.7841 198.616 47.5049 199.152 47.2256C199.69 46.9461 199.959 46.4574 199.959 45.6893V17.2011C199.959 16.4331 199.69 15.9443 199.152 15.665C198.616 15.3858 197.677 15.1063 196.268 14.827C195.865 14.7573 195.664 14.4082 195.664 13.7797C195.664 13.5702 195.664 13.4307 195.732 13.3607C195.732 13.2212 195.732 13.0815 195.799 13.0117C196.872 13.0815 198.012 13.1512 199.287 13.2212C200.495 13.291 201.568 13.291 202.439 13.291H209.082C211.095 13.291 212.771 13.5005 214.248 13.9892C215.657 14.478 216.797 15.1063 217.736 15.9443C218.609 16.7821 219.279 17.6899 219.683 18.8071C220.084 19.8544 220.287 20.9717 220.287 22.1587C220.287 22.9965 220.152 23.8345 219.815 24.6723C219.48 25.5103 219.079 26.2783 218.475 26.9766C217.937 27.6748 217.267 28.3031 216.462 28.8617C215.657 29.4204 214.784 29.8394 213.845 30.1187H213.71ZM205.795 29.3504C208.948 29.3504 211.23 28.7919 212.639 27.6049C214.047 26.4178 214.718 24.6025 214.718 22.0887C214.718 19.7846 214.047 18.1089 212.639 16.9916C211.23 15.8745 209.014 15.3158 205.795 15.3158H204.99V29.2807H205.795V29.3504ZM204.99 45.2006C204.99 45.6196 205.125 45.9686 205.392 46.1781C205.661 46.4574 205.929 46.6669 206.331 46.8066C206.734 46.9461 207.136 47.0859 207.539 47.0859C207.942 47.1556 208.412 47.1556 208.747 47.1556C210.088 47.1556 211.362 47.0161 212.436 46.8066C213.578 46.5971 214.517 46.1781 215.254 45.6196C216.058 45.061 216.662 44.2928 217.066 43.3852C217.467 42.4077 217.736 41.2207 217.736 39.7544C217.736 37.0311 216.865 35.0063 215.119 33.6795C213.375 32.2832 210.893 31.5849 207.808 31.5849H204.99V45.2006Z" fill="black"/>
<path d="M253.225 21.952L236.989 43.9468V45.5526C236.989 45.9716 237.057 46.3906 237.123 46.6001C237.192 46.8794 237.392 47.0889 237.593 47.2284C237.794 47.3681 238.063 47.5077 238.466 47.6474C238.801 47.7869 239.271 47.8569 239.875 47.9964C240.276 48.1362 240.479 48.3457 240.479 48.7647C240.479 48.9042 240.479 49.0439 240.479 49.2534C240.479 49.393 240.411 49.6025 240.411 49.812C239.472 49.7422 238.532 49.6722 237.527 49.6025C236.519 49.5327 235.514 49.5327 234.575 49.5327C233.567 49.5327 232.495 49.5327 231.422 49.6025C230.28 49.6722 229.208 49.7422 228.066 49.812C228 49.6025 228 49.4627 228 49.2534C228 49.1137 228 48.9042 228 48.7647C228 48.2757 228.201 47.9964 228.536 47.9964C229.878 47.7172 230.818 47.4379 231.354 47.1586C231.823 46.8794 232.092 46.3206 232.092 45.6224V17.1343C232.092 16.3661 231.891 15.8773 231.422 15.5981C231.018 15.3188 230.079 14.9698 228.604 14.6903C228.269 14.6206 228.066 14.3413 228.066 13.7828C228.066 13.643 228.066 13.5035 228.066 13.3638C228.066 13.224 228.134 13.0145 228.134 12.875C229.005 12.9448 230.079 13.0145 231.287 13.0845C232.495 13.1543 233.567 13.1543 234.506 13.1543C235.514 13.1543 236.588 13.1543 237.661 13.0845C238.801 13.0145 239.875 12.9448 240.949 12.875C241.015 13.0845 241.015 13.224 241.015 13.3638C241.015 13.5035 241.015 13.643 241.015 13.7828C241.015 14.3413 240.814 14.6206 240.479 14.6903C239.07 14.8998 238.131 15.1791 237.728 15.5283C237.258 15.8773 237.057 16.4361 237.057 17.1343V39.7572L253.293 17.7626V17.1343C253.293 16.2963 253.09 15.7378 252.755 15.4586C252.42 15.1093 251.682 14.8998 250.542 14.6903C250.138 14.6206 249.938 14.3413 249.938 13.7828C249.938 13.643 249.938 13.5035 249.938 13.3638C249.938 13.224 250.006 13.0145 250.006 12.875C250.877 12.9448 251.816 13.0145 252.824 13.0845C253.829 13.1543 254.768 13.1543 255.774 13.1543C256.781 13.1543 257.855 13.1543 258.929 13.0845C260 13.0145 261.142 12.9448 262.216 12.875C262.282 13.0845 262.282 13.224 262.282 13.3638C262.282 13.5035 262.282 13.643 262.282 13.7828C262.282 14.3413 262.081 14.6206 261.746 14.6903C260.337 14.8998 259.398 15.1791 258.995 15.5283C258.525 15.8773 258.325 16.4361 258.325 17.1343V45.6224C258.325 46.3906 258.525 46.8794 258.995 47.1586C259.464 47.4379 260.404 47.7172 261.813 47.9964C262.148 48.0664 262.348 48.2757 262.348 48.7647C262.348 48.9042 262.348 49.0439 262.348 49.2534C262.348 49.393 262.282 49.6025 262.282 49.812C261.409 49.7422 260.337 49.6722 259.129 49.6025C257.921 49.5327 256.781 49.5327 255.842 49.5327C254.834 49.5327 253.763 49.5327 252.621 49.6025C251.481 49.6722 250.407 49.7422 249.334 49.812C249.267 49.6025 249.267 49.4627 249.267 49.2534C249.267 49.1137 249.267 48.9042 249.267 48.7647C249.267 48.2757 249.468 47.9964 249.803 47.9964C251.146 47.7172 252.017 47.4379 252.555 47.1586C253.024 46.8794 253.293 46.3206 253.293 45.6224V21.952H253.225Z" fill="black"/>
<path d="M291.939 13.1543C292.879 13.1543 294.018 13.1543 295.227 13.0845C296.433 13.0145 297.506 12.9448 298.379 12.875C298.446 13.0845 298.446 13.224 298.446 13.4335C298.446 13.5733 298.446 13.7828 298.446 13.9223C298.446 14.4111 298.245 14.6903 297.91 14.6903C296.501 14.9698 295.562 15.2491 295.092 15.5283C294.623 15.8076 294.42 16.2963 294.42 17.0644V47.2284H307.302V17.0644C307.302 16.2963 307.033 15.8076 306.564 15.5283C306.028 15.2491 305.155 14.9698 303.812 14.6903C303.477 14.6206 303.276 14.4111 303.276 13.9223C303.276 13.7828 303.276 13.643 303.276 13.4335C303.276 13.294 303.343 13.0845 303.343 12.875C304.416 12.9448 305.49 13.0145 306.632 13.0845C307.772 13.1543 308.846 13.1543 309.851 13.1543C310.79 13.1543 311.93 13.1543 313.138 13.0845C314.347 13.0145 315.42 12.9448 316.291 12.875C316.359 13.0845 316.359 13.224 316.359 13.4335C316.359 13.5733 316.359 13.7828 316.359 13.9223C316.359 14.4111 316.157 14.6903 315.822 14.6903C314.413 14.9698 313.474 15.2491 313.004 15.5283C312.534 15.8076 312.334 16.2963 312.334 17.0644V45.4828C312.334 46.2509 312.534 46.7396 313.004 47.0889C313.474 47.4379 314.347 47.7172 315.755 47.9267C316.091 47.9964 316.291 48.2759 316.291 48.8344C316.291 48.974 316.291 49.1137 316.291 49.2534C316.291 49.393 316.225 49.6025 316.225 49.7422C315.085 49.6722 314.011 49.6025 312.938 49.5327C311.864 49.4627 310.79 49.4627 309.785 49.4627H273.825C272.886 49.4627 271.812 49.4627 270.604 49.5327C269.396 49.6025 268.39 49.6722 267.451 49.7422C267.385 49.5327 267.385 49.393 267.385 49.2534C267.385 49.1137 267.385 48.974 267.385 48.8344C267.385 48.2759 267.585 47.9964 267.921 47.9267C269.329 47.6474 270.269 47.2982 270.738 47.0189C271.142 46.7396 271.409 46.1811 271.409 45.4828V17.0644C271.409 16.2963 271.142 15.8076 270.672 15.5283C270.134 15.2491 269.263 14.9698 267.854 14.6903C267.517 14.6206 267.316 14.4111 267.316 13.9223C267.316 13.7828 267.316 13.643 267.316 13.4335C267.316 13.294 267.385 13.0845 267.385 12.875C268.525 12.9448 269.598 13.0145 270.738 13.0845C271.878 13.1543 272.886 13.1543 273.891 13.1543C274.83 13.1543 275.97 13.1543 277.178 13.0845C278.387 13.0145 279.46 12.9448 280.4 12.875C280.466 13.0845 280.466 13.224 280.466 13.4335C280.466 13.5733 280.466 13.7828 280.466 13.9223C280.466 14.3413 280.265 14.6206 279.862 14.6903C278.453 14.9698 277.514 15.2491 277.044 15.5283C276.574 15.8076 276.374 16.2963 276.374 17.0644V47.2284H289.254V17.0644C289.254 16.2963 289.053 15.8076 288.584 15.5283C288.114 15.2491 287.175 14.9698 285.766 14.6903C285.431 14.6206 285.23 14.4111 285.23 13.9223C285.23 13.7828 285.23 13.643 285.23 13.4335C285.23 13.294 285.296 13.0845 285.296 12.875C286.169 12.9448 287.243 13.0145 288.517 13.0845C289.926 13.0845 291 13.1543 291.939 13.1543Z" fill="black"/>
<path d="M342.117 36.1924H330.11L326.688 45.1996C326.486 45.6884 326.419 46.0376 326.419 46.3169C326.419 47.0849 327.493 47.6434 329.707 47.9927C329.976 48.0624 330.11 48.1322 330.242 48.2719C330.311 48.4117 330.377 48.621 330.377 48.8305C330.377 48.9702 330.377 49.1097 330.377 49.2495C330.377 49.3892 330.311 49.5985 330.311 49.7382C329.371 49.6685 328.298 49.5985 327.224 49.5287C326.15 49.459 325.077 49.459 324.071 49.459C323.333 49.459 322.596 49.459 321.858 49.5287C321.119 49.5985 320.314 49.6685 319.509 49.7382C319.441 49.389 319.375 49.04 319.375 48.8305C319.375 48.5512 319.441 48.3417 319.509 48.1322C319.576 47.9227 319.778 47.8529 320.045 47.7832C321.187 47.5737 321.992 47.3642 322.528 47.0849C323.066 46.8056 323.467 46.3867 323.736 45.7584L336.685 13.29C336.952 12.6615 337.289 12.3125 337.69 12.3125C337.758 12.3125 337.959 12.3823 338.36 12.4522L351.377 45.9677C351.578 46.5264 352.048 46.8754 352.852 47.2246C353.591 47.5039 354.327 47.7134 355.066 47.8529C355.267 47.9227 355.469 48.0624 355.604 48.1322C355.736 48.2719 355.805 48.4814 355.805 48.8305C355.805 48.9702 355.805 49.1097 355.805 49.2495C355.805 49.3892 355.736 49.5985 355.736 49.7382C354.596 49.6685 353.456 49.5985 352.317 49.5287C351.175 49.459 350.169 49.459 349.162 49.459C348.156 49.459 347.016 49.459 345.742 49.5287C344.465 49.5985 343.259 49.6685 342.252 49.7382C342.186 49.5287 342.186 49.3892 342.186 49.2495C342.186 49.1097 342.186 48.9702 342.186 48.8305C342.186 48.4814 342.252 48.2719 342.386 48.1322C342.521 47.9927 342.655 47.9227 342.721 47.9227C343.661 47.7134 344.399 47.5039 345.003 47.2944C345.607 47.0849 345.874 46.6659 345.874 46.1772C345.874 45.8979 345.808 45.6186 345.674 45.3394L342.117 36.1924ZM341.246 33.8881L336.215 20.1327L330.981 33.8881H341.246Z" fill="black"/>
<path d="M385.794 46.0371C386.129 46.5957 386.53 46.9447 387.135 47.2239C387.672 47.5034 388.612 47.7129 389.886 47.9222C390.087 47.9922 390.221 48.062 390.422 48.2017C390.556 48.3412 390.691 48.5507 390.691 48.83C390.691 48.9697 390.691 49.1092 390.691 49.249C390.691 49.3885 390.623 49.598 390.623 49.7377C390.087 49.668 389.483 49.668 388.879 49.598C388.274 49.5282 387.604 49.5282 387 49.5282C386.396 49.5282 385.794 49.4585 385.19 49.4585C384.586 49.4585 384.116 49.4585 383.713 49.4585C382.773 49.4585 381.567 49.4585 380.291 49.5282C378.95 49.598 377.676 49.668 376.402 49.7377C376.333 49.5282 376.333 49.3885 376.333 49.249C376.333 49.1092 376.333 48.9697 376.333 48.83C376.333 48.3412 376.534 47.9922 376.937 47.9222C377.81 47.7129 378.481 47.5034 379.017 47.2939C379.554 47.0844 379.821 46.6654 379.821 46.1767C379.821 45.7577 379.689 45.4086 379.42 45.1991L372.041 33.3291L365.131 44.2216C364.661 44.9199 364.458 45.4784 364.458 45.9672C364.458 46.9447 365.398 47.5732 367.276 47.9222C367.68 47.9922 367.88 48.2715 367.88 48.83C367.88 48.9697 367.88 49.1092 367.88 49.249C367.88 49.3885 367.814 49.598 367.814 49.7377C366.875 49.668 365.801 49.598 364.661 49.5282C363.519 49.4585 362.514 49.4585 361.641 49.4585C360.836 49.4585 360.031 49.4585 359.293 49.5282C358.554 49.598 357.683 49.668 356.676 49.7377C356.609 49.5282 356.609 49.3885 356.609 49.249C356.609 49.1092 356.609 48.9697 356.609 48.83C356.609 48.2715 356.81 47.9922 357.213 47.9222C358.018 47.7129 358.823 47.4334 359.628 47.0844C360.435 46.7352 360.97 46.3164 361.306 45.7577L370.766 30.955L361.709 16.5014C361.44 16.0126 360.97 15.5936 360.366 15.3144C359.762 14.9653 358.823 14.7558 357.615 14.6861C357.213 14.6161 356.945 14.3368 356.945 13.7085C356.945 13.5688 356.945 13.499 356.945 13.2895C356.945 13.1498 357.013 12.9403 357.013 12.8008C358.153 12.8705 359.293 12.9405 360.567 13.0103C361.841 13.08 362.915 13.08 363.722 13.08C364.661 13.08 365.801 13.08 367.075 13.0103C368.418 12.9405 369.692 12.8705 370.899 12.8008C370.967 13.0103 370.967 13.1498 370.967 13.2895C370.967 13.4293 370.967 13.5688 370.967 13.7085C370.967 14.2671 370.766 14.6161 370.363 14.6861C369.49 14.8256 368.753 14.9653 368.284 15.1049C367.814 15.3144 367.545 15.5936 367.545 16.0824C367.545 16.2221 367.545 16.3619 367.611 16.5712C367.68 16.7109 367.746 16.9204 367.948 17.1299L374.589 27.6034L381.03 17.7582C381.365 17.2694 381.567 16.7807 381.567 16.3619C381.567 15.5239 380.628 14.9653 378.816 14.6861C378.413 14.6161 378.212 14.2671 378.212 13.7085C378.212 13.5688 378.212 13.499 378.212 13.2895C378.212 13.1498 378.28 12.9403 378.28 12.8008C379.352 12.8705 380.359 12.9405 381.298 13.0103C382.238 13.08 383.042 13.08 383.647 13.08C384.586 13.08 385.525 13.08 386.53 13.0103C387.538 12.9405 388.409 12.8705 389.216 12.8008C389.282 13.0103 389.282 13.1498 389.282 13.2895C389.282 13.4293 389.282 13.5688 389.282 13.7085C389.282 14.2671 389.081 14.6161 388.612 14.6861C387.604 14.8256 386.799 15.0351 386.129 15.3144C385.457 15.6636 384.987 16.0824 384.586 16.7109L375.932 29.9077L385.794 46.0371Z" fill="black"/>
</g>
<defs>
<clipPath id="clip0_1245_2571">
<rect width="392" height="62" fill="white" transform="translate(0.5)"/>
</clipPath>
</defs>
</svg>
