<svg width="116" height="408" viewBox="0 0 116 408" fill="none" xmlns="http://www.w3.org/2000/svg">
<path d="M113.97 403.106L114.675 407.292L110.506 408L109.801 403.814L113.97 403.106Z" fill="#70835B"/>
<path d="M80.1037 389.705C80.0576 389.665 80.0747 389.598 80.1548 389.506C80.235 389.414 80.298 389.387 80.3441 389.428C81.6019 390.527 82.9253 390.276 84.3142 388.674L94.7712 376.613C94.7979 376.583 94.8563 376.593 94.9463 376.645C95.021 376.683 95.0604 376.731 95.0643 376.789L94.7177 399.069L103.252 389.226C103.959 388.41 104.334 387.682 104.377 387.042C104.404 386.389 104.111 385.794 103.497 385.257C103.451 385.217 103.468 385.151 103.548 385.059C103.628 384.966 103.692 384.94 103.738 384.98C104.136 385.329 104.436 385.605 104.638 385.808L105.791 386.857L107.054 387.92C107.297 388.106 107.641 388.393 108.086 388.782C108.117 388.809 108.092 388.869 108.012 388.961C107.932 389.053 107.877 389.086 107.846 389.059C107.186 388.483 106.536 388.253 105.896 388.37C105.24 388.473 104.558 388.933 103.85 389.749L94.7551 400.239C94.8424 401.507 95.2159 402.429 95.8755 403.006C95.9215 403.046 95.9044 403.112 95.8243 403.205C95.7442 403.297 95.6811 403.323 95.6351 403.283L94.7577 402.475C94.587 402.299 94.3329 402.063 93.9954 401.768L92.7789 400.745C92.6275 400.64 92.4444 400.494 92.2297 400.306C92.1069 400.199 92.0493 400.094 92.0567 399.992C92.0354 399.892 92.0435 399.696 92.0811 399.404C92.13 399.068 92.1586 398.646 92.1669 398.139L92.6019 380.282L84.8894 389.177C84.1816 389.994 83.8065 390.722 83.7641 391.362C83.7083 392.017 83.9872 392.613 84.6008 393.149C84.6315 393.176 84.6068 393.236 84.5266 393.328C84.4465 393.42 84.3911 393.453 84.3604 393.426L83.4601 392.599C83.0266 392.166 82.6488 391.808 82.3267 391.527C82.0505 391.285 81.6384 390.952 81.0901 390.527L80.1037 389.705Z" fill="#70835B"/>
<path d="M78.9119 367.724C78.8828 367.753 78.8398 367.738 78.7829 367.68C78.7402 367.636 78.7192 367.585 78.7198 367.527C78.6917 367.469 78.6849 367.433 78.6995 367.419C79.8884 366.536 80.9408 365.645 81.8567 364.745C81.973 364.631 82.0815 364.567 82.1823 364.554C82.2686 364.555 82.3758 364.621 82.5038 364.753L91.5929 374.081C91.6356 374.124 91.6133 374.189 91.5261 374.275C91.4389 374.36 91.3739 374.381 91.3313 374.338C90.8192 373.812 90.413 373.468 90.1127 373.306C89.8125 373.144 89.5179 373.119 89.229 373.231C88.9256 373.358 88.5559 373.636 88.1197 374.064L78.0234 383.984C77.5873 384.412 77.3102 384.77 77.192 385.058C77.0738 385.345 77.0993 385.649 77.2684 385.969C77.4088 386.288 77.7279 386.703 78.2257 387.214C78.2684 387.258 78.2461 387.322 78.1589 387.408C78.0716 387.494 78.0067 387.515 77.964 387.471L69.2589 378.537C69.1167 378.391 69.111 378.254 69.2418 378.125L71.9467 375.382C71.9904 375.339 72.0621 375.354 72.162 375.428C72.2331 375.501 72.254 375.566 72.2246 375.623C71.5246 376.511 71.1986 377.388 71.2468 378.255C71.2803 379.137 71.667 379.957 72.4066 380.716L73.4948 381.833C74.1206 382.475 74.6347 382.813 75.037 382.846C75.4249 382.894 75.8804 382.66 76.4038 382.146L80.8305 377.797L78.4835 375.388C77.7581 374.644 77.1011 374.218 76.5126 374.11C75.9095 374.017 75.3391 374.235 74.8012 374.763C74.7721 374.792 74.722 374.77 74.6509 374.697C74.5656 374.609 74.5374 374.551 74.5665 374.522L76.4196 372.745L77.3795 371.759C77.8163 371.272 78.1655 370.901 78.4271 370.644C78.4562 370.615 78.5134 370.645 78.5988 370.732C78.6841 370.82 78.7122 370.878 78.6832 370.906C78.0581 371.521 77.7779 372.153 77.8428 372.804C77.8789 373.454 78.281 374.173 79.049 374.961L81.332 377.304L86.3256 372.398C86.849 371.884 87.1127 371.439 87.1168 371.064C87.1066 370.674 86.81 370.179 86.2268 369.581L84.8399 368.158C84.0292 367.325 83.1208 366.875 82.1147 366.806C81.08 366.737 80.0123 367.043 78.9119 367.724Z" fill="#70835B"/>
<path d="M48.2764 353.447C48.2381 353.4 48.2663 353.337 48.3612 353.26C48.4561 353.183 48.5227 353.169 48.5611 353.216C49.0215 353.788 49.6253 354.164 50.3727 354.346C51.0915 354.524 51.8978 354.421 52.7916 354.036L68.0286 347.574C68.0919 347.523 68.1938 347.585 68.3345 347.759C68.4624 347.918 68.5011 348.031 68.4506 348.098L60.2957 362.284L75.0492 356.293C75.1125 356.242 75.2145 356.303 75.3551 356.478C75.4702 356.621 75.5153 356.742 75.4904 356.841L66.2816 371.764C65.8122 372.512 65.5804 373.134 65.5861 373.628C65.5791 374.107 65.7737 374.592 66.1702 375.085C66.2085 375.132 66.1803 375.195 66.0854 375.272C65.9905 375.349 65.9239 375.363 65.8855 375.316L65.3146 374.558C65.0137 374.119 64.7162 373.717 64.4221 373.352C63.6932 372.447 62.9676 371.578 62.2455 370.747C62.025 370.505 61.7614 370.194 61.4545 369.813C61.4161 369.765 61.4444 369.703 61.5392 369.626C61.6341 369.549 61.7008 369.534 61.7391 369.582C62.6215 370.678 63.4106 370.943 64.1065 370.378C64.2963 370.224 64.4952 369.984 64.7031 369.657L71.5826 358.517L57.081 364.382C57.0079 364.388 56.9075 364.312 56.7796 364.154C56.6517 363.995 56.6051 363.888 56.6398 363.834L64.7381 349.773L53.2903 354.656C52.91 354.833 52.625 354.999 52.4352 355.153C51.5021 355.911 51.6046 356.996 52.7428 358.409C52.7683 358.441 52.7337 358.496 52.6388 358.573C52.5439 358.65 52.4837 358.672 52.4581 358.641L51.4652 357.359C50.9341 356.634 50.4576 356.01 50.0356 355.486C49.7926 355.184 49.4763 354.824 49.0866 354.405L48.2764 353.447Z" fill="#70835B"/>
<path d="M50.2534 336.03L49.351 340.178L45.2202 339.272L46.1226 335.124L50.2534 336.03Z" fill="#70835B"/>
<path d="M23.9093 311.235C23.8815 311.181 23.9218 311.126 24.0303 311.07C24.1389 311.014 24.2071 311.013 24.235 311.067C24.997 312.557 26.3188 312.817 28.2003 311.846L42.3659 304.54C42.4021 304.521 42.4525 304.552 42.5171 304.634C42.5723 304.697 42.5912 304.756 42.5736 304.811L34.0228 325.374L45.5833 319.411C46.5421 318.917 47.1594 318.38 47.4351 317.802C47.7015 317.205 47.6489 316.543 47.2772 315.817C47.2493 315.762 47.2897 315.707 47.3982 315.651C47.5068 315.595 47.575 315.594 47.6028 315.649C47.8445 316.121 48.0213 316.489 48.1333 316.753L48.8171 318.156L49.5969 319.614C49.7544 319.877 49.9679 320.272 50.2374 320.799C50.256 320.835 50.211 320.882 50.1024 320.938C49.9939 320.993 49.9303 321.003 49.9117 320.967C49.5121 320.186 48.9933 319.73 48.3551 319.6C47.7077 319.452 46.9045 319.625 45.9457 320.12L33.6254 326.474C33.2382 327.684 33.2445 328.68 33.6441 329.461C33.6719 329.516 33.6316 329.571 33.523 329.627C33.4145 329.683 33.3463 329.684 33.3184 329.629L32.8019 328.552C32.7085 328.325 32.5596 328.011 32.3551 327.612L31.6031 326.209C31.5014 326.055 31.3855 325.85 31.2554 325.596C31.181 325.451 31.1661 325.332 31.2106 325.24C31.2277 325.14 31.3076 324.961 31.4504 324.703C31.62 324.409 31.8024 324.028 31.9974 323.56L38.9966 307.138L28.5488 312.527C27.5899 313.022 26.9726 313.558 26.6969 314.137C26.4031 314.725 26.4421 315.382 26.8138 316.109C26.8324 316.145 26.7874 316.191 26.6788 316.247C26.5703 316.303 26.5067 316.313 26.4881 316.277L25.9577 315.173C25.7151 314.609 25.4962 314.136 25.3011 313.755C25.1338 313.428 24.8741 312.965 24.5219 312.366L23.9093 311.235Z" fill="#70835B"/>
<path d="M30.9493 290.394C30.9117 290.41 30.8774 290.38 30.8462 290.304C30.8229 290.248 30.8222 290.193 30.8442 290.139C30.8397 290.075 30.8468 290.039 30.8656 290.031C32.2963 289.657 33.6036 289.224 34.7874 288.732C34.9378 288.669 35.0622 288.65 35.1607 288.676C35.2404 288.709 35.3153 288.81 35.3853 288.98L40.3585 301.037C40.3819 301.094 40.3372 301.146 40.2244 301.193C40.1117 301.24 40.0436 301.235 40.0203 301.178C39.7401 300.499 39.4908 300.028 39.2723 299.765C39.0538 299.502 38.7897 299.369 38.4799 299.365C38.1514 299.369 37.7052 299.488 37.1415 299.723L24.0914 305.15C23.5277 305.385 23.1376 305.613 22.9213 305.836C22.7049 306.059 22.6159 306.35 22.6542 306.71C22.666 307.058 22.8081 307.563 23.0805 308.223C23.1038 308.28 23.0592 308.332 22.9464 308.379C22.8337 308.426 22.7656 308.421 22.7423 308.364L17.9792 296.816C17.9014 296.628 17.947 296.498 18.1161 296.428L21.6442 294.894C21.7006 294.871 21.7615 294.912 21.827 295.017C21.8659 295.111 21.8611 295.18 21.8125 295.222C20.8335 295.784 20.2055 296.476 19.9284 297.299C19.6325 298.129 19.6869 299.035 20.0916 300.016L20.687 301.46C21.0294 302.29 21.3812 302.796 21.7422 302.977C22.0844 303.167 22.5937 303.12 23.2702 302.839L28.992 300.459L27.7078 297.346C27.3109 296.384 26.8593 295.743 26.3531 295.423C25.8281 295.11 25.2179 295.099 24.5227 295.388C24.4851 295.404 24.4469 295.364 24.4079 295.27C24.3612 295.157 24.3567 295.092 24.3943 295.077L26.7736 294.12L28.0303 293.565C28.616 293.277 29.078 293.062 29.4162 292.922C29.4538 292.906 29.4959 292.955 29.5426 293.068C29.5893 293.181 29.5939 293.246 29.5563 293.261C28.7483 293.598 28.2537 294.08 28.0724 294.708C27.8646 295.325 27.9708 296.142 28.3911 297.161L29.6403 300.19L36.0948 297.505C36.7713 297.224 37.1811 296.91 37.3242 296.563C37.4595 296.197 37.3676 295.628 37.0485 294.854L36.2897 293.014C35.8461 291.939 35.1703 291.181 34.2622 290.741C33.3276 290.289 32.2233 290.174 30.9493 290.394Z" fill="#70835B"/>
<path d="M7.85605 265.874C7.83809 265.816 7.88743 265.768 8.00406 265.732C8.12068 265.696 8.18798 265.707 8.20593 265.766C8.42141 266.469 8.84247 267.044 9.46911 267.491C10.0703 267.925 10.8569 268.13 11.8289 268.108L28.3664 267.802C28.4441 267.778 28.5159 267.873 28.5818 268.088C28.6416 268.283 28.6357 268.403 28.5639 268.446L15.7384 278.566L31.6524 278.518C31.7302 278.494 31.802 278.589 31.8678 278.804C31.9217 278.98 31.9187 279.109 31.8589 279.191L17.7819 289.602C17.0687 290.122 16.6232 290.612 16.4454 291.073C16.2615 291.515 16.2624 292.038 16.4479 292.643C16.4659 292.702 16.4166 292.749 16.2999 292.785C16.1833 292.821 16.116 292.81 16.0981 292.751L15.8489 291.835C15.7321 291.315 15.6049 290.831 15.4673 290.382C15.1261 289.269 14.7745 288.192 14.4124 287.15C14.2972 286.844 14.1677 286.457 14.0241 285.988C14.0061 285.93 14.0555 285.882 14.1721 285.846C14.2887 285.81 14.356 285.821 14.374 285.88C14.787 287.227 15.4211 287.768 16.2764 287.503C16.5096 287.431 16.7832 287.283 17.0972 287.057L27.6107 279.287L11.9771 279.313C11.9068 279.292 11.8417 279.184 11.7818 278.988C11.722 278.793 11.7182 278.677 11.7706 278.639L24.4974 268.614L12.0623 268.869C11.6436 268.891 11.3176 268.939 11.0844 269.011C9.93754 269.365 9.63048 270.411 10.1632 272.148C10.1752 272.188 10.1228 272.225 10.0062 272.261C9.88957 272.297 9.82527 272.296 9.8133 272.257L9.36661 270.696C9.14213 269.825 8.93112 269.068 8.7336 268.423C8.61988 268.053 8.45978 267.6 8.25331 267.065L7.85605 265.874Z" fill="#70835B"/>
<path d="M16.1723 250.502L13.7956 254.014L10.2986 251.627L12.6753 248.116L16.1723 250.502Z" fill="#70835B"/>
<path d="M0.911538 216.94C0.906133 216.879 0.964206 216.843 1.08576 216.832C1.20731 216.821 1.27079 216.846 1.27619 216.907C1.42393 218.575 2.55125 219.315 4.65816 219.127L20.5207 217.711C20.5612 217.707 20.5961 217.755 20.6254 217.855C20.6529 217.935 20.6481 217.997 20.6112 218.041L4.98294 233.861L17.9283 232.705C19.002 232.609 19.7749 232.345 20.2472 231.913C20.7176 231.461 20.9168 230.828 20.8447 230.015C20.8393 229.954 20.8974 229.918 21.0189 229.907C21.1405 229.896 21.204 229.921 21.2094 229.982C21.2562 230.511 21.2821 230.919 21.2871 231.205L21.3945 232.764L21.5709 234.409C21.6181 234.713 21.6679 235.159 21.7202 235.749C21.7238 235.79 21.6648 235.816 21.5432 235.827C21.4217 235.838 21.3591 235.823 21.3555 235.782C21.278 234.907 20.968 234.289 20.4255 233.927C19.8812 233.545 19.0722 233.402 17.9985 233.498L4.20234 234.73C3.39023 235.705 3.02291 236.63 3.10039 237.504C3.10579 237.565 3.04772 237.601 2.92617 237.612C2.80461 237.623 2.74114 237.598 2.73573 237.537L2.66072 236.344C2.65936 236.098 2.63886 235.752 2.59922 235.304L2.42831 233.72C2.39183 233.539 2.36098 233.306 2.33576 233.021C2.32135 232.858 2.35195 232.743 2.42758 232.674C2.48115 232.588 2.62228 232.452 2.85098 232.268C3.11838 232.059 3.43013 231.775 3.78622 231.415L16.4251 218.845L4.72572 219.89C3.65201 219.986 2.87903 220.25 2.4068 220.682C1.9143 221.115 1.70409 221.739 1.77616 222.552C1.77976 222.593 1.72079 222.619 1.59923 222.63C1.47768 222.641 1.41511 222.626 1.4115 222.585L1.33379 221.362C1.32026 220.748 1.29457 220.227 1.25674 219.8C1.22431 219.434 1.1572 218.907 1.05543 218.219L0.911538 216.94Z" fill="#70835B"/>
<path d="M15.2027 200.2C15.1621 200.201 15.1414 200.16 15.1408 200.078C15.1403 200.017 15.1603 199.966 15.2006 199.925C15.2205 199.863 15.2406 199.832 15.2609 199.832C16.7268 200.025 18.1004 200.117 19.3817 200.107C19.5444 200.105 19.6667 200.135 19.7485 200.196C19.81 200.257 19.8415 200.379 19.8429 200.563L19.9432 213.613C19.9437 213.674 19.8829 213.705 19.7609 213.706C19.6389 213.707 19.5776 213.677 19.5771 213.615C19.5715 212.88 19.5166 212.35 19.4124 212.024C19.3082 211.698 19.1132 211.475 18.8275 211.354C18.5215 211.234 18.0634 211.176 17.4533 211.181L3.32853 211.291C2.71839 211.295 2.27142 211.36 1.98763 211.485C1.70384 211.609 1.51244 211.846 1.41342 212.194C1.2939 212.522 1.23689 213.043 1.24239 213.758C1.24286 213.819 1.18208 213.85 1.06005 213.851C0.938023 213.852 0.876773 213.822 0.876302 213.76L0.780206 201.262C0.778635 201.058 0.869371 200.955 1.05241 200.953L4.89583 200.862C4.95685 200.862 4.99799 200.923 5.01927 201.045C5.02006 201.147 4.99002 201.209 4.92917 201.23C3.81167 201.381 2.97071 201.786 2.40627 202.444C1.82149 203.102 1.53318 203.962 1.54135 205.024L1.55336 206.586C1.56027 207.485 1.6971 208.086 1.96385 208.391C2.21026 208.695 2.69955 208.845 3.43172 208.839L9.62465 208.791L9.59874 205.421C9.59074 204.38 9.41197 203.615 9.06246 203.128C8.69261 202.64 8.13143 202.4 7.37892 202.405C7.33824 202.406 7.31751 202.355 7.31673 202.253C7.31578 202.13 7.33565 202.069 7.37633 202.068L9.93916 202.079L11.3117 202.038C11.9622 201.992 12.4705 201.968 12.8366 201.965C12.8773 201.965 12.8981 202.026 12.8991 202.148C12.9 202.271 12.8801 202.332 12.8394 202.332C11.9649 202.339 11.3262 202.6 10.9234 203.113C10.5001 203.607 10.2926 204.405 10.3011 205.508L10.3263 208.785L17.3124 208.731C18.0446 208.726 18.5419 208.589 18.8042 208.321C19.0664 208.033 19.1943 207.471 19.1879 206.634L19.1725 204.642C19.1636 203.478 18.8206 202.521 18.1437 201.771C17.4462 201 16.4659 200.476 15.2027 200.2Z" fill="#70835B"/>
<path d="M3.04179 167.597C3.0472 167.536 3.11068 167.511 3.23223 167.522C3.35378 167.533 3.41186 167.569 3.40645 167.63C3.34159 168.362 3.51511 169.054 3.92701 169.706C4.32045 170.336 4.97141 170.825 5.87989 171.172L21.3067 177.163C21.3877 177.17 21.4183 177.286 21.3985 177.51C21.3805 177.713 21.3301 177.821 21.2472 177.835L5.56472 182.339L20.3176 188.331C20.3986 188.339 20.4292 188.454 20.4094 188.678C20.3932 188.861 20.3419 188.979 20.2554 189.033L3.3047 193.332C2.44887 193.543 1.8519 193.828 1.51379 194.187C1.17748 194.526 0.981399 195.011 0.925548 195.642C0.920143 195.703 0.856664 195.728 0.735112 195.717C0.61356 195.706 0.555487 195.67 0.560892 195.609L0.675057 194.666C0.762418 194.141 0.826817 193.644 0.868256 193.176C0.970951 192.017 1.05069 190.886 1.10746 189.784C1.11603 189.456 1.14193 189.049 1.18517 188.561C1.19058 188.499 1.25405 188.474 1.37561 188.485C1.49716 188.496 1.55523 188.532 1.54983 188.593C1.42551 189.997 1.80905 190.738 2.70043 190.818C2.94353 190.84 3.25282 190.806 3.62828 190.716L16.2861 187.51L1.80134 181.603C1.74417 181.557 1.72459 181.432 1.74261 181.229C1.76063 181.026 1.80092 180.916 1.8635 180.901L17.4191 176.447L5.80963 171.966C5.41346 171.828 5.09383 171.748 4.85072 171.726C3.65546 171.62 2.97765 172.471 2.8173 174.282C2.8137 174.323 2.75112 174.338 2.62957 174.327C2.50802 174.316 2.44904 174.29 2.45265 174.249L2.62627 172.635C2.74606 171.743 2.83568 170.962 2.89514 170.291C2.92937 169.904 2.95145 169.424 2.96138 168.851L3.04179 167.597Z" fill="#70835B"/>
<path d="M16.3877 156.996L12.8726 159.356L10.5227 155.826L14.0378 153.467L16.3877 156.996Z" fill="#70835B"/>
<path d="M14.6601 120.435C14.6778 120.377 14.7451 120.365 14.8618 120.401C14.9786 120.437 15.0281 120.484 15.0104 120.542C14.5256 122.145 15.2951 123.255 17.319 123.872L32.5566 128.52C32.5955 128.532 32.6099 128.59 32.5998 128.694C32.5956 128.778 32.5682 128.833 32.5174 128.861L12.1283 137.657L24.5635 141.45C25.595 141.765 26.4101 141.811 27.0089 141.588C27.6137 141.345 28.0343 140.833 28.2708 140.052C28.2885 139.993 28.3557 139.982 28.4725 140.017C28.5893 140.053 28.6388 140.1 28.621 140.159C28.4673 140.667 28.3394 141.055 28.2371 141.322L27.7557 142.808L27.306 144.4C27.2368 144.699 27.1165 145.132 26.945 145.699C26.9332 145.738 26.8689 145.739 26.7521 145.704C26.6354 145.668 26.5829 145.631 26.5947 145.592C26.8489 144.751 26.7919 144.062 26.4236 143.522C26.0613 142.964 25.3644 142.527 24.333 142.212L11.0804 138.17C9.96402 138.768 9.27872 139.488 9.02451 140.328C9.00677 140.386 8.93952 140.398 8.82276 140.362C8.706 140.327 8.65648 140.28 8.67422 140.221L9.04926 139.087C9.13966 138.858 9.2499 138.529 9.37996 138.099L9.8119 136.566C9.84565 136.384 9.90391 136.156 9.98668 135.883C10.034 135.726 10.1054 135.631 10.201 135.596C10.283 135.536 10.4644 135.463 10.7453 135.378C11.0709 135.285 11.4659 135.139 11.9303 134.939L28.3358 128.033L17.0973 124.605C16.0659 124.29 15.2508 124.244 14.652 124.467C14.0337 124.684 13.6063 125.183 13.3698 125.965C13.358 126.004 13.2937 126.006 13.1769 125.97C13.0602 125.935 13.0077 125.897 13.0195 125.858L13.4034 124.695C13.6197 124.12 13.7899 123.628 13.9141 123.217C14.0205 122.866 14.1547 122.352 14.3168 121.675L14.6601 120.435Z" fill="#70835B"/>
<path d="M34.1652 110.281C34.1274 110.266 34.1235 110.22 34.1535 110.144C34.176 110.087 34.2136 110.047 34.2664 110.025C34.3078 109.975 34.338 109.954 34.3569 109.962C35.6431 110.694 36.8816 111.297 38.0727 111.772C38.2239 111.832 38.3261 111.906 38.3792 111.993C38.4134 112.072 38.3968 112.197 38.3293 112.368L33.5363 124.499C33.5138 124.556 33.4458 124.562 33.3324 124.516C33.219 124.471 33.1735 124.42 33.196 124.363C33.466 123.68 33.6138 123.167 33.6393 122.826C33.6647 122.485 33.5677 122.204 33.348 121.985C33.1094 121.758 32.7066 121.532 32.1394 121.306L19.0099 116.075C18.4427 115.849 18.0043 115.74 17.6946 115.748C17.385 115.757 17.1191 115.904 16.8971 116.189C16.6636 116.447 16.4156 116.909 16.1531 117.573C16.1306 117.63 16.0626 117.636 15.9492 117.591C15.8358 117.546 15.7903 117.495 15.8128 117.438L20.4033 105.82C20.4783 105.63 20.6009 105.569 20.771 105.637L24.3665 107.003C24.4233 107.026 24.4386 107.098 24.4125 107.219C24.375 107.314 24.3241 107.36 24.2599 107.356C23.1676 107.075 22.2368 107.132 21.4674 107.529C20.6792 107.918 20.09 108.606 19.7 109.593L19.1262 111.046C18.7961 111.881 18.6977 112.49 18.831 112.872C18.9453 113.248 19.3428 113.571 20.0234 113.842L25.78 116.135L27.0176 113.003C27.4001 112.035 27.5207 111.259 27.3793 110.675C27.2191 110.084 26.7892 109.649 26.0897 109.371C26.0519 109.356 26.0517 109.301 26.0892 109.206C26.1342 109.092 26.1757 109.042 26.2135 109.057L28.5842 110.035L29.8716 110.515C30.4916 110.718 30.9717 110.887 31.312 111.023C31.3498 111.038 31.3462 111.102 31.3012 111.216C31.2562 111.33 31.2148 111.379 31.177 111.364C30.364 111.041 29.6748 111.041 29.1092 111.365C28.5321 111.662 28.0411 112.323 27.6361 113.348L26.4322 116.395L32.9261 118.982C33.6066 119.254 34.1186 119.315 34.4619 119.166C34.8126 118.998 35.1418 118.525 35.4493 117.747L36.1806 115.896C36.6082 114.814 36.6488 113.797 36.3024 112.846C35.9447 111.869 35.2323 111.014 34.1652 110.281Z" fill="#70835B"/>
<path d="M34.44 76.7032C34.4676 76.6486 34.5359 76.6491 34.6446 76.7047C34.7534 76.7603 34.7939 76.8154 34.7662 76.87C34.4341 77.5252 34.3381 78.2324 34.4782 78.9915C34.6094 79.7232 35.032 80.4204 35.7458 81.0831L47.8353 92.4183C47.9078 92.4553 47.8933 92.574 47.7918 92.7742C47.6996 92.9562 47.6126 93.0378 47.5309 93.0189L31.3067 91.3266L42.7703 102.411C42.8428 102.448 42.8284 102.566 42.7269 102.767C42.6438 102.93 42.5522 103.021 42.452 103.039L25.1274 100.681C24.2551 100.556 23.5954 100.597 23.1482 100.804C22.7102 100.992 22.3483 101.369 22.0623 101.933C22.0346 101.987 21.9664 101.987 21.8576 101.931C21.7488 101.876 21.7083 101.821 21.736 101.766L22.1922 100.934C22.4683 100.479 22.7125 100.042 22.9247 99.6236C23.4505 98.5862 23.9444 97.5668 24.4064 96.5654C24.5359 96.2649 24.7113 95.8963 24.9327 95.4594C24.9604 95.4048 25.0286 95.4053 25.1374 95.4609C25.2461 95.5165 25.2867 95.5716 25.259 95.6262C24.6224 96.882 24.7029 97.7138 25.5004 98.1214C25.7179 98.2326 26.0175 98.3169 26.3991 98.3745L39.3346 100.139L28.088 89.2347C28.052 89.1705 28.0802 89.0474 28.1725 88.8653C28.2647 88.6833 28.3427 88.5971 28.4063 88.6067L44.494 90.2981L35.386 81.793C35.0696 81.5167 34.8027 81.3229 34.5852 81.2118C33.5157 80.6652 32.5705 81.2018 31.7494 82.8217C31.7309 82.8581 31.6673 82.8485 31.5586 82.793C31.4498 82.7374 31.4047 82.6914 31.4231 82.655L32.1838 81.2219C32.6259 80.4396 32.9993 79.7481 33.3037 79.1475C33.479 78.8017 33.6777 78.3646 33.8998 77.8365L34.44 76.7032Z" fill="#70835B"/>
<path d="M51.2724 71.0287L47.132 71.8892L46.2751 67.7315L50.4155 66.8711L51.2724 71.0287Z" fill="#70835B"/>
<path d="M63.5785 36.1845C63.6169 36.1369 63.6835 36.1516 63.7784 36.2286C63.8733 36.3057 63.9016 36.368 63.8632 36.4157C62.8146 37.7179 63.1127 39.0368 64.7575 40.3723L77.141 50.4268C77.1726 50.4525 77.1644 50.5115 77.1162 50.6037C77.0809 50.6801 77.0346 50.7213 76.9774 50.7274L54.791 51.1903L64.897 59.3957C65.7353 60.0763 66.4735 60.4262 67.1119 60.4455C67.7631 60.4489 68.3444 60.133 68.8559 59.4978C68.8943 59.4501 68.9609 59.4648 69.0558 59.5419C69.1507 59.6189 69.179 59.6813 69.1406 59.7289C68.8081 60.1418 68.5444 60.453 68.3496 60.6625L67.3476 61.8582L66.3355 63.1638C66.1595 63.4149 65.886 63.7707 65.5152 64.2312C65.4896 64.263 65.4294 64.2403 65.3345 64.1633C65.2396 64.0862 65.2049 64.0318 65.2305 64.0001C65.7804 63.3172 65.9855 62.6564 65.8459 62.0178C65.7191 61.3632 65.2365 60.6957 64.3983 60.0151L53.628 51.2703C52.3695 51.4041 51.4652 51.8124 50.9154 52.4953C50.877 52.5429 50.8104 52.5282 50.7155 52.4512C50.6206 52.3741 50.5923 52.3118 50.6307 52.2642L51.4025 51.3544C51.5718 51.1766 51.7971 50.9131 52.0784 50.5637L53.0522 49.3057C53.1514 49.1499 53.2906 48.9609 53.4696 48.7385C53.5719 48.6115 53.6739 48.5498 53.7755 48.5536C53.8741 48.5285 54.0695 48.5296 54.3615 48.5566C54.6981 48.5935 55.1189 48.6068 55.624 48.5967L73.4114 48.3835L64.2779 40.9678C63.4397 40.2872 62.7014 39.9373 62.0631 39.918C61.4089 39.8859 60.8261 40.1874 60.3145 40.8227C60.289 40.8545 60.2287 40.8318 60.1338 40.7548C60.0389 40.6777 60.0043 40.6233 60.0299 40.5915L60.8209 39.6579C61.2361 39.2072 61.578 38.8151 61.8466 38.4816C62.0768 38.1957 62.3935 37.77 62.7966 37.2043L63.5785 36.1845Z" fill="#70835B"/>
<path d="M84.9915 34.5884C84.962 34.5602 84.9753 34.5166 85.0313 34.4573C85.0734 34.4129 85.1231 34.39 85.1806 34.3885C85.2374 34.3582 85.2732 34.35 85.2879 34.3641C86.2093 35.5252 87.1343 36.5489 88.0631 37.4352C88.1811 37.5478 88.2485 37.6544 88.2655 37.7551C88.2677 37.8417 88.2057 37.9516 88.0796 38.0849L79.1264 47.5446C79.0844 47.589 79.0191 47.569 78.9307 47.4846C78.8422 47.4001 78.819 47.3357 78.8611 47.2913C79.3655 46.7584 79.6929 46.3383 79.8434 46.0311C79.9938 45.7239 80.0079 45.4274 79.8856 45.1416C79.7485 44.8417 79.4588 44.4808 79.0165 44.0587L68.7777 34.2875C68.3355 33.8654 67.9691 33.6003 67.6786 33.4921C67.3882 33.384 67.087 33.4206 66.7751 33.6019C66.4624 33.7543 66.0609 34.0896 65.5705 34.6078C65.5285 34.6522 65.4632 34.6322 65.3748 34.5478C65.2863 34.4634 65.2631 34.3989 65.3052 34.3545L73.88 25.2945C74.0201 25.1465 74.1565 25.1358 74.2892 25.2624L77.1176 27.8771C77.1618 27.9193 77.1493 27.9919 77.08 28.0948C77.0099 28.1688 76.9458 28.1921 76.8875 28.1647C75.9786 27.4945 75.0936 27.1993 74.2324 27.2791C73.3565 27.3448 72.5543 27.7625 71.8257 28.5323L70.7538 29.6648C70.1373 30.3162 69.8198 30.8444 69.8013 31.2493C69.7681 31.6402 70.0168 32.0889 70.5475 32.5954L75.0367 36.8796L77.3485 34.4369C78.0631 33.6819 78.4632 33.0072 78.5489 32.4127C78.6198 31.8042 78.3825 31.2396 77.837 30.719C77.8075 30.6909 77.8278 30.6398 77.8979 30.5658C77.9819 30.477 78.0387 30.4466 78.0682 30.4748L79.9047 32.2697L80.9209 33.1972C81.4207 33.6178 81.8033 33.9548 82.0686 34.208C82.0981 34.2361 82.0708 34.2946 81.9868 34.3834C81.9027 34.4723 81.8459 34.5026 81.8164 34.4745C81.1825 33.8695 80.543 33.6114 79.8978 33.7001C79.252 33.7599 78.5507 34.1895 77.7941 34.9889L75.5453 37.365L80.6094 42.1978C81.1402 42.7043 81.5924 42.9528 81.9662 42.9432C82.354 42.9189 82.8352 42.6032 83.4096 41.9962L84.7757 40.5529C85.5744 39.709 85.9896 38.7811 86.0216 37.7691C86.0527 36.7282 85.7094 35.6679 84.9915 34.5884Z" fill="#70835B"/>
<path d="M98.4912 2.85571C98.5372 2.81548 98.6003 2.84158 98.6804 2.934C98.7606 3.02642 98.7776 3.09275 98.7316 3.13298C98.1794 3.61575 97.8267 4.23543 97.6737 4.99202C97.5227 5.7198 97.6546 6.52513 98.0695 7.40802L105.055 22.4631C105.108 22.5247 105.051 22.6293 104.882 22.7768C104.729 22.9109 104.618 22.9538 104.549 22.9056L90.1348 15.2384L96.6336 29.8254C96.687 29.887 96.6293 29.9916 96.4606 30.1391C96.3225 30.2598 96.2038 30.3095 96.1043 30.2881L80.918 21.5901C80.1557 21.1463 79.5286 20.9363 79.0368 20.9601C78.5604 20.9704 78.0844 21.1834 77.6089 21.5991C77.5629 21.6394 77.4998 21.6133 77.4197 21.5209C77.3395 21.4284 77.3225 21.3621 77.3685 21.3219L78.1018 20.7214C78.5274 20.4035 78.9165 20.0904 79.2693 19.7819C80.1437 19.0176 80.9817 18.2579 81.7833 17.5029C82.0154 17.2729 82.3155 16.997 82.6837 16.6752C82.7297 16.6349 82.7928 16.661 82.8729 16.7535C82.953 16.8459 82.9701 16.9122 82.9241 16.9524C81.8656 17.8778 81.6302 18.6793 82.2178 19.357C82.3781 19.5419 82.6245 19.7327 82.9569 19.9295L94.2943 26.4276L87.9298 12.0888C87.9205 12.0158 87.9925 11.9122 88.1459 11.7781C88.2993 11.644 88.4037 11.5933 88.4591 11.6261L102.747 19.2411L97.4713 7.93103C97.2809 7.55591 97.1055 7.27593 96.9453 7.09109C96.1573 6.18229 95.0807 6.32466 93.7155 7.51819C93.6848 7.54501 93.6294 7.51221 93.5493 7.41979C93.4692 7.32737 93.4445 7.26774 93.4751 7.24092L94.7147 6.1979C95.4163 5.63865 96.0203 5.13775 96.5265 4.6952C96.8179 4.44041 97.165 4.10986 97.5678 3.70356L98.4912 2.85571Z" fill="#70835B"/>
<path d="M114.825 4.91935L110.662 4.18106L111.397 0L115.561 0.738295L114.825 4.91935Z" fill="#70835B"/>
</svg>
