<svg width="44" height="44" viewBox="0 0 44 44" fill="none" xmlns="http://www.w3.org/2000/svg">
<rect width="44" height="44" rx="22" fill="#BEC9B7"/>
<path fill-rule="evenodd" clip-rule="evenodd" d="M31.5411 16.8125C31.6802 16.3442 31.5411 16 30.8794 16H28.6914C28.135 16 27.8787 16.2973 27.7396 16.6253C27.7396 16.6253 26.6269 19.3652 25.0505 21.145C24.5406 21.6602 24.3088 21.8239 24.0306 21.8239C23.8915 21.8239 23.6902 21.6602 23.6902 21.1919V16.8125C23.6902 16.2504 23.5288 16 23.0651 16H19.6268C19.2792 16 19.0701 16.2608 19.0701 16.5081C19.0701 17.041 19.8581 17.1638 19.9394 18.6626V21.9179C19.9394 22.6316 19.8118 22.7611 19.5336 22.7611C18.7919 22.7611 16.9877 20.0086 15.9175 16.8594C15.7077 16.2473 15.4974 16 14.9382 16H12.7502C12.125 16 12 16.2973 12 16.6253C12 17.2107 12.7419 20.1147 15.4539 23.9554C17.2622 26.578 19.8093 28 22.1274 28C23.5183 28 23.6902 27.6842 23.6902 27.1403V25.1579C23.6902 24.5263 23.822 24.4003 24.2622 24.4003C24.587 24.4003 25.1432 24.5642 26.4415 25.8288C27.925 27.3274 28.1694 28 29.004 28H31.192C31.8171 28 32.1297 27.6842 31.9493 27.061C31.7521 26.4398 31.0438 25.5389 30.1039 24.4706C29.594 23.8616 28.8289 23.2058 28.5973 22.8781C28.2727 22.4565 28.3654 22.2692 28.5973 21.8947C28.5973 21.8947 31.2629 18.1008 31.5411 16.8127V16.8125Z" fill="black"/>
</svg>
